<?xml version="1.0" standalone="no"?>
<!DOCTYPE svg PUBLIC "-//W3C//DTD SVG 20010904//EN"
 "http://www.w3.org/TR/2001/REC-SVG-20010904/DTD/svg10.dtd">
<svg version="1.0" xmlns="http://www.w3.org/2000/svg"
 width="396.000000pt" height="739.000000pt" viewBox="0 0 396.000000 739.000000"
 preserveAspectRatio="xMidYMid meet">

<g transform="translate(0.000000,739.000000) scale(0.100000,-0.100000)"
fill="#4D9375" stroke="none">
<path d="M3084 7358 c-9 -18 -36 -54 -60 -80 -24 -26 -44 -54 -44 -62 0 -7 -7
-16 -15 -20 -8 -3 -15 -12 -15 -21 0 -8 -7 -15 -15 -15 -15 0 -21 -16 -28 -87
-3 -24 -19 -72 -36 -108 -28 -60 -32 -65 -50 -53 -23 14 -51 -3 -51 -33 0 -11
-5 -16 -13 -13 -24 9 -48 -21 -61 -78 -17 -72 -59 -144 -99 -169 -43 -26 -53
-24 -33 6 22 34 20 52 -10 80 -34 32 -48 32 -40 1 4 -18 -3 -34 -29 -66 -19
-23 -35 -50 -35 -60 0 -10 -9 -22 -21 -25 -11 -4 -27 -22 -35 -42 -13 -31 -13
-43 11 -139 14 -58 25 -116 25 -128 0 -30 -44 -117 -74 -145 -23 -21 -24 -21
-54 -4 -26 15 -36 16 -61 6 -30 -11 -30 -10 -33 26 -2 29 -7 36 -23 36 -12 0
-39 19 -60 43 -22 23 -47 42 -57 42 -10 0 -18 6 -18 13 0 14 -29 45 -43 46
-11 1 -65 64 -81 95 -13 26 -14 25 -19 -36 -3 -35 -4 -99 -3 -143 1 -44 -2
-85 -7 -92 -5 -7 -4 -20 3 -32 6 -13 7 -21 1 -21 -18 0 -23 -41 -8 -64 14 -21
13 -23 -14 -33 -16 -6 -34 -22 -40 -36 -35 -78 66 -169 222 -201 63 -13 64
-13 61 -44 -3 -24 2 -34 22 -47 14 -10 34 -15 45 -12 15 3 21 -5 34 -47 10
-31 14 -66 10 -89 -5 -30 -3 -37 11 -37 26 0 51 -67 37 -97 -6 -14 -8 -30 -4
-36 4 -6 9 -27 13 -46 4 -27 11 -37 30 -41 23 -6 25 -10 22 -53 -3 -35 2 -57
17 -83 26 -44 26 -46 -4 -34 -30 11 -70 -1 -79 -25 -12 -33 -6 -72 17 -93 25
-24 106 -47 141 -40 23 5 27 -1 50 -64 14 -38 26 -73 26 -77 0 -5 -15 -12 -33
-15 -42 -8 -101 -56 -132 -111 -25 -41 -27 -43 -55 -32 -30 11 -39 30 -20 42
11 7 13 45 4 70 -8 20 -56 45 -87 45 -13 0 -36 -9 -50 -20 l-26 -21 -15 29
c-22 42 -81 90 -150 123 -61 29 -120 38 -131 20 -6 -11 32 -641 39 -649 3 -2
27 1 53 8 40 11 452 152 531 181 l23 9 -23 41 c-13 23 -42 55 -64 71 -50 36
-49 49 13 118 41 46 113 84 129 68 19 -19 41 -398 26 -458 -8 -35 -8 -35 -21
28 -6 34 -15 62 -19 62 -18 0 -175 -47 -390 -116 l-234 -75 59 -53 c32 -29
101 -91 154 -137 52 -46 130 -115 172 -153 77 -68 77 -68 102 -52 37 24 65 75
65 119 0 33 3 37 25 37 66 0 95 60 58 117 l-17 26 29 -7 c33 -8 103 -52 122
-76 9 -12 36 -15 139 -13 136 3 230 -13 417 -72 85 -27 147 -31 189 -12 l27
12 -87 148 c-48 81 -133 213 -190 292 l-102 145 -158 -125 c-168 -134 -392
-298 -399 -292 -13 13 31 56 211 205 110 92 229 189 263 216 l63 49 -34 36
c-19 20 -122 126 -231 236 -178 181 -196 203 -191 228 7 34 -7 72 -29 81 -23
8 -52 -9 -61 -36 -6 -20 -9 -17 -21 24 -13 46 -51 88 -79 88 -16 0 -19 16 -4
25 26 16 -15 133 -50 142 -27 7 -44 61 -25 80 8 8 15 20 15 27 0 17 -36 49
-48 42 -5 -3 -16 19 -26 50 -15 49 -16 56 -2 76 20 28 20 52 1 68 -22 18 -19
23 25 50 51 32 81 91 88 176 5 62 6 64 23 48 26 -23 42 -78 34 -115 -4 -17
-23 -65 -43 -107 -46 -96 -51 -157 -24 -249 26 -85 70 -145 130 -180 81 -46
94 -59 77 -73 -21 -18 -18 -52 8 -91 30 -45 69 -59 97 -34 26 23 25 36 -2 63
-13 11 -41 39 -63 62 -22 23 -48 46 -58 51 -43 25 -81 189 -43 189 8 0 16 -7
20 -15 9 -24 36 -18 36 8 0 30 -18 47 -50 47 -43 0 -63 -30 -59 -88 3 -29 0
-48 -5 -44 -5 3 -6 -3 -3 -14 5 -12 -2 -8 -18 11 -41 49 -68 131 -69 210 0 60
4 79 31 130 17 33 37 80 44 105 7 25 18 53 25 63 10 16 12 15 24 -13 18 -43 8
-121 -24 -181 -14 -29 -25 -54 -23 -56 3 -2 20 12 40 32 28 28 43 35 74 35 81
0 150 -81 140 -164 -3 -23 -8 -50 -12 -61 -6 -16 -5 -18 5 -8 7 6 15 34 18 62
9 101 -63 188 -151 179 -23 -3 -50 -8 -59 -12 -17 -8 -17 -6 -2 30 20 47 21
108 4 156 -13 36 -13 39 15 68 16 16 32 30 36 30 4 0 12 -14 18 -32 14 -39 23
-33 12 8 -18 67 12 117 110 184 62 43 85 82 76 134 -3 19 0 39 6 45 15 15 19
129 6 162 -8 22 -5 43 15 108 35 112 32 119 -13 33 -43 -81 -67 -112 -87 -112
-8 0 -21 -11 -30 -24 -8 -14 -25 -26 -37 -28 -14 -2 -26 -14 -32 -34 -5 -17
-12 -31 -15 -31 -51 -1 -80 -61 -80 -164 0 -94 -29 -162 -82 -190 -13 -7 -9 5
13 43 41 69 46 115 20 215 -23 91 -26 135 -10 164 23 45 89 41 89 -5 0 -24
-32 -46 -38 -27 -2 6 -8 11 -14 11 -6 0 -6 -6 2 -15 18 -22 37 -18 55 9 19 29
8 61 -25 71 -28 9 -25 24 15 70 19 22 35 49 35 60 1 19 2 19 20 -4 26 -30 25
-33 -6 -71 -32 -37 -27 -46 18 -31 64 21 131 109 144 189 6 39 7 39 36 28 35
-13 48 2 42 48 -5 35 8 62 25 52 8 -5 8 -13 1 -27 -20 -36 9 -20 40 22 37 52
70 139 70 187 0 20 5 44 10 52 7 12 11 10 19 -10 9 -22 10 -20 10 19 1 42 2
43 16 25 14 -18 14 -17 15 13 0 22 10 43 31 65 l31 33 -7 -30 c-3 -16 -13 -43
-21 -59 -18 -36 -18 -35 6 -29 16 4 19 2 13 -13 -3 -11 -18 -30 -33 -44 -14
-14 -18 -19 -8 -11 10 8 21 11 25 8 3 -4 -23 -35 -58 -69 -68 -65 -89 -109
-89 -179 1 -28 2 -31 11 -16 13 23 29 22 29 -3 0 -11 -12 -27 -27 -37 -36 -23
-42 -31 -35 -55 4 -15 11 -19 33 -16 32 5 32 5 -24 -70 -46 -61 -58 -124 -35
-182 l14 -35 15 30 c9 19 23 31 38 33 l24 4 -20 -26 c-12 -14 -24 -46 -27 -71
-6 -34 -12 -45 -25 -45 -33 0 -72 -40 -69 -69 4 -30 38 -44 38 -14 0 14 -2 15
-9 4 -6 -9 -11 -10 -15 -2 -20 31 32 84 59 61 21 -17 28 -66 15 -105 -14 -41
-49 -68 -130 -100 -83 -32 -116 -59 -150 -118 -32 -55 -35 -67 -21 -67 5 0 12
13 16 29 11 53 73 109 155 142 41 17 90 44 108 62 l32 31 0 -45 c0 -30 -9 -64
-27 -99 -30 -58 -40 -64 -57 -37 -9 14 -7 21 6 31 16 12 16 14 -7 24 -25 12
-55 7 -55 -8 0 -5 -10 -10 -22 -12 -25 -3 -37 -43 -19 -61 7 -7 7 -16 0 -29
-8 -15 -6 -26 7 -46 l18 -27 6 30 c6 32 36 47 46 22 8 -21 -10 -52 -65 -111
-29 -32 -37 -45 -21 -35 23 15 61 59 100 117 10 14 20 19 28 14 9 -6 5 -19
-18 -51 -31 -42 -116 -105 -131 -95 -5 2 -17 -1 -28 -8 -18 -11 -17 -15 30
-66 69 -75 112 -140 105 -158 -9 -22 -31 -11 -30 15 1 24 -6 27 -24 9 -13 -13
-16 -51 -5 -62 4 -4 6 -21 5 -39 -2 -27 4 -36 34 -54 57 -36 124 -25 69 11
-14 9 -25 25 -25 36 0 80 86 -48 114 -171 8 -33 17 -64 20 -67 4 -3 23 4 44
15 50 28 161 65 173 58 17 -11 -11 -47 -32 -42 -28 8 -23 -11 13 -45 38 -35
41 -31 -87 -93 -118 -57 -187 -75 -317 -82 -60 -3 -108 -8 -108 -10 0 -13 425
-442 431 -436 4 4 84 159 179 344 148 292 174 336 191 332 10 -3 22 -9 24 -13
6 -10 -118 -254 -225 -445 -73 -130 -114 -215 -107 -221 3 -4 442 75 722 129
l120 23 -55 13 c-214 51 -403 180 -476 323 l-24 48 30 60 c17 34 34 59 38 56
4 -2 7 22 8 54 2 81 34 242 48 237 16 -5 20 -46 6 -63 -22 -26 18 -17 46 11
13 13 27 25 29 25 3 0 10 0 16 0 7 0 9 12 7 30 -3 17 -1 33 4 36 13 8 9 38 -9
64 l-18 25 -5 -30 c-4 -21 -12 -31 -28 -33 -12 -2 -22 1 -22 6 0 18 64 104
100 134 l37 32 -71 85 c-120 145 -129 161 -84 161 12 0 18 -7 18 -21 0 -28 23
-19 35 15 6 18 6 33 -2 45 -6 10 -7 24 -3 32 13 22 -4 43 -29 36 -12 -3 -21
-1 -21 4 0 5 -14 16 -31 24 l-30 16 16 -24 c13 -20 14 -29 4 -51 -7 -15 -17
-25 -23 -23 -20 7 -61 90 -101 204 -3 9 -26 2 -77 -21 -105 -49 -118 -52 -118
-26 0 18 4 21 25 17 24 -4 25 -3 12 17 -8 11 -23 23 -33 25 -11 2 -23 9 -27
17 -12 21 -25 17 -62 -20 -21 -20 -35 -43 -35 -57 0 -18 3 -20 9 -10 10 16 41
8 41 -10 0 -15 -108 -7 -165 13 -36 12 -40 17 -48 58 -10 53 -10 52 -1 110 7
48 28 80 52 80 12 0 12 3 2 15 -18 21 -56 19 -78 -5 l-19 -21 -7 23 c-16 63
-3 104 58 177 36 43 46 87 25 108 -8 8 -8 13 0 17 6 4 11 20 11 37 0 22 -5 29
-20 29 -24 0 -24 4 -4 64 12 34 32 60 75 99 32 28 59 59 59 69 0 9 5 29 12 43
9 21 9 28 -1 35 -11 6 -9 21 9 76 12 37 28 81 37 97 8 16 12 31 9 34 -2 3 -12
-10 -22 -29z m-314 -529 c0 -25 -33 -22 -38 4 -2 12 3 17 17 17 15 0 21 -6 21
-21z m150 -58 c0 -12 -23 -31 -37 -31 -17 0 -17 37 0 43 14 5 37 -2 37 -12z
m-180 -157 c-6 -14 -10 -36 -10 -50 0 -13 -4 -24 -10 -24 -5 0 -9 -10 -9 -22
1 -18 2 -19 6 -5 7 27 27 15 31 -18 3 -25 1 -27 -19 -22 -27 7 -49 -8 -49 -34
0 -19 17 -35 28 -24 3 3 0 10 -7 14 -16 10 -6 31 14 31 20 0 33 -31 26 -60 -6
-22 -11 -24 -48 -22 -57 5 -93 -34 -61 -66 17 -17 45 -15 52 3 3 8 1 15 -3 15
-5 0 -11 -6 -14 -12 -3 -10 -7 -10 -20 1 -26 21 -4 53 35 49 39 -4 53 -25 44
-71 -6 -31 -19 -46 -81 -92 -78 -57 -99 -82 -110 -127 -4 -16 -11 -28 -16 -28
-4 0 -23 -13 -41 -29 l-33 -29 1 72 c0 41 6 82 14 96 8 14 17 71 20 127 5 69
12 110 24 128 29 44 92 25 84 -26 -2 -12 -9 -24 -17 -27 -10 -3 -11 2 -6 19 6
19 5 22 -5 12 -14 -13 -7 -43 9 -43 6 0 18 11 27 26 16 24 16 26 -4 54 -18 24
-20 34 -12 55 11 29 33 29 38 0 3 -10 0 -15 -7 -11 -6 4 -11 2 -11 -3 0 -12
30 -15 31 -3 5 58 9 76 20 83 17 10 32 1 25 -17 -3 -8 -1 -14 4 -14 6 0 10 9
10 20 0 18 46 100 56 100 2 0 -1 -12 -6 -26z m-753 -326 c6 -30 23 -39 23 -12
0 29 25 8 28 -24 3 -32 15 -41 27 -22 9 14 35 -7 35 -26 0 -8 9 -14 20 -14 13
0 20 -7 21 -20 1 -11 3 -24 4 -30 1 -5 3 -13 4 -17 0 -4 8 3 17 15 38 55 44
13 14 -110 -12 -49 -20 -118 -20 -168 l0 -85 -34 50 c-41 62 -111 127 -165
154 -22 12 -48 33 -58 47 -16 25 -16 27 0 39 14 10 15 18 7 39 -6 17 -6 26 1
26 6 0 7 14 3 35 -4 23 -2 35 5 35 7 0 9 9 5 25 -4 16 -2 25 5 25 7 0 6 9 -4
24 -11 17 -14 35 -9 67 l7 43 29 -35 c16 -19 32 -46 35 -61z m1150 21 c4 -14
12 -19 24 -16 23 6 35 -9 14 -17 -11 -4 -15 -21 -15 -60 0 -48 -2 -55 -19 -53
-15 1 -21 11 -26 44 -5 33 -13 46 -33 57 l-27 14 28 7 c17 5 27 14 27 26 0 26
21 24 27 -2z m183 -54 c-18 -22 -88 -62 -122 -70 -23 -6 -28 -4 -28 12 0 15
11 23 43 33 23 6 58 20 77 30 39 20 49 18 30 -5z m90 -207 c0 -3 -9 -4 -20 -1
-16 4 -18 9 -9 19 12 14 4 34 -13 34 -6 0 -8 -9 -5 -20 3 -11 3 -20 1 -20 -2
0 -32 14 -67 31 -53 26 -63 36 -59 52 4 14 1 18 -9 15 -8 -3 -13 -11 -11 -17
2 -9 -3 -9 -18 -1 -30 16 -25 24 28 42 27 10 64 35 87 58 l40 41 27 -113 c15
-62 27 -116 28 -120z m-353 119 l56 -13 -92 -63 c-51 -35 -90 -65 -88 -67 2
-3 47 25 100 61 52 36 100 65 105 65 5 0 74 -31 154 -70 l145 -69 12 -93 c7
-51 15 -137 18 -191 7 -118 11 -112 -150 -226 -60 -42 -117 -82 -127 -89 -18
-13 -52 3 -247 120 l-83 49 0 189 0 189 34 26 c24 18 32 31 29 45 -3 11 -8 20
-12 20 -3 0 -6 40 -6 89 l0 89 48 -24 c26 -14 73 -30 104 -37z m13 39 c22 -2
35 -9 35 -17 0 -19 -58 -13 -110 11 l-40 19 40 -5 c22 -3 56 -6 75 -8z m375
-136 c-12 -20 -25 -9 -35 33 -6 23 -13 51 -16 62 -3 11 9 -4 26 -33 17 -29 28
-57 25 -62z m-548 51 c-3 -28 -13 -65 -23 -83 -21 -42 -21 -41 -33 -33 -7 4
-3 21 13 48 14 23 28 59 31 80 10 54 19 45 12 -12z m647 7 c12 20 29 13 23
-10 -3 -12 -1 -30 4 -40 15 -27 4 -54 -16 -38 -7 6 -24 10 -37 8 -13 -2 -29 4
-36 12 -12 13 -13 13 -8 -4 9 -27 -11 -48 -33 -34 -16 10 -14 15 25 53 24 23
44 50 44 60 0 18 0 18 13 0 10 -12 16 -14 21 -7z m-1104 -72 c0 -23 -3 -45 -6
-48 -6 -6 -93 43 -93 52 0 8 83 47 92 43 4 -2 7 -23 7 -47z m-128 13 c30 -29
31 -32 25 -99 -8 -91 -34 -139 -97 -180 l-50 -32 25 -20 c28 -22 32 -40 11
-57 -12 -10 -18 0 -36 55 -39 116 -15 308 43 349 31 22 45 19 79 -16z m470 -8
c-3 -22 2 -33 23 -50 15 -11 34 -21 41 -21 16 0 16 -2 8 -23 -5 -13 -11 -13
-47 4 -55 25 -76 24 -87 -3 -9 -23 -9 -23 -9 -1 -1 12 5 24 12 27 8 3 7 8 -5
16 -20 12 -24 45 -7 56 6 3 16 1 22 -5 17 -17 26 -13 20 9 -4 15 0 20 14 20
16 0 19 -6 15 -29z m122 -40 c6 -10 -22 -37 -29 -29 -8 7 5 38 15 38 5 0 11
-4 14 -9z m665 -102 c68 -84 77 -98 50 -82 -18 10 -64 49 -103 86 -68 65 -70
69 -52 82 11 8 21 15 22 15 1 0 38 -45 83 -101z m-1150 67 c7 -8 8 -17 3 -20
-6 -3 -12 3 -15 14 -6 24 -4 25 12 6z m-451 -25 c47 -24 143 -124 171 -179
l21 -42 -32 6 c-159 26 -237 65 -274 136 -18 35 -18 40 7 72 25 31 56 33 107
7z m1655 -140 l38 -23 -49 -29 c-27 -15 -66 -47 -85 -70 -35 -40 -36 -41 -41
-18 -3 13 -7 58 -11 99 -3 41 -8 97 -12 124 l-6 49 64 -54 c35 -30 81 -65 102
-78z m-781 -213 c-5 -5 -25 15 -45 44 -20 29 -59 71 -87 93 -28 22 -45 42 -38
44 38 11 113 69 141 110 l32 46 3 -164 c1 -91 -1 -168 -6 -173z m-83 77 c17
-19 38 -49 46 -65 27 -52 -8 -36 -48 23 -20 28 -49 68 -64 87 l-28 34 31 -22
c18 -12 46 -38 63 -57z m819 15 c-40 -57 -68 -76 -68 -46 0 12 94 106 106 106
3 0 -14 -27 -38 -60z m-1389 -2 c13 -37 -1 -53 -32 -37 -25 14 -32 36 -17 54
20 24 37 18 49 -17z m1341 -73 c33 -19 55 -19 74 0 19 19 31 3 17 -23 -5 -10
-7 -28 -4 -40 4 -17 1 -22 -15 -22 -12 0 -23 -9 -27 -20 -9 -28 -25 -25 -25 5
0 23 -35 55 -74 68 -9 3 14 47 24 47 3 -1 16 -7 30 -15z m-676 -50 c3 -8 -3
-19 -13 -25 -15 -7 -20 -6 -25 6 -3 9 -4 20 0 25 8 14 31 11 38 -6z m605 -42
c-7 -21 -13 -78 -14 -128 0 -49 -4 -93 -8 -96 -4 -3 -45 3 -90 12 -45 10 -94
19 -108 19 -27 0 -47 34 -28 46 19 12 96 -9 157 -42 72 -39 75 -28 4 13 -26
15 -76 33 -111 38 l-64 11 89 61 c49 34 107 75 129 92 48 35 62 27 44 -26z
m-686 24 c20 10 26 9 31 -3 3 -8 -1 -14 -10 -14 -8 0 -13 -4 -9 -9 3 -5 0 -13
-6 -17 -8 -4 -9 -3 -5 4 4 7 2 12 -3 12 -11 0 -15 -12 -12 -42 1 -10 -4 -18
-13 -18 -18 0 -21 31 -6 46 8 8 6 15 -5 24 -8 7 -15 20 -15 28 0 13 3 12 14
-3 12 -16 18 -17 39 -8z m722 -24 c-4 -21 -13 -69 -19 -108 -10 -54 -14 -65
-20 -47 -8 24 -2 80 16 150 13 53 33 57 23 5z m-977 15 c7 -7 12 -19 12 -27 0
-11 -5 -9 -20 7 -26 27 -36 28 -51 1 -10 -19 -8 -47 6 -114 3 -11 -2 -6 -10
10 -17 36 -19 89 -5 116 12 21 50 25 68 7z m392 -105 c11 -36 20 -77 19 -92 0
-20 -3 -16 -14 19 -8 25 -30 71 -48 102 -26 42 -32 59 -23 68 17 17 42 -21 66
-97z m115 27 l129 -75 -52 -8 c-43 -7 -62 -17 -106 -58 l-53 -49 -5 73 c-3 45
-15 96 -31 135 -14 35 -22 62 -18 60 3 -2 64 -37 136 -78z m-731 43 c4 -9 2
-21 -4 -27 -12 -12 -15 -8 -24 22 -9 27 18 32 28 5z m-34 -25 c0 -5 -4 -8 -10
-8 -5 0 -10 10 -10 23 0 18 2 19 10 7 5 -8 10 -18 10 -22z m530 -5 c0 -9 7
-25 17 -35 13 -15 14 -18 2 -18 -8 0 -20 5 -27 12 -15 15 -16 58 -2 58 6 0 10
-8 10 -17z m-445 -131 c-9 -9 -35 8 -35 24 0 16 2 16 20 -1 11 -10 18 -20 15
-23z m851 -18 c5 -44 11 -58 26 -62 21 -5 19 -27 -3 -27 -8 0 -17 -8 -21 -17
-10 -23 -25 -23 -33 1 -3 10 -13 18 -22 17 -9 0 -18 5 -20 12 -3 6 2 12 11 12
24 0 38 37 31 81 -5 31 -4 39 8 39 11 0 18 -16 23 -56z m-62 40 c34 -13 13
-30 -74 -60 -77 -27 -88 -29 -77 -13 20 27 64 60 95 69 36 11 38 11 56 4z
m-831 -29 c-7 -21 -13 -19 -13 6 0 11 4 18 10 14 5 -3 7 -12 3 -20z m48 -24
c12 -11 19 -27 17 -38 -5 -28 -22 -21 -28 12 -4 17 -12 29 -19 27 -7 -1 -10 2
-6 8 9 14 13 13 36 -9z m945 -2 c32 -5 66 -12 75 -15 12 -3 -7 -49 -95 -224
-105 -208 -113 -220 -143 -226 -77 -15 -135 34 -172 143 -24 72 -26 93 -8 93
7 0 57 22 110 49 65 32 97 44 97 34 0 -7 -20 -52 -45 -99 -25 -46 -45 -97 -45
-113 0 -31 37 -92 60 -99 8 -3 3 8 -12 26 -15 18 -30 41 -33 52 -9 27 10 81
51 149 19 31 34 63 34 72 0 18 44 69 59 69 13 0 35 40 26 48 -3 4 -14 7 -23 7
-10 0 -18 9 -20 23 -4 26 1 26 84 11z m-965 -38 c7 -18 6 -22 -9 -19 -9 2 -19
14 -20 27 -5 30 18 24 29 -8z m255 -16 c4 -8 10 -13 14 -10 5 3 11 -4 15 -15
3 -11 12 -20 20 -20 20 0 26 -28 9 -45 -9 -8 -20 -15 -25 -15 -20 0 -69 57
-75 88 -6 28 -4 32 15 32 12 0 24 -7 27 -15z m-173 -75 c31 -37 41 -64 33 -96
-10 -38 -21 -29 -47 43 -13 37 -25 71 -27 75 -9 20 19 5 41 -22z m-9 -105 c1
-12 6 -27 11 -35 8 -13 6 -13 -8 -1 -10 8 -15 16 -13 19 3 3 -4 18 -15 34 -12
16 -23 48 -25 71 l-4 42 26 -55 c14 -30 27 -64 28 -75z m144 15 c2 -26 -6 -50
-33 -92 -20 -32 -40 -58 -45 -58 -27 0 -15 120 16 168 24 36 58 26 62 -18z
m853 -22 c-5 -13 -25 -50 -45 -82 -50 -83 -54 -113 -22 -180 14 -30 26 -60 26
-66 0 -7 9 -25 21 -42 12 -16 20 -31 18 -32 -8 -8 -260 -48 -265 -43 -7 6 17
53 111 222 40 72 89 163 110 204 29 59 39 71 46 59 5 -10 5 -26 0 -40z m-456
-69 c12 -35 26 -73 33 -85 15 -28 -1 -44 -43 -44 -40 0 -58 14 -98 75 -18 28
-49 59 -72 72 l-40 23 40 1 c22 0 63 7 90 14 28 7 54 12 59 11 6 -1 19 -31 31
-67z m503 32 c39 -49 35 -65 -38 -145 -27 -31 -50 -64 -50 -74 -1 -15 -2 -15
-15 2 -21 28 -19 95 5 136 11 19 30 54 42 78 12 23 23 42 23 42 1 0 16 -18 33
-39z m-1049 -6 c43 -39 61 -83 39 -96 -16 -11 -85 0 -120 18 -32 16 -45 54
-29 89 16 37 62 32 110 -11z m51 9 c0 -8 -5 -12 -10 -9 -6 4 -8 11 -5 16 9 14
15 11 15 -7z m250 -157 l145 -149 -24 -19 c-34 -28 -78 -23 -157 15 -38 19
-85 37 -104 41 -34 6 -37 11 -62 78 l-25 72 40 58 c22 31 41 56 41 55 1 -2 67
-70 146 -151z m76 121 c18 -12 43 -40 54 -61 32 -56 59 -77 99 -77 20 0 43 4
50 9 10 7 24 3 44 -11 16 -12 51 -23 78 -26 27 -2 49 -7 49 -11 0 -3 -24 -50
-53 -103 l-53 -97 -205 206 -204 205 54 -6 c31 -3 68 -15 87 -28z m772 -74
c31 -26 67 -51 80 -57 29 -13 28 -23 -3 -31 -105 -26 -215 -95 -215 -135 -1
-12 -5 -11 -20 8 -23 27 -26 94 -7 127 7 12 26 33 43 48 17 14 37 39 44 56 7
16 14 30 17 30 2 0 30 -21 61 -46z m-1599 -56 c119 -58 184 -166 152 -251 l-9
-24 41 14 c85 30 204 -10 273 -91 19 -22 34 -43 34 -46 0 -4 -42 -5 -93 -2
-144 7 -323 -37 -391 -96 -18 -16 -19 -16 -13 1 34 93 49 239 32 317 -12 56
-44 112 -94 164 l-46 49 35 -7 c19 -3 55 -16 79 -28z m-62 -42 c60 -65 83
-130 83 -230 0 -115 -46 -266 -93 -304 -18 -15 -21 15 -37 308 -6 102 -12 206
-15 233 -3 26 -2 47 4 47 5 0 31 -24 58 -54z m1836 -10 c30 -14 81 -33 113
-42 l59 -17 -225 -43 c-124 -24 -231 -43 -237 -43 -21 -1 -15 34 11 62 28 31
70 53 156 83 36 12 66 23 66 23 1 1 26 -10 57 -23z m-1471 -83 c23 -20 23 -55
1 -81 -13 -14 -35 -22 -75 -25 l-58 -6 0 47 c0 26 4 52 8 58 24 36 88 40 124
7z m407 -18 c78 -38 120 -43 164 -21 32 17 34 8 11 -41 -26 -53 -70 -81 -157
-97 -42 -8 -85 -20 -97 -26 -26 -14 -27 -10 -34 102 -3 47 -9 93 -12 102 -11
28 45 19 125 -19z m281 -81 c50 -54 59 -69 48 -79 -7 -6 -85 -71 -173 -143
-88 -72 -191 -157 -229 -189 -43 -35 -67 -50 -62 -38 4 11 15 39 23 61 21 60
73 116 143 153 118 63 150 108 115 158 -14 20 -13 24 10 49 13 14 30 42 37 60
7 19 15 34 19 34 4 0 35 -30 69 -66z m-148 -81 c41 -37 11 -78 -104 -141 -42
-24 -88 -56 -102 -73 l-26 -31 0 101 0 101 33 13 c18 8 57 17 87 21 31 4 62
11 70 16 20 13 21 13 42 -7z m335 -185 c48 -68 129 -192 180 -278 101 -168
103 -182 24 -160 -46 12 -86 55 -100 108 -6 20 -17 62 -25 92 -18 67 -50 100
-103 107 -35 5 -40 10 -68 66 -22 43 -40 65 -65 79 -19 10 -34 21 -34 24 2 6
95 84 101 84 1 0 41 -55 90 -122z m-729 83 c11 -6 10 -9 -5 -14 -10 -3 -123
-42 -251 -86 -128 -45 -241 -81 -250 -81 -11 0 -7 9 17 34 21 21 30 39 26 47
-5 7 -4 10 2 6 5 -4 25 5 44 19 36 26 134 60 216 74 65 11 185 12 201 1z m528
-107 c9 -51 -8 -99 -66 -178 -28 -38 -56 -90 -64 -115 -13 -46 -13 -46 -62
-49 -44 -2 -55 1 -104 39 -30 23 -66 45 -79 51 -28 10 -35 4 99 100 58 42 139
103 180 136 41 33 78 58 82 56 4 -3 10 -21 14 -40z m68 1 c37 -36 56 -86 56
-145 0 -78 20 -155 51 -199 17 -24 24 -41 16 -38 -55 21 -253 57 -282 51 -23
-4 -35 -2 -35 5 0 25 31 84 82 157 51 72 53 79 53 140 0 75 9 80 59 29z m-516
-7 c-48 -73 -109 -109 -223 -133 -95 -20 -335 -33 -320 -17 14 14 546 184 554
176 2 -2 -3 -14 -11 -26z m35 -40 c6 -44 -3 -103 -21 -149 -16 -40 -58 -68
-113 -75 l-49 -7 34 -37 c65 -73 71 -154 14 -211 l-31 -31 -18 59 c-34 107
-143 218 -283 288 l-69 35 69 0 c90 0 239 24 308 51 40 14 67 34 98 69 24 27
46 49 49 50 4 0 9 -19 12 -42z m615 -79 c36 -12 63 -61 82 -149 7 -30 19 -67
26 -82 15 -29 57 -63 89 -71 14 -3 11 -5 -11 -6 -46 -2 -144 35 -177 67 -16
15 -36 41 -44 57 -16 29 -36 172 -26 188 6 10 25 9 61 -4z m-1082 -99 c128
-62 246 -182 274 -279 10 -36 1 -40 -26 -10 -15 18 -224 205 -352 317 l-27 24
25 -7 c14 -3 61 -24 106 -45z m453 -56 c27 -35 27 -69 -1 -88 -37 -26 -74 -21
-88 13 -6 16 -20 37 -31 47 -19 17 -18 18 28 34 66 24 69 23 92 -6z"/>
<path d="M2566 6282 c-15 -16 -29 -46 -33 -66 -5 -33 -4 -38 13 -34 25 4 64
65 64 99 0 36 -9 36 -44 1z m29 -19 c-3 -16 -17 -39 -31 -53 -22 -23 -24 -23
-24 -5 0 25 36 85 51 85 7 0 9 -10 4 -27z"/>
<path d="M3130 6243 c0 -18 5 -33 10 -33 13 0 13 30 0 50 -7 11 -10 7 -10 -17z"/>
<path d="M3030 6135 c0 -8 5 -15 10 -15 6 0 10 7 10 15 0 8 -4 15 -10 15 -5 0
-10 -7 -10 -15z"/>
<path d="M3015 6047 l-120 -83 -7 -54 c-3 -30 -6 -110 -7 -177 l-1 -123 41
-26 c23 -14 90 -53 150 -86 126 -69 101 -74 267 45 129 93 120 70 102 272 -18
206 -11 188 -88 220 -37 16 -97 43 -134 62 -37 18 -71 33 -75 33 -5 -1 -62
-38 -128 -83z m232 23 c56 -27 113 -52 127 -56 15 -3 28 -10 31 -14 5 -9 21
-151 30 -276 l7 -90 -84 -60 c-45 -34 -104 -75 -130 -93 l-48 -32 -146 83
-146 83 7 170 c4 94 7 170 8 171 1 1 56 38 121 83 66 44 120 81 121 81 0 0 47
-22 102 -50z"/>
<path d="M3039 6017 l-86 -62 -7 -65 c-4 -36 -12 -109 -18 -164 -13 -115 -28
-95 137 -193 l109 -65 35 18 c41 22 182 126 200 148 9 11 10 46 1 158 -6 79
-13 150 -16 159 -3 10 -58 40 -133 73 -71 31 -130 56 -132 55 -2 0 -43 -28
-90 -62z m328 -54 c18 -7 23 -40 29 -188 l6 -140 -74 -54 c-41 -30 -93 -64
-114 -77 l-40 -24 -110 66 c-60 36 -115 71 -122 78 -11 10 -10 41 5 169 l18
156 85 59 84 59 111 -49 c60 -28 115 -52 122 -55z"/>
<path d="M3161 5920 c-1 -14 -7 -32 -14 -41 -17 -23 -71 -33 -97 -19 -12 6
-24 9 -27 6 -4 -3 8 -11 25 -17 18 -6 32 -17 32 -24 0 -7 7 -18 15 -25 14 -12
14 -15 -1 -31 -9 -10 -13 -22 -10 -28 4 -6 -5 -18 -19 -27 -14 -9 -23 -19 -20
-22 3 -3 15 4 28 16 33 31 70 11 78 -43 l6 -40 2 36 c0 20 7 41 14 46 22 18
71 21 102 7 l30 -15 -27 23 c-16 13 -28 28 -28 33 0 4 -7 17 -16 26 -15 17
-15 20 0 44 10 14 24 29 32 32 8 3 14 9 14 14 0 5 -10 3 -23 -5 -22 -15 -67
-12 -67 5 0 5 6 6 14 3 17 -7 31 12 16 21 -6 4 -17 1 -25 -5 -16 -13 -18 -9
-28 35 -4 16 -5 15 -6 -5z m17 -58 c-4 -13 0 -18 16 -18 25 1 33 -29 10 -38
-9 -3 -22 -2 -29 4 -10 8 -19 8 -34 -2 -18 -11 -23 -10 -38 5 -15 15 -16 19
-4 27 9 5 22 5 33 -1 15 -8 18 -6 18 16 0 16 6 25 16 25 11 0 15 -6 12 -18z
m46 -91 c14 -15 14 -20 3 -29 -7 -6 -23 -9 -35 -5 -16 4 -22 1 -22 -11 0 -9
-4 -16 -10 -16 -5 0 -10 9 -10 20 0 23 -10 26 -28 8 -9 -9 -13 -7 -18 6 -10
27 11 42 40 28 19 -9 27 -8 36 4 16 18 23 18 44 -5z"/>
<path d="M3100 5885 c0 -8 7 -15 15 -15 8 0 15 7 15 15 0 8 -7 15 -15 15 -8 0
-15 -7 -15 -15z"/>
<path d="M3245 5810 c-4 -6 -3 -16 3 -22 6 -6 12 -6 17 2 4 6 3 16 -3 22 -6 6
-12 6 -17 -2z"/>
<path d="M3052 5791 c4 -13 18 -16 19 -4 0 4 -5 9 -11 12 -7 2 -11 -2 -8 -8z"/>
<path d="M3186 5695 c4 -8 10 -15 15 -15 5 0 9 7 9 15 0 8 -7 15 -15 15 -9 0
-12 -6 -9 -15z"/>
<path d="M3095 5690 c3 -5 13 -10 21 -10 8 0 12 5 9 10 -3 6 -13 10 -21 10 -8
0 -12 -4 -9 -10z"/>
<path d="M3518 6089 c-10 -5 -18 -14 -18 -19 0 -14 28 -1 34 16 6 16 6 16 -16
3z"/>
<path d="M2726 6041 c-6 -9 39 -51 55 -51 5 0 9 7 9 16 0 10 -5 14 -16 10 -8
-3 -12 -2 -9 4 3 5 -3 14 -14 20 -12 6 -22 6 -25 1z"/>
<path d="M3480 5890 c0 -5 5 -10 10 -10 6 0 10 5 10 10 0 6 -4 10 -10 10 -5 0
-10 -4 -10 -10z"/>
<path d="M3496 5752 c-3 -6 -1 -14 5 -17 15 -10 25 3 12 16 -7 7 -13 7 -17 1z"/>
<path d="M2800 5835 c0 -9 5 -15 11 -13 6 2 11 8 11 13 0 5 -5 11 -11 13 -6 2
-11 -4 -11 -13z"/>
<path d="M2800 5685 c0 -8 7 -15 15 -15 8 0 15 7 15 15 0 8 -7 15 -15 15 -8 0
-15 -7 -15 -15z"/>
<path d="M3542 5588 c3 -7 15 -15 28 -16 21 -3 22 -2 11 12 -16 19 -44 21 -39
4z"/>
<path d="M3417 5544 c-8 -8 1 -24 14 -24 5 0 9 7 9 15 0 15 -12 20 -23 9z"/>
<path d="M3267 5434 c-8 -8 1 -24 14 -24 5 0 9 7 9 15 0 15 -12 20 -23 9z"/>
<path d="M2930 5480 c0 -5 7 -10 15 -10 8 0 15 5 15 10 0 6 -7 10 -15 10 -8 0
-15 -4 -15 -10z"/>
<path d="M3052 5408 c6 -18 28 -21 28 -4 0 9 -7 16 -16 16 -9 0 -14 -5 -12
-12z"/>
<path d="M3170 5274 c0 -14 4 -23 10 -19 6 3 10 15 10 26 0 10 -4 19 -10 19
-5 0 -10 -12 -10 -26z"/>
<path d="M2173 4703 c-15 -5 -17 -29 -4 -37 14 -9 41 4 41 19 0 15 -19 24 -37
18z m24 -19 c-3 -3 -12 -4 -19 -1 -8 3 -5 6 6 6 11 1 17 -2 13 -5z"/>
<path d="M2415 4056 c-15 -11 -17 -18 -9 -26 18 -19 59 -8 59 15 0 25 -24 30
-50 11z m40 -6 c3 -6 -1 -13 -10 -16 -19 -8 -30 0 -20 15 8 14 22 14 30 1z"/>
<path d="M1160 5955 c-1 -5 -1 -20 0 -32 1 -15 -4 -23 -14 -23 -31 0 -56 -41
-56 -92 0 -41 5 -54 36 -88 l37 -41 -7 -76 c-3 -42 -7 -77 -9 -78 -1 -1 -16
-5 -34 -8 -31 -6 -32 -5 -23 19 6 14 10 51 10 83 0 44 -4 62 -19 75 -41 37
-87 -15 -62 -70 8 -18 19 -24 41 -24 22 0 30 -5 30 -17 -1 -35 -26 -72 -63
-98 l-38 -25 -19 22 c-22 27 -26 54 -7 61 7 3 5 6 -5 6 -10 1 -18 -4 -18 -10
0 -6 -7 -8 -16 -5 -12 5 -15 2 -10 -10 5 -12 2 -15 -10 -10 -13 5 -14 4 -6 -7
8 -9 8 -17 1 -24 -7 -7 -3 -9 15 -6 13 3 34 -1 45 -9 21 -15 21 -15 -14 -60
-34 -45 -75 -68 -121 -68 -21 0 -21 2 -11 30 14 38 1 64 -36 68 -27 3 -57 -28
-57 -60 0 -43 112 -65 173 -34 l27 15 0 -38 0 -39 -67 4 c-169 11 -193 15
-203 35 -18 32 -108 72 -149 65 -62 -10 -93 -73 -53 -109 10 -10 44 -22 75
-28 51 -11 59 -10 93 10 l37 22 96 -32 c141 -47 139 -45 105 -80 l-28 -29 -17
26 c-53 82 -179 86 -179 6 0 -31 42 -57 69 -42 25 13 44 47 37 66 -14 36 48
-5 69 -46 11 -22 12 -35 4 -59 -12 -33 -34 -40 -70 -20 -17 9 -18 13 -7 26 11
14 11 15 -2 11 -10 -3 -15 -18 -15 -47 0 -30 3 -40 13 -36 10 3 10 0 2 -15
-11 -21 -6 -40 10 -40 4 0 6 8 3 19 -3 12 3 24 18 35 32 22 35 21 47 -13 8
-24 7 -31 -4 -35 -22 -8 -6 -28 17 -21 27 9 34 -17 14 -55 -15 -29 -18 -31
-34 -16 -27 24 -60 20 -73 -10 -13 -28 -2 -57 24 -62 23 -4 75 44 94 87 l17
39 36 -15 c20 -8 38 -17 40 -19 2 -2 -20 -32 -49 -68 -36 -45 -61 -66 -82 -70
-62 -12 -118 -78 -118 -138 0 -14 -8 -33 -19 -42 -17 -16 -25 -16 -112 -1
-136 23 -217 49 -284 93 -104 67 -181 156 -232 268 -31 68 -43 58 -43 -36 0
-167 99 -330 233 -386 43 -18 44 -20 40 -54 -7 -48 17 -94 56 -110 25 -10 29
-15 21 -30 -25 -47 2 -112 54 -131 31 -11 34 -15 29 -44 -8 -47 19 -100 66
-129 44 -28 47 -36 55 -144 6 -87 31 -145 87 -201 43 -42 128 -81 179 -81 17
0 30 -3 30 -6 0 -3 -13 -25 -30 -49 -34 -50 -69 -65 -149 -65 l-56 -1 29 -15
c20 -11 31 -13 39 -5 6 6 22 11 35 11 42 0 86 29 120 77 l32 47 0 -35 c0 -92
-55 -190 -125 -223 -32 -15 -44 -16 -111 -5 -85 15 -118 5 -141 -41 -12 -24
-13 -24 -13 12 0 93 134 149 248 103 l37 -15 -35 30 c-34 29 -57 40 -45 20 4
-6 -14 -10 -47 -10 -65 0 -130 -28 -155 -66 -13 -21 -17 -45 -16 -92 2 -61 0
-66 -34 -101 -46 -47 -83 -101 -121 -177 -53 -106 -66 -166 -67 -309 0 -124 1
-132 29 -185 91 -175 139 -217 302 -270 l81 -26 -28 -32 c-16 -18 -29 -41 -29
-52 0 -16 -7 -20 -33 -20 -54 0 -74 -41 -43 -86 16 -22 11 -68 -6 -58 -5 3
-20 3 -33 0 -31 -8 -44 -50 -22 -74 9 -11 13 -29 10 -49 -5 -28 -9 -32 -41
-35 -48 -4 -66 -44 -40 -89 21 -36 16 -53 -27 -78 -33 -19 -34 -22 -33 -80 1
-45 6 -66 20 -81 19 -20 19 -20 -12 -20 -42 0 -49 -21 -41 -132 2 -28 58 -51
110 -45 25 3 54 9 64 12 12 5 17 2 17 -9 0 -9 -8 -16 -18 -16 -10 0 -34 -8
-54 -19 -35 -18 -37 -18 -41 0 -7 27 -72 26 -87 0 -14 -28 -2 -51 30 -58 26
-5 28 -8 23 -42 -2 -20 -11 -56 -19 -80 -18 -58 -18 -58 14 -23 15 16 47 39
71 51 l43 22 15 -20 c18 -26 49 -27 63 -2 16 30 12 52 -11 58 -12 4 -18 11
-15 20 3 8 6 17 6 19 0 2 7 4 15 4 8 0 15 7 15 15 0 8 -7 15 -15 15 -21 0 -19
13 5 28 19 12 20 10 20 -46 0 -71 20 -106 58 -99 14 3 33 0 42 -6 22 -13 51
-2 57 23 4 14 14 20 34 20 20 0 34 8 45 26 12 17 20 22 27 15 6 -6 22 -11 35
-11 17 0 28 10 44 43 44 91 52 102 75 99 12 -2 32 2 44 8 18 10 21 18 16 51
-4 30 -2 39 9 39 8 0 19 11 24 25 9 23 12 24 36 13 23 -11 28 -10 46 12 13 16
18 33 15 50 -6 27 17 68 28 51 18 -30 85 3 85 41 0 14 28 33 36 25 2 -1 -4
-23 -12 -47 -11 -31 -15 -68 -12 -121 4 -65 11 -88 46 -158 23 -45 42 -84 42
-87 0 -3 -16 8 -35 25 -24 21 -46 31 -68 31 -30 0 -129 -48 -142 -69 -7 -13
16 -58 50 -99 15 -18 21 -33 15 -37 -5 -3 -10 -20 -10 -36 0 -25 6 -33 30 -42
25 -9 32 -21 50 -78 11 -37 20 -82 20 -101 l1 -33 19 36 c25 47 126 125 134
103 10 -26 50 -12 66 23 9 20 27 37 45 43 45 16 79 48 68 63 -5 6 -15 31 -21
54 -13 43 -61 93 -90 93 -9 0 -30 -7 -46 -15 -15 -8 -30 -15 -31 -15 -2 0 -6
16 -10 36 -3 20 -25 75 -47 123 -47 101 -59 193 -37 282 l13 54 8 -70 c5 -55
18 -92 57 -171 93 -188 207 -274 387 -295 49 -5 106 -7 128 -3 34 5 37 4 33
-12 -3 -11 -11 -46 -17 -79 -19 -101 -60 -214 -81 -226 -26 -13 -49 4 -49 37
0 28 19 42 31 23 5 -9 3 -16 -8 -20 -13 -4 -14 -7 -4 -13 18 -12 34 8 26 33
-9 30 -43 27 -55 -5 -6 -14 -7 -30 -4 -35 3 -6 -4 -7 -18 -4 -33 8 -61 -16
-61 -54 0 -23 -5 -31 -17 -31 -26 0 -43 -26 -36 -55 4 -17 2 -25 -7 -25 -14 0
-57 -52 -57 -70 0 -5 -8 -10 -17 -10 -9 0 -25 -8 -35 -17 -22 -19 -77 -42
-128 -52 l-35 -6 32 -14 c18 -7 45 -11 60 -8 75 16 139 33 150 40 6 4 14 3 18
-3 18 -29 55 10 55 57 l0 36 -27 -24 c-20 -18 -24 -19 -13 -4 18 25 32 35 40
30 4 -2 37 25 73 59 60 57 67 61 67 40 0 -41 27 -94 47 -94 27 0 43 20 43 53
0 16 4 26 10 22 16 -10 60 42 60 70 0 31 -26 43 -47 22 -17 -17 -10 -53 8 -41
8 5 8 8 0 14 -9 5 -8 10 3 20 13 10 17 9 22 -5 8 -20 -4 -43 -29 -59 -46 -29
-58 84 -18 169 13 28 29 66 36 85 l12 34 6 -42 c11 -64 51 -103 112 -108 l50
-5 -25 18 c-58 42 -70 60 -70 110 0 61 29 109 77 129 46 20 92 11 123 -21 19
-21 22 -32 18 -80 -3 -36 -12 -66 -27 -86 -13 -17 -20 -33 -17 -36 10 -10 74
8 101 28 l26 21 -6 -103 c-9 -136 -29 -231 -59 -283 -23 -39 -27 -41 -63 -38
-44 4 -64 -12 -82 -69 -15 -45 -52 -81 -85 -81 -32 -1 -34 -14 -3 -22 71 -19
163 10 192 62 l16 27 -5 -39 c-8 -57 -86 -131 -86 -81 0 8 -4 15 -8 15 -15 0
-32 -24 -32 -47 0 -18 6 -23 25 -23 14 0 25 6 25 13 0 8 11 19 25 25 44 20 65
68 65 149 0 78 14 105 23 45 15 -90 -10 -161 -74 -208 -27 -20 -54 -44 -59
-54 -13 -24 -2 -50 20 -50 13 0 20 -9 22 -27 2 -20 9 -29 26 -31 18 -3 22 -10
22 -36 0 -74 84 -88 105 -18 5 19 16 32 25 32 22 0 40 20 40 45 0 14 10 26 25
33 33 15 33 51 -1 83 -41 38 -67 98 -71 169 -5 70 11 136 27 110 5 -8 5 -21
-1 -31 -5 -10 -9 -39 -9 -65 0 -52 33 -121 73 -150 15 -11 18 -18 9 -21 -23
-9 -12 -24 16 -21 21 2 28 9 30 29 4 32 -24 60 -34 35 -6 -16 -8 -15 -26 1
-11 10 -27 31 -35 46 l-14 29 31 -24 c26 -19 44 -23 100 -23 46 0 73 5 82 14
11 11 8 13 -16 8 -36 -6 -61 18 -76 73 -13 49 -40 79 -80 87 -38 7 -44 15 -70
93 -19 54 -21 79 -17 149 4 57 12 91 24 108 60 82 66 129 29 208 -24 52 -97
128 -135 140 -12 4 -21 15 -21 26 0 34 39 13 119 -65 81 -78 101 -114 101
-178 0 -50 24 -90 49 -86 10 2 25 -3 33 -10 12 -10 18 -10 27 2 6 8 20 12 30
9 15 -4 19 3 24 34 14 97 -1 116 -98 129 -46 5 -56 12 -141 96 -82 80 -120
138 -91 138 6 0 43 -36 84 -79 105 -114 145 -122 276 -61 76 36 116 38 145 7
25 -27 27 -39 10 -70 l-12 -22 -6 25 c-7 29 -47 40 -56 16 -8 -20 13 -46 37
-46 17 0 17 -2 -1 -42 -29 -65 -26 -95 13 -118 l32 -20 -34 0 c-20 0 -39 7
-47 18 -13 16 -13 16 -14 -1 0 -33 51 -73 103 -81 49 -8 69 -28 49 -48 -9 -9
-17 -7 -32 7 -11 10 -20 13 -20 7 0 -7 9 -17 20 -24 11 -7 20 -18 20 -25 0 -6
14 -25 31 -42 22 -23 26 -31 14 -31 -9 0 -25 5 -36 10 -38 21 -18 -7 21 -29
39 -22 56 -51 48 -85 -5 -26 -64 16 -88 64 -26 50 -37 51 -32 2 3 -35 3 -36
-10 -13 -7 13 -22 29 -33 35 -11 6 -26 19 -33 29 -7 9 -18 17 -23 17 -6 0 -3
-7 6 -16 22 -22 3 -44 -23 -28 -12 8 -18 28 -20 73 -3 54 -6 63 -27 73 -16 7
-32 7 -52 0 -23 -9 -24 -11 -7 -11 31 -1 47 -26 39 -58 -6 -24 -8 -26 -16 -10
-16 28 -68 49 -104 43 -29 -6 -33 -4 -39 18 -7 30 -36 48 -55 36 -18 -11 -6
-41 19 -47 28 -7 25 -21 -6 -29 -18 -5 -34 0 -55 15 -16 12 -29 17 -29 12 0
-16 43 -41 71 -41 15 0 46 7 69 15 60 21 68 19 106 -21 l34 -35 12 26 c9 20 9
34 1 56 -12 30 -5 37 15 17 7 -7 12 -34 12 -61 0 -72 13 -91 60 -83 43 7 70
-11 70 -45 0 -25 20 -24 27 2 5 19 7 18 32 -10 14 -17 48 -40 75 -51 l49 -20
-17 24 c-9 14 -16 36 -16 49 0 13 -9 32 -20 42 l-21 19 22 12 c22 12 22 12
-10 28 -36 19 -64 67 -43 74 37 12 -8 72 -56 72 -23 0 -82 26 -82 36 0 3 8 3
19 -1 22 -7 71 10 71 25 0 5 -8 10 -18 10 -11 0 -27 9 -36 19 -23 25 -15 63
25 125 35 57 37 89 4 121 -33 34 -77 32 -161 -6 -79 -36 -154 -43 -181 -17
-15 15 -13 16 23 8 80 -18 158 20 193 93 20 42 28 87 15 87 -4 0 -22 -14 -42
-31 -70 -62 -136 -74 -192 -36 -41 27 -53 66 -37 115 17 51 54 75 121 76 48 0
60 -4 95 -32 48 -39 52 -31 12 28 -70 104 -173 117 -263 33 l-27 -25 26 78
c22 70 24 90 20 174 -8 123 -22 190 -59 267 -44 96 -124 175 -224 225 l-83 41
24 29 c47 56 24 171 -40 200 -22 10 -24 15 -18 54 5 40 3 46 -30 79 -19 19
-42 35 -50 35 -13 0 -14 5 -5 30 21 62 -21 150 -71 150 -17 0 -19 5 -14 34 4
28 1 39 -20 60 -15 15 -37 26 -53 26 -23 0 -25 3 -20 24 9 36 -10 76 -42 88
-27 11 -28 13 -18 49 8 30 6 42 -8 64 -10 15 -27 30 -37 32 -12 3 -19 14 -19
29 0 24 -35 55 -54 48 -7 -3 -11 8 -11 27 0 38 -26 60 -53 43 -9 -6 -17 -23
-17 -38 1 -36 -11 -33 -19 5 -4 20 -1 38 9 52 20 29 19 43 -5 67 l-20 20 22
31 c17 23 23 44 23 82 l0 52 63 -47 c35 -27 69 -48 76 -48 9 0 17 55 30 198
10 108 27 251 37 316 11 65 18 120 16 122 -2 2 -123 -4 -270 -13 -146 -9 -268
-15 -270 -13 -2 3 -7 25 -10 49 l-5 43 294 -4 295 -4 -6 51 c-3 27 -17 167
-31 310 -15 143 -28 262 -30 263 -1 2 -18 -1 -37 -7 -52 -17 -113 -75 -132
-125 l-17 -44 -36 15 c-19 8 -46 13 -59 10 -17 -3 -23 0 -23 14 0 25 -37 44
-56 28 -11 -9 -14 -8 -14 9 0 39 19 71 52 88 18 9 45 27 59 41 23 21 27 22 39
9 7 -9 11 -33 8 -56 -2 -22 0 -40 4 -40 5 0 8 17 8 37 0 34 1 35 14 18 13 -18
14 -18 20 2 4 11 16 25 29 32 21 11 21 11 -5 6 -19 -4 -35 2 -54 18 l-27 23
34 39 c30 34 82 65 109 65 5 0 10 -11 10 -24 0 -38 50 -45 64 -9 19 48 -90 58
-152 14 l-32 -22 0 50 0 51 73 0 c135 0 237 -12 237 -27 0 -8 12 -25 26 -38
46 -43 107 -29 127 28 15 42 -62 72 -125 48 -17 -6 -64 -1 -155 18 l-131 26
18 22 c17 22 18 22 35 3 9 -10 42 -27 72 -36 54 -17 56 -17 69 1 18 24 18 40
-1 55 -20 17 -48 9 -60 -18 -13 -29 -36 -28 -68 4 -21 21 -25 32 -20 62 7 47
9 48 41 35 65 -26 68 -26 42 -4 l-25 21 30 1 c20 1 24 3 11 6 -15 4 -16 7 -5
14 11 7 10 9 -5 9 -15 0 -16 3 -6 15 7 9 8 15 2 15 -5 0 -12 -7 -15 -14 -3 -8
-20 -22 -38 -31 -36 -19 -41 -15 -61 48 -10 33 -9 44 10 83 20 40 42 58 42 34
0 -5 13 -10 30 -10 23 0 31 5 36 24 8 33 -2 46 -36 46 -22 0 -34 -9 -59 -47
-17 -26 -34 -64 -37 -84 l-6 -37 -35 20 c-38 23 -39 18 26 90 13 15 22 30 19
33 -3 3 -33 -28 -67 -69 -55 -67 -60 -77 -51 -101 5 -14 10 -58 10 -96 0 -60
-2 -69 -19 -69 -22 0 -82 20 -95 31 -5 4 14 37 43 74 29 37 50 69 48 72 -3 2
-29 -27 -58 -66 -30 -39 -57 -71 -60 -71 -4 0 -21 16 -38 36 l-32 36 38 27
c21 15 67 47 102 71 l65 43 -50 15 c-27 8 -82 22 -123 31 -41 9 -76 22 -79 29
-5 16 15 12 157 -34 l104 -33 37 29 c20 16 43 36 50 45 7 8 16 13 20 10 5 -3
20 8 33 25 19 23 34 30 60 30 68 0 117 64 117 152 l0 53 19 -30 c29 -48 74
-80 153 -111 136 -52 199 -135 204 -269 3 -67 2 -74 -6 -42 -30 118 -114 190
-204 173 -74 -14 -101 -83 -63 -158 13 -27 22 -48 18 -48 -25 0 -75 47 -93 87
-19 43 -20 51 -7 88 20 58 69 83 138 69 28 -6 51 -7 51 -2 0 8 -55 35 -120 59
-19 7 -47 26 -62 42 -16 16 -28 25 -28 20 0 -20 62 -66 112 -83 l53 -19 -38 0
c-73 -2 -127 -53 -127 -123 0 -63 63 -136 133 -152 l29 -7 -32 45 c-52 72 -41
144 26 166 70 23 158 -32 189 -119 23 -66 19 -95 -6 -44 -27 55 -82 103 -117
103 -32 0 -52 -16 -52 -41 0 -25 15 -31 43 -18 55 25 107 -49 115 -164 6 -84
22 -77 46 20 20 76 22 173 7 231 -22 82 -94 154 -191 192 -117 46 -170 92
-170 150 0 35 -20 21 -26 -19 -6 -38 -8 -39 -38 -34 -53 8 -116 -62 -116 -130
0 -17 -19 -41 -70 -87 -39 -34 -72 -61 -74 -59 -1 2 -10 16 -19 31 -16 26 -16
27 11 33 15 3 45 18 67 33 33 23 40 34 40 61 0 21 -7 38 -17 44 -37 24 -79
-58 -47 -90 9 -9 3 -16 -24 -29 -36 -17 -37 -17 -89 9 -29 15 -64 27 -76 27
-29 0 -82 51 -82 78 0 15 5 18 24 15 35 -7 64 37 48 72 -14 31 -45 32 -73 4
-18 -18 -20 -29 -15 -68 3 -25 15 -58 26 -73 l20 -28 -32 -13 c-29 -12 -34
-12 -40 3 -15 40 -10 116 11 160 11 25 21 55 21 68 0 31 -26 79 -49 92 -12 6
-21 24 -24 43 -2 17 -5 28 -7 22z m0 -155 c0 -98 -8 -110 -40 -57 -26 42 -26
101 0 127 34 34 40 24 40 -70z m64 2 c-1 -20 -7 -50 -14 -67 l-13 -30 -8 45
c-4 25 -8 65 -8 90 l-1 44 22 -22 c16 -15 22 -33 22 -60z m90 -65 c14 -21 -24
-63 -48 -54 -21 8 -20 53 2 66 21 13 32 10 46 -12z m-108 -262 c8 -71 18 -144
21 -162 5 -30 3 -32 -36 -44 -23 -7 -43 -10 -45 -8 -2 2 0 31 5 64 4 33 11
141 16 240 6 163 8 173 15 110 4 -38 15 -128 24 -200z m526 228 c-25 -34 -92
-100 -92 -90 0 41 64 117 97 117 11 0 10 -6 -5 -27z m23 -69 c-19 -36 -53 -57
-83 -52 -18 3 -14 11 36 70 54 64 57 66 60 40 2 -15 -4 -41 -13 -58z m-669 30
c9 -35 -2 -56 -28 -52 -33 4 -49 55 -24 73 23 18 45 9 52 -21z m494 -45 c0
-28 -29 -52 -46 -38 -19 15 -18 44 2 64 19 19 44 4 44 -26z m-193 -70 c42 -20
83 -65 83 -89 0 -9 -3 -10 -13 -1 -8 6 -16 8 -19 5 -3 -3 -46 7 -94 21 -142
43 -157 55 -91 74 52 15 88 12 134 -10z m311 -51 c-3 -26 -36 -37 -49 -17 -10
17 8 39 33 39 14 0 19 -6 16 -22z m-607 -24 c-95 -34 -141 -86 -141 -161 -1
-32 -2 -35 -11 -19 -38 65 57 188 160 206 61 11 57 -2 -8 -26z m-48 -90 c-65
-72 -79 -83 -81 -65 -6 41 31 94 88 123 29 16 57 28 62 28 5 0 -26 -39 -69
-86z m78 49 c-62 -78 -139 -158 -145 -152 -6 6 160 189 171 189 3 0 -9 -17
-26 -37z m231 10 c37 -8 70 -18 73 -22 3 -6 -142 -113 -176 -129 -6 -3 -29
121 -29 158 0 24 -7 24 132 -7z m-206 -60 c-4 -32 -10 -73 -13 -91 l-5 -32
-52 6 c-28 4 -54 9 -58 13 -7 6 118 161 129 161 3 0 2 -26 -1 -57z m-341 27
c10 -31 -19 -70 -46 -63 -29 8 -34 29 -15 58 20 30 52 33 61 5z m1266 -32 c40
-41 69 -102 68 -148 -1 -33 -2 -32 -13 15 -26 103 -71 150 -123 126 -27 -12
-41 3 -23 24 20 24 56 17 91 -17z m-522 -24 c67 -59 75 -140 21 -189 -34 -31
-47 -13 -55 72 -3 43 -9 89 -12 103 -5 24 -4 24 31 -9 42 -41 46 -72 16 -131
-25 -48 -18 -53 10 -7 11 17 20 49 20 71 0 31 -7 45 -40 78 -22 22 -40 42 -40
44 0 10 13 1 49 -32z m-969 1 c88 -44 74 -57 -34 -30 -94 24 -94 24 -72 41 28
20 49 18 106 -11z m924 -127 c5 -44 4 -68 -3 -68 -5 0 -12 8 -15 18 -5 17 -10
178 -6 197 3 13 16 -63 24 -147z m-958 81 c69 -18 82 -24 73 -35 -15 -19 -100
-18 -144 0 -24 10 -35 22 -35 35 0 26 1 26 106 0z m498 -50 c39 -5 72 -11 74
-13 4 -5 -19 -88 -27 -98 -4 -4 -92 24 -196 63 l-190 70 135 -6 c74 -4 166
-11 204 -16z m262 -102 c-3 -26 -8 -52 -11 -57 -3 -5 -30 -17 -61 -27 l-55
-17 -38 40 -39 39 15 52 c15 51 17 53 72 72 l56 19 33 -36 c30 -34 33 -41 28
-85z m-586 39 c0 -41 -11 -56 -40 -56 -20 0 -31 6 -35 21 -9 26 20 59 52 59
18 0 23 -5 23 -24z m204 -28 c3 -13 15 -67 27 -121 11 -54 19 -100 17 -102 -2
-2 -18 52 -35 120 -17 69 -27 125 -22 125 5 0 11 -10 13 -22z m447 11 c11 -6
93 -25 182 -44 l162 -33 -180 -1 c-99 -1 -190 -4 -202 -7 -26 -7 -28 2 -12 59
11 39 18 43 50 26z m392 -3 c3 -8 -1 -22 -8 -33 -13 -16 -15 -17 -30 -2 -9 9
-13 23 -9 32 8 21 40 22 47 3z m-898 -32 c-37 -55 -34 -107 9 -150 19 -19 41
-34 50 -34 8 0 20 -9 26 -20 15 -28 -13 -27 -65 3 -55 31 -82 85 -66 135 13
45 47 102 61 102 5 0 -2 -16 -15 -36z m163 4 c28 -11 52 -22 52 -24 0 -9 -39
-80 -68 -123 l-30 -43 -15 68 c-9 38 -19 89 -23 113 -7 41 -6 44 12 37 10 -4
43 -17 72 -28z m-108 -78 c12 -50 20 -94 17 -97 -8 -7 -57 24 -74 46 -18 24
-15 72 7 109 11 17 22 32 24 32 2 0 14 -41 26 -90z m247 -16 c2 0 -49 -42
-113 -93 -64 -51 -113 -95 -110 -98 3 -3 12 0 20 6 12 10 16 8 21 -11 4 -13
14 -30 22 -39 12 -15 9 -18 -30 -28 -48 -12 -111 -70 -105 -98 9 -45 83 -41
94 4 5 20 2 31 -15 44 -21 17 -21 18 -4 28 36 19 87 23 107 8 19 -14 19 -15 2
-42 -10 -16 -30 -39 -45 -53 l-26 -24 26 15 c26 16 27 15 22 -6 -3 -15 2 -11
17 13 l21 35 -5 -33 c-4 -20 -2 -31 4 -27 6 3 10 16 10 28 0 20 0 20 16 1 15
-19 16 -19 8 1 -4 11 -9 32 -11 46 -4 24 -1 28 28 34 29 7 37 3 66 -29 37 -40
43 -67 14 -59 -25 6 -63 -32 -59 -59 4 -29 33 -46 56 -32 50 31 50 102 0 160
l-30 34 29 24 c15 14 33 26 38 26 6 0 20 -47 31 -104 17 -88 18 -108 8 -128
-28 -50 -10 -114 37 -130 10 -4 -2 -22 -36 -59 -28 -30 -59 -73 -69 -97 l-19
-42 -22 53 c-60 148 -147 201 -370 227 -127 15 -131 16 -115 35 7 8 28 15 47
15 28 0 44 9 74 39 35 35 47 66 40 105 -1 5 19 31 45 57 26 27 49 54 50 61 1
8 26 47 55 88 30 42 65 97 79 122 l25 47 35 -32 c19 -18 36 -32 37 -33z m789
31 c14 -11 15 -14 4 -15 -35 0 -89 13 -84 21 8 14 58 10 80 -6z m-486 -3 c0
-4 -34 -41 -76 -82 -41 -41 -80 -84 -85 -95 -6 -11 33 26 86 83 53 56 101 102
107 102 5 0 -35 -47 -89 -106 -118 -127 -124 -136 -83 -124 48 14 111 53 132
81 11 14 26 47 33 75 l15 49 -4 -47 c-8 -100 -90 -183 -174 -176 l-37 3 -3 84
c-2 47 -1 99 3 117 5 30 9 33 48 37 82 7 127 7 127 -1z m445 -18 c53 -9 57
-12 45 -35 -14 -25 -60 -25 -94 2 -30 23 -36 53 -8 45 9 -3 35 -8 57 -12z
m-636 -161 l0 -168 -24 100 c-13 55 -30 116 -38 135 -31 75 -31 78 5 89 61 17
58 25 57 -156z m-74 64 c35 -94 35 -96 -22 -86 -112 21 -153 31 -153 38 0 9
141 123 146 118 2 -2 15 -33 29 -70z m275 42 c-14 -47 -36 -76 -80 -105 -68
-45 -64 -22 10 59 40 42 73 77 75 77 2 0 0 -14 -5 -31z m208 -2 c2 -12 -3 -17
-17 -17 -12 0 -21 6 -21 13 0 31 32 34 38 4z m-1633 -110 c41 -84 168 -212
251 -252 l61 -29 -15 -44 c-12 -35 -12 -52 -3 -82 11 -39 52 -80 77 -80 17 0
18 -14 4 -41 -9 -15 -6 -24 14 -44 14 -14 34 -25 46 -25 15 0 20 -6 20 -28 0
-52 59 -102 121 -102 35 0 89 31 104 61 42 81 -7 169 -93 169 -27 0 -31 5 -40
43 -6 24 -20 51 -31 61 -19 18 -22 18 -46 2 -14 -9 -25 -22 -25 -29 0 -6 -8
-2 -18 10 -9 12 -35 29 -57 38 -21 8 -43 21 -47 28 -7 11 -11 57 -5 57 2 0 43
-9 92 -19 50 -11 162 -29 250 -41 231 -31 260 -38 312 -73 95 -64 149 -168
158 -309 4 -45 13 -98 21 -117 47 -109 -17 -212 -122 -196 l-43 6 32 45 c60
85 37 200 -55 278 -119 102 -272 51 -301 -99 -3 -17 -2 -37 4 -45 9 -16 10
-15 13 46 3 53 38 102 93 126 57 25 107 17 171 -26 130 -90 125 -290 -9 -326
-21 -6 -51 -22 -67 -35 -32 -27 -66 -31 -123 -15 -47 13 -78 48 -86 96 l-6 39
24 -22 c29 -26 90 -53 120 -53 11 0 35 7 53 15 123 59 57 276 -77 251 -37 -7
-87 -40 -87 -58 0 -5 14 2 31 16 40 34 72 41 109 26 64 -27 97 -117 65 -179
-40 -79 -143 -75 -217 8 l-41 46 7 -54 c4 -30 12 -63 18 -74 8 -16 5 -25 -20
-50 l-30 -30 1 61 c2 93 -43 148 -164 197 -13 6 -32 27 -43 49 -15 31 -17 44
-8 72 9 29 8 34 -6 34 -10 0 -31 9 -49 19 -39 24 -51 67 -29 108 15 29 14 30
-20 42 -48 17 -68 51 -61 104 l6 42 -47 19 c-71 29 -173 136 -201 210 -23 61
-41 216 -25 215 5 0 22 -28 39 -62z m1083 -20 c56 -11 102 -24 102 -29 0 -5
-10 -6 -22 -4 -13 3 -63 12 -113 21 -112 21 -118 22 -110 36 4 6 14 7 24 4 9
-4 62 -16 119 -28z m-341 -4 c9 -23 -34 -58 -53 -42 -17 14 -18 31 -2 47 17
17 48 15 55 -5z m318 -22 c84 -18 88 -20 62 -30 -43 -17 -69 -14 -122 15 -35
18 -45 21 -34 8 19 -23 71 -44 109 -44 18 0 29 -4 25 -10 -3 -5 -26 -10 -50
-10 -35 0 -49 6 -74 31 -32 31 -36 41 -24 52 8 9 4 10 108 -12z m229 -38 c-16
-38 -16 -104 0 -122 15 -16 14 -21 -3 -57 -17 -35 -18 -41 -4 -67 14 -28 11
-77 -6 -77 -4 0 -12 25 -18 55 -6 35 -6 55 0 55 6 0 5 5 -1 13 -6 6 -13 58
-17 115 l-8 102 33 0 c27 0 31 -3 24 -17z m343 5 c-51 -117 -57 -136 -57 -210
0 -101 16 -166 66 -266 30 -60 37 -81 26 -77 -174 71 -368 84 -472 33 l-48
-24 10 25 c22 60 89 129 156 162 47 23 135 29 170 10 27 -14 34 -3 18 28 -53
101 -10 252 89 312 35 22 49 24 42 7z m48 -260 c15 -141 25 -267 23 -280 -2
-18 -13 -5 -45 58 -78 150 -94 279 -48 399 26 70 35 88 40 83 2 -2 15 -119 30
-260z m-924 185 c-5 -10 -33 -40 -61 -68 -44 -42 -51 -46 -45 -25 11 40 34 69
68 90 40 25 51 25 38 3z m5 -68 c-18 -33 -63 -65 -91 -65 -11 0 3 21 42 65 43
48 59 61 62 48 2 -9 -4 -31 -13 -48z m140 51 c8 -21 -14 -56 -35 -56 -29 0
-45 25 -31 49 12 24 58 29 66 7z m439 -16 c0 -8 -10 -16 -22 -18 -22 -3 -32
16 -16 32 12 11 38 2 38 -14z m95 -34 c33 -12 34 -15 32 -57 -2 -24 4 -66 12
-92 13 -45 13 -48 -2 -42 -9 4 -41 9 -70 12 -44 5 -57 12 -82 40 -50 57 -38
115 30 142 32 12 38 12 80 -3z m-270 -36 c0 -18 -25 -50 -39 -50 -15 0 -29 23
-24 39 14 40 63 48 63 11z m85 -115 l6 -50 -20 24 c-20 22 -28 71 -14 85 12
12 21 -8 28 -59z m-874 -15 c20 0 59 -45 59 -69 1 -9 7 -1 15 17 19 43 43 52
67 23 38 -48 10 -144 -47 -160 -74 -20 -114 32 -58 76 l28 23 -38 0 c-53 0
-97 43 -97 95 l0 36 26 -20 c15 -12 35 -21 45 -21z m953 1 c17 -19 17 -20 -13
-35 -16 -9 -32 -16 -34 -16 -4 0 25 68 29 70 0 0 9 -9 18 -19z m-673 -150 c56
-56 30 -149 -48 -170 -49 -14 -89 -3 -118 31 -31 37 -34 88 -5 88 13 0 20 -7
20 -18 0 -28 44 -64 81 -65 64 -3 74 80 14 119 -24 16 -28 16 -42 1 -15 -14
-15 -18 1 -42 10 -15 21 -23 24 -19 4 3 1 9 -5 11 -18 6 -16 43 1 43 25 0 46
-30 46 -65 0 -39 -17 -49 -60 -34 -55 20 -67 82 -25 124 34 35 78 33 116 -4z
m883 -66 c32 -9 77 -24 100 -34 l41 -19 -269 -1 c-243 -1 -267 1 -255 15 17
20 59 42 106 54 50 13 203 4 277 -15z m126 -143 c0 -15 -105 -71 -164 -88 -93
-26 -243 -2 -318 50 -21 15 -19 16 57 17 63 0 385 22 418 28 4 0 7 -3 7 -7z
m-4 -128 c-8 -50 -22 -176 -32 -282 -10 -106 -20 -192 -23 -192 -12 0 -55 74
-72 123 -43 123 -2 287 105 420 17 21 32 34 34 29 1 -5 -4 -49 -12 -98z m-361
30 c98 -26 223 -11 302 38 l32 19 -39 -58 c-21 -32 -51 -94 -65 -138 -35 -104
-32 -205 8 -286 14 -29 25 -55 23 -56 -9 -10 -108 94 -127 133 -27 57 -30 136
-6 183 21 43 21 44 -2 31 -25 -13 -102 -13 -138 1 -42 16 -93 68 -119 124 -35
74 -32 79 29 49 28 -15 75 -33 102 -40z m-749 -86 c35 -38 44 -64 44 -127 0
-33 4 -62 9 -66 5 -3 19 7 30 21 l21 27 0 -30 c0 -42 39 -112 82 -147 21 -16
40 -27 43 -24 4 3 -10 15 -29 27 -41 26 -71 71 -80 124 -10 52 -2 59 47 37 23
-11 58 -20 78 -20 l37 0 -15 -42 c-8 -24 -13 -62 -11 -85 3 -37 0 -43 -19 -48
-56 -14 -172 39 -217 98 -40 52 -55 99 -60 183 -2 44 -8 87 -12 98 -6 16 -4
17 12 8 10 -6 29 -21 40 -34z m685 -65 c-9 -11 -17 -20 -18 -19 -1 1 -6 21
-11 44 l-10 42 27 -23 c26 -21 27 -23 12 -44z m-37 -23 c2 -36 5 -73 5 -82 1
-28 38 -58 70 -58 l29 0 -16 -32 c-43 -87 -15 -202 60 -243 30 -17 35 -24 27
-38 -14 -24 -2 -57 26 -67 22 -8 45 -64 31 -77 -3 -4 -6 3 -6 14 0 46 -72 60
-78 15 -2 -13 1 -29 7 -35 7 -9 4 -16 -10 -25 -28 -18 -25 -60 6 -74 18 -8 28
-8 39 1 13 11 20 9 39 -6 31 -24 25 -50 -6 -28 -29 20 -47 19 -74 -7 -28 -26
-30 -64 -4 -80 18 -11 18 -12 -5 -31 -28 -21 -33 -72 -10 -102 12 -16 12 -22
-1 -42 -9 -14 -14 -37 -11 -59 3 -23 -2 -50 -14 -73 l-18 -35 0 64 c0 133 -48
261 -129 349 l-47 51 30 0 c17 0 41 3 54 6 21 6 20 8 -17 25 -49 22 -66 54
-75 144 -9 89 -36 146 -89 185 -42 31 -121 60 -164 60 -29 0 -29 8 3 56 52 78
101 95 198 69 67 -18 78 -15 41 9 -33 22 -32 36 3 36 30 0 102 44 102 62 0 6
-10 2 -22 -9 -47 -42 -98 -54 -139 -33 -30 16 -23 -2 13 -33 20 -17 25 -26 15
-23 -86 28 -151 13 -201 -45 -39 -46 -49 -40 -37 25 10 56 32 91 74 117 28 17
42 19 109 14 63 -5 83 -3 106 11 32 18 62 62 62 90 0 11 3 14 9 9 6 -6 12 -39
15 -75z m174 17 c46 2 45 7 26 -59 -7 -22 -37 -51 -78 -75 -78 -45 -136 33
-85 116 19 31 22 33 57 25 20 -5 56 -8 80 -7z m30 -140 l10 -37 -31 17 c-18
10 -34 19 -36 20 -2 1 7 11 20 22 13 11 25 19 25 18 1 -1 7 -19 12 -40z m-7
-44 c69 -59 84 -145 36 -223 l-21 -34 -9 31 c-8 25 -5 38 12 66 27 44 27 77 0
111 -27 34 -64 32 -92 -6 -26 -34 -17 -71 27 -112 37 -35 56 -86 32 -86 -26 0
-74 50 -92 95 -18 49 -14 106 12 156 19 37 52 38 95 2z m8 -59 c25 -32 26 -45
4 -87 l-16 -32 -12 45 c-26 102 -26 100 -11 100 8 0 24 -12 35 -26z m-44 -45
c16 -61 11 -74 -16 -40 -19 24 -24 56 -13 86 9 22 13 15 29 -46z m-416 -46
c94 -37 134 -98 146 -218 8 -80 17 -101 53 -132 26 -22 27 -23 5 -23 -72 0
-163 79 -163 142 0 33 -15 37 -24 6 -9 -33 -22 -7 -31 62 -9 76 -23 119 -52
158 l-25 33 29 -7 c15 -4 44 -13 62 -21z m-75 -13 c25 -30 46 -87 46 -125 0
-11 6 -44 14 -73 7 -29 13 -52 12 -52 -1 0 -33 7 -71 15 -39 8 -90 15 -114 15
l-43 0 30 28 c41 39 73 105 79 168 3 30 9 54 14 54 4 0 19 -14 33 -30z m545
-167 c1 -19 -26 -16 -33 3 -3 8 -1 25 6 37 l12 22 7 -25 c4 -14 7 -31 8 -37z
m29 24 c2 -15 -1 -27 -7 -27 -6 0 -11 3 -11 8 0 4 -3 18 -7 31 -4 18 -2 23 8
19 8 -2 15 -17 17 -31z m80 -85 c4 -28 -24 -41 -44 -20 -20 20 -7 50 20 46 13
-2 22 -12 24 -26z m-943 -2 l30 -8 -25 -8 c-14 -4 -53 -22 -87 -40 -59 -30
-63 -31 -63 -12 0 11 13 33 29 49 31 30 56 34 116 19z m833 -18 c4 -27 -22
-40 -43 -22 -8 7 -15 21 -15 32 0 30 54 21 58 -10z m-495 -12 c62 -19 101 -48
206 -150 113 -110 158 -238 148 -425 -15 -271 -137 -421 -396 -486 -187 -47
-436 5 -537 113 -51 53 -113 157 -131 217 -18 64 -13 219 11 307 19 72 98 220
148 278 128 149 349 207 551 146z m61 -9 c-8 -9 -22 12 -17 26 6 15 7 14 13
-3 4 -10 6 -21 4 -23z m526 -16 c0 8 5 15 10 15 7 0 7 -7 0 -21 -7 -11 -9 -27
-6 -36 6 -16 -10 -53 -23 -53 -8 0 -31 75 -31 101 0 7 9 6 25 -5 22 -14 25
-15 25 -1z m-56 -31 c4 -19 10 -42 13 -50 8 -22 -25 -17 -37 5 -11 22 -13 64
-3 74 13 14 21 6 27 -29z m132 10 c10 -41 -27 -57 -49 -22 -14 21 -2 48 22 48
14 0 23 -9 27 -26z m-198 -6 c16 -16 15 -45 0 -51 -20 -7 -48 12 -48 32 0 31
25 42 48 19z m158 -54 c-3 -9 -6 -29 -6 -46 l0 -31 -21 27 c-20 26 -20 28 -4
46 22 24 39 26 31 4z m94 -11 c23 -30 21 -65 -7 -95 -21 -24 -29 -23 -58 7
-29 28 -32 70 -8 97 23 25 48 22 73 -9z m-220 -43 c25 -25 25 -32 1 -61 -19
-23 -21 -23 -48 -9 -35 20 -40 43 -14 69 26 26 36 26 61 1z m60 -2 c0 -7 3
-24 7 -38 6 -22 5 -24 -10 -11 -18 15 -23 61 -7 61 6 0 10 -6 10 -12z m38 -17
c2 -13 -1 -28 -7 -34 -8 -8 -11 -7 -11 4 0 7 -3 25 -7 38 -4 18 -2 23 8 19 8
-2 16 -15 17 -27z m75 -78 c-3 -7 -15 -4 -37 10 -26 17 -32 26 -25 39 8 14 12
13 38 -10 15 -15 26 -32 24 -39z m-120 33 c17 -13 17 -16 2 -39 l-16 -25 -23
21 c-21 19 -22 22 -7 38 20 21 22 22 44 5z m219 -23 c47 -42 1 -131 -54 -102
-31 16 -38 28 -38 66 0 49 54 71 92 36z m-111 -51 c11 -32 10 -37 -11 -54 -13
-10 -25 -17 -27 -14 -8 7 -30 115 -26 120 13 13 54 -21 64 -52z m-66 -17 c11
-47 11 -55 -1 -55 -8 0 -21 15 -30 33 -12 25 -13 38 -4 61 13 36 19 30 35 -39z
m-83 38 c35 -31 18 -94 -29 -108 -29 -8 -73 33 -73 69 0 50 63 75 102 39z m67
-117 c-16 -17 -10 -46 17 -73 14 -14 22 -28 17 -32 -5 -3 -16 -16 -24 -27 -14
-21 -15 -22 -37 -3 -19 15 -21 22 -13 38 14 25 14 67 1 91 -6 11 -8 31 -4 44
l6 25 23 -27 c15 -17 20 -31 14 -36z m169 -12 c0 -41 17 -71 43 -79 16 -5 19
-12 15 -31 -10 -38 13 -105 45 -135 17 -16 25 -30 19 -34 -21 -13 -11 -82 16
-114 24 -29 25 -34 14 -61 l-12 -30 -20 25 c-11 14 -37 34 -59 45 -36 19 -38
22 -28 47 11 29 -5 83 -24 83 -5 0 -3 8 6 18 23 26 22 97 -3 136 -20 33 -46
50 -92 60 -22 5 -27 13 -33 47 -8 45 -4 54 21 45 13 -5 15 -15 11 -46 -6 -45
-1 -52 12 -17 6 14 4 33 -4 53 -18 43 -4 56 39 35 28 -13 34 -22 34 -47z m102
46 c48 -26 48 -80 0 -105 -38 -20 -46 -19 -70 5 -53 53 5 135 70 100z m-322
-43 c15 -10 16 -69 0 -85 -18 -18 -105 -15 -112 4 -10 26 -7 57 8 73 15 17 82
22 104 8z m86 5 c2 -4 7 -24 11 -45 6 -32 5 -36 -10 -31 -20 8 -37 48 -29 69
7 16 20 20 28 7z m323 -87 c30 -21 48 -82 34 -117 -13 -34 -74 -63 -102 -48
-45 25 -65 125 -32 162 20 22 71 24 100 3z m-219 -21 c30 -21 52 -66 52 -108
0 -26 -7 -40 -31 -61 -18 -14 -35 -22 -39 -18 -6 6 -50 182 -50 199 0 10 48 2
68 -12z m-58 -90 c12 -52 19 -98 16 -101 -7 -8 -48 4 -70 20 -35 25 -15 177
23 177 5 0 19 -43 31 -96z m-132 66 c84 -52 47 -170 -53 -170 -16 0 -38 12
-56 29 -24 24 -29 38 -29 77 0 30 6 54 17 66 22 24 79 23 121 -2z m-128 -145
c9 -11 5 -17 -20 -30 -30 -16 -32 -16 -27 2 3 10 9 36 12 58 8 40 8 40 16 12
4 -16 13 -34 19 -42z m616 10 c31 -21 47 -66 35 -97 -7 -20 -17 -25 -46 -26
-21 -1 -47 -8 -59 -15 -27 -18 -43 -12 -61 23 -22 42 -18 78 10 105 28 29 88
34 121 10z m-377 -45 c5 0 6 -11 4 -24 -3 -13 2 -37 11 -54 15 -30 15 -32 -9
-58 -50 -53 -45 -141 11 -200 19 -21 33 -38 32 -38 -121 -61 -257 -241 -289
-384 l-12 -52 -32 34 c-56 61 -114 56 -150 -14 -37 -72 -68 2 -39 93 14 46 20
53 38 50 29 -6 50 20 42 52 -8 32 -39 49 -66 35 -17 -9 -20 -21 -20 -75 0 -57
-3 -68 -30 -98 -16 -19 -62 -51 -102 -72 -77 -41 -142 -85 -134 -92 2 -3 -4
-24 -13 -46 -36 -85 -51 -227 -30 -301 8 -31 8 -41 -3 -47 -9 -6 -16 1 -24 29
-22 76 -25 92 -13 90 6 -2 14 3 16 10 3 6 -2 12 -11 12 -9 0 -18 10 -20 23 -3
12 -7 34 -10 49 -9 39 9 77 62 131 25 26 42 47 37 47 -5 0 -37 -28 -72 -62
l-62 -61 23 64 c24 66 44 150 70 297 22 124 60 168 141 164 50 -2 70 16 61 53
-4 15 -16 27 -31 31 -38 9 -55 -2 -55 -35 0 -25 -7 -33 -35 -47 -38 -17 -68
-53 -80 -94 -12 -40 -25 -50 -68 -50 -30 0 -51 8 -83 33 -48 35 -59 64 -21 52
66 -21 86 -18 122 18 25 25 35 44 35 67 0 35 -15 70 -31 70 -6 0 -3 -10 5 -22
21 -30 20 -56 -4 -95 -24 -41 -61 -51 -106 -29 -59 28 -69 91 -23 137 16 16
32 20 72 18 61 -2 180 15 256 37 134 39 246 121 297 219 l28 54 13 -31 c12
-28 10 -36 -13 -84 -31 -63 -28 -113 9 -178 31 -55 69 -81 117 -80 47 2 79 21
117 71 37 48 40 126 6 171 -21 29 -22 32 -6 62 19 38 12 93 -16 131 -19 26
-19 26 1 47 l21 21 29 -25 c16 -13 33 -24 37 -24z m-152 0 c37 0 68 -28 76
-70 6 -29 -9 -100 -21 -100 -4 0 -32 9 -62 21 -34 13 -65 18 -85 15 -27 -5
-33 -3 -43 19 -16 35 -15 56 4 83 19 28 52 43 79 37 11 -3 34 -5 52 -5z m282
-12 c10 -28 4 -52 -20 -74 -23 -21 -28 -17 -40 37 -8 32 -7 44 3 50 24 15 49
9 57 -13z m-72 -38 c9 -45 8 -51 -6 -48 -21 4 -44 53 -36 78 12 36 32 22 42
-30z m374 -55 c69 -36 91 -131 42 -185 -28 -29 -29 -30 -107 -23 l-78 6 -15
36 c-49 116 51 221 158 166z m-253 -25 c49 -35 62 -57 62 -104 0 -54 -16 -86
-43 -86 -20 0 -29 14 -66 100 -23 55 -39 105 -36 110 11 18 41 11 83 -20z
m-81 -100 c22 -98 22 -106 6 -117 -28 -21 -49 -15 -81 22 -33 36 -48 89 -38
128 9 39 46 78 69 75 17 -3 24 -20 44 -108z m-226 54 c50 -29 74 -69 73 -119
-2 -80 -64 -145 -140 -145 -77 0 -147 118 -122 208 24 89 97 110 189 56z m289
-144 c0 -4 -6 -10 -14 -13 -13 -5 -18 12 -42 123 -3 14 9 -4 26 -39 16 -35 30
-67 30 -71z m102 12 c-19 -5 -22 0 -15 26 l6 23 11 -23 c10 -18 9 -24 -2 -26z
m197 -37 c232 -74 350 -249 354 -530 2 -105 -16 -180 -68 -285 -15 -30 -21
-56 -18 -77 3 -20 1 -33 -5 -33 -16 0 -24 18 -12 25 5 3 10 11 10 17 0 6 -27
-18 -59 -53 -54 -59 -73 -90 -36 -59 12 10 15 10 15 -5 0 -13 -6 -16 -26 -12
-19 3 -41 -4 -73 -24 -75 -48 -159 -69 -275 -69 -171 0 -267 38 -360 141 -98
109 -156 251 -156 382 0 402 355 693 709 582z m-1073 -89 c15 -12 17 -18 8
-33 -15 -24 -58 -24 -62 0 -9 44 18 59 54 33z m-390 -81 c17 -26 6 -43 -34
-51 -27 -6 -33 -3 -43 20 -9 20 -9 29 1 41 17 21 59 15 76 -10z m594 -76 c13
-23 -2 -49 -26 -49 -16 0 -37 46 -28 61 10 16 43 9 54 -12z m-556 -16 c41 -35
92 -55 119 -48 22 6 22 6 -1 -14 -29 -25 -95 -44 -125 -36 -56 16 -76 29 -87
55 -27 65 35 93 94 43z m-123 -33 c23 -13 25 -46 3 -54 -18 -7 -54 -8 -54 -2
0 2 -3 11 -6 19 -3 8 2 22 11 31 19 19 21 19 46 6z m272 -61 c-12 -43 -54 -74
-102 -74 -28 0 -53 11 -94 39 -31 21 -54 43 -51 47 3 5 15 2 27 -5 39 -25 92
-29 146 -11 27 9 55 23 62 31 17 21 21 11 12 -27z m-203 -45 c63 -43 103 -51
153 -30 43 18 48 5 11 -29 -31 -29 -112 -49 -160 -40 -91 17 -130 58 -105 111
15 33 40 30 101 -12z m723 -35 c47 -50 28 -145 -33 -164 -29 -9 -79 22 -97 59
-20 43 -11 79 27 118 35 35 61 32 103 -13z m-172 -100 c26 -72 23 -144 -6
-144 -48 0 -73 136 -44 235 l13 44 8 -40 c5 -21 17 -64 29 -95z m-71 55 c-6
-27 -8 -69 -5 -94 5 -35 4 -42 -5 -33 -7 6 -15 44 -18 83 -4 61 -2 73 14 85
10 7 20 12 22 11 1 -2 -2 -25 -8 -52z m-590 16 c19 -19 18 -40 -3 -67 -24 -32
-87 2 -87 47 0 41 56 54 90 20z m280 -55 c-16 -48 -44 -65 -107 -65 -49 0
-138 23 -156 39 -4 5 -3 19 3 33 12 25 13 25 53 11 52 -19 136 -12 180 15 37
22 43 15 27 -33z m291 -142 c16 -88 5 -148 -26 -148 -60 0 -83 203 -35 300
l24 50 12 -65 c6 -36 17 -97 25 -137z m-85 123 c-9 -26 -16 -71 -16 -101 0
-44 -3 -55 -16 -55 -9 0 -14 -6 -11 -12 2 -7 10 -12 18 -11 8 2 19 -11 25 -30
6 -17 14 -39 18 -47 4 -10 -1 -19 -16 -25 -12 -6 -24 -17 -26 -25 -4 -11 1
-10 17 5 17 15 26 17 39 9 35 -22 22 -84 -18 -84 -27 0 -37 19 -55 105 -37
177 -30 264 22 305 14 11 28 18 30 16 3 -2 -3 -25 -11 -50z m194 31 c0 -12 7
-32 15 -44 8 -12 11 -24 6 -27 -5 -3 -16 12 -25 34 -19 47 -20 60 -6 60 6 0
10 -10 10 -23z m-268 -94 c-2 -32 5 -118 17 -191 22 -144 18 -182 -19 -182
-50 0 -80 119 -61 243 10 69 51 187 64 187 2 0 1 -26 -1 -57z m-337 21 c76
-24 111 -26 163 -7 31 12 -20 -37 -63 -60 -75 -40 -207 -24 -241 28 -12 18
-11 24 2 43 19 28 41 28 139 -4z m678 -23 c30 -16 32 -23 17 -52 -12 -21 -40
-25 -58 -7 -20 20 -13 86 7 75 3 -1 18 -9 34 -16z m-828 -32 c8 -25 -1 -36
-35 -41 -17 -2 -26 2 -28 15 -8 41 51 66 63 26z m299 -20 c-16 -17 -41 -37
-55 -45 -24 -12 -27 -12 -32 6 -3 12 0 20 7 20 7 0 32 13 56 29 25 15 47 26
49 24 3 -2 -9 -17 -25 -34z m384 -40 c-9 -6 -15 1 -20 24 -9 45 2 56 19 17 11
-27 11 -35 1 -41z m-623 26 c22 -8 58 -14 80 -15 33 0 41 -4 42 -20 2 -17 -4
-20 -36 -20 -35 0 -141 26 -141 35 0 5 12 35 14 35 0 0 19 -7 41 -15z m893
-251 c23 -50 42 -102 41 -115 0 -14 -3 -18 -6 -9 -2 8 -25 56 -49 105 -49 98
-62 164 -48 242 8 47 8 46 14 -42 5 -78 11 -102 48 -181z m-673 216 c-16 -17
-30 -37 -31 -44 -4 -26 -74 -111 -107 -128 -39 -22 -106 -23 -154 -3 -30 13
-33 17 -23 30 7 8 10 26 8 40 -5 22 -3 25 16 18 11 -5 55 -8 96 -8 58 1 85 6
118 24 24 12 42 25 39 27 -3 3 -23 -4 -45 -15 -81 -41 -195 -39 -238 4 -28 28
-29 38 -9 59 14 13 20 13 63 -6 35 -16 68 -22 128 -22 72 -1 85 2 120 26 51
35 54 34 19 -2z m459 -16 c8 -20 -11 -64 -27 -64 -35 0 -51 61 -20 78 20 12
39 6 47 -14z m1476 -4 c16 -12 34 -30 40 -40 9 -17 8 -18 -29 -3 -87 34 -182
-11 -195 -94 -9 -53 11 -95 58 -117 63 -30 119 -19 189 36 39 31 39 31 32 7
-24 -81 -82 -129 -156 -129 -62 0 -89 11 -139 56 -61 56 -74 86 -60 142 34
138 165 209 260 142z m-1910 1 c-25 -48 -34 -243 -13 -314 4 -15 0 -18 -24
-15 l-28 3 -9 102 c-10 121 -7 135 40 196 38 49 52 60 34 28z m59 -141 c26
-131 27 -171 2 -201 -25 -31 -51 -17 -64 32 -13 49 -3 268 14 303 l14 29 7
-29 c3 -16 16 -76 27 -134z m-401 43 c3 -23 -30 -49 -48 -38 -12 7 -13 48 -3
59 15 14 48 1 51 -21z m261 -226 c1 -54 -2 -69 -16 -74 -10 -4 -23 2 -35 16
-32 40 -19 194 20 246 17 23 17 22 23 -49 4 -39 7 -102 8 -139z m-225 152 c37
-12 69 -18 87 -14 40 9 36 -2 -6 -19 -90 -38 -167 -26 -173 27 -4 34 11 35 92
6z m156 -19 c0 -5 -8 -23 -18 -40 -14 -23 -21 -27 -30 -18 -18 18 -15 28 9 28
11 0 17 5 14 10 -7 12 2 30 16 30 5 0 9 -4 9 -10z m1750 -56 c0 -7 -10 -9 -25
-6 -25 4 -25 5 -9 23 14 15 19 17 26 7 4 -7 8 -18 8 -24z m-1449 -7 c22 -18
25 -26 18 -45 -19 -50 -79 -34 -79 22 0 52 18 59 61 23z m455 -13 c14 -10 31
-29 39 -44 13 -24 13 -30 0 -40 -8 -7 -15 -22 -15 -34 0 -16 -9 -25 -33 -34
-59 -21 -92 -15 -125 22 -57 65 -54 85 23 125 48 25 77 26 111 5z m-951 -4
c10 -16 -14 -50 -36 -50 -22 0 -34 22 -25 45 6 17 51 21 61 5z m133 -35 c-7
-55 -20 -72 -78 -97 -25 -11 -53 -27 -63 -35 -16 -15 -17 -14 -11 18 15 82 26
109 52 127 34 24 50 30 81 31 22 1 23 -2 19 -44z m1801 -21 c72 -38 102 -108
81 -185 -14 -51 -65 -109 -96 -109 -23 0 -23 0 -8 37 33 78 14 162 -42 183
-93 36 -188 -36 -188 -142 0 -41 5 -53 35 -84 32 -34 33 -36 9 -29 -67 19 -99
78 -86 158 12 76 40 112 118 155 86 48 114 51 177 16z m-720 -89 l23 -59 -26
-23 c-49 -42 -107 -30 -137 28 -11 22 -24 39 -30 39 -5 0 -3 -10 5 -22 9 -12
16 -40 16 -62 0 -36 -6 -45 -67 -102 l-67 -62 -18 56 c-10 32 -18 71 -18 87 0
62 69 131 119 118 26 -7 51 12 51 39 0 29 56 50 95 34 23 -10 35 -26 54 -71z
m-884 64 c13 -19 -4 -59 -25 -59 -16 0 -20 7 -20 35 0 28 4 35 19 35 11 0 23
-5 26 -11z m720 -23 c0 -30 -31 -44 -51 -24 -24 24 -11 50 23 46 20 -2 28 -9
28 -22z m-888 -11 c2 -6 -3 -19 -11 -30 -12 -16 -16 -17 -30 -6 -12 10 -13 18
-5 33 11 20 40 21 46 3z m1485 -32 c-11 -21 -31 -74 -46 -119 -15 -45 -34 -90
-42 -100 -15 -18 -15 -18 -10 -1 11 34 44 171 50 209 4 23 13 38 24 41 40 11
43 8 24 -30z m795 12 c3 -9 3 -18 1 -21 -9 -9 -38 8 -38 22 0 19 29 18 37 -1z
m-377 -83 c16 -51 4 -102 -35 -147 l-26 -30 6 50 c3 28 10 72 16 98 6 27 8 63
5 80 -6 30 -5 31 8 12 7 -11 19 -39 26 -63z m-1152 41 c-33 -69 -50 -82 -74
-62 -17 14 -18 41 -2 57 13 13 82 17 76 5z m1308 -13 c16 0 39 -7 50 -15 16
-13 17 -16 4 -26 -11 -8 -12 -12 -2 -16 17 -7 15 -33 -3 -33 -13 0 -13 -3 -3
-20 16 -25 1 -41 -17 -17 -12 16 -13 16 -18 -3 -6 -23 -27 -27 -27 -5 0 17
-17 20 -22 4 -2 -5 -11 -7 -20 -4 -17 7 -22 26 -31 111 l-5 42 32 -9 c17 -5
45 -9 62 -9z m-1109 -68 c25 -19 22 -56 -5 -67 -23 -9 -40 18 -34 55 5 35 9
36 39 12z m424 -227 c2 -28 7 -62 13 -77 10 -27 -4 -58 -26 -58 -12 0 -38 63
-38 91 0 18 4 20 26 15 17 -5 23 -3 19 4 -3 5 -12 10 -19 10 -7 0 -21 9 -31
20 -10 11 -13 20 -7 20 7 0 12 -6 12 -12 0 -7 10 0 22 15 11 15 22 27 24 25 1
-2 4 -26 5 -53z m589 39 c0 -9 -7 -14 -17 -12 -25 5 -28 28 -4 28 12 0 21 -6
21 -16z m-682 -6 c19 -19 14 -56 -7 -63 -29 -9 -71 15 -71 40 0 12 3 25 7 28
11 11 58 8 71 -5z m-54 -74 c22 -8 20 -31 -3 -44 -28 -14 -57 -12 -71 5 -25
30 26 57 74 39z m629 -196 c-34 -70 -2 -226 57 -283 17 -16 30 -37 30 -48 0
-17 -5 -19 -40 -14 -39 5 -39 5 -25 -16 32 -45 2 -85 -38 -50 -19 18 -19 17
-12 -15 5 -23 2 -40 -9 -57 -20 -30 -37 -32 -61 -5 -14 16 -17 30 -12 72 6 48
6 50 -9 30 -8 -12 -20 -22 -25 -22 -19 0 -21 31 -4 50 17 19 16 19 -19 13 -56
-9 -47 23 23 85 54 47 61 58 71 109 7 31 10 80 6 108 -4 38 -1 66 14 108 11
31 20 64 21 74 0 10 10 -11 23 -47 19 -56 20 -69 9 -92z m-673 117 c0 -2 -9
-9 -19 -15 -21 -11 -54 -3 -45 11 5 9 64 13 64 4z m-61 -51 c-15 -18 -39 -18
-39 0 0 16 19 25 38 18 9 -3 10 -8 1 -18z m37 -49 c-7 -18 -26 -20 -26 -2 0
18 24 41 28 27 2 -6 1 -17 -2 -25z m-36 17 c0 -20 -70 -47 -185 -69 -38 -7
-23 9 25 27 19 8 46 22 59 32 23 18 101 26 101 10z m845 -76 c13 -13 28 -40
34 -61 5 -21 20 -48 32 -61 l22 -24 -39 0 c-87 0 -158 87 -124 151 14 26 46
24 75 -5z m-241 -33 c-1 -66 -58 -113 -136 -113 l-33 0 32 25 c20 16 38 44 48
74 17 53 26 61 65 58 23 -2 25 -6 24 -44z m-88 -190 c-11 -11 -19 6 -11 24 8
17 8 17 12 0 3 -10 2 -21 -1 -24z m354 18 c0 -11 -3 -22 -7 -24 -5 -3 -8 6 -8
19 0 13 3 24 8 24 4 0 7 -9 7 -19z"/>
<path d="M1240 5540 c-10 -7 0 -8 32 -4 61 8 90 0 133 -37 19 -17 35 -26 35
-20 0 6 -19 24 -42 41 -33 24 -51 30 -92 30 -28 0 -58 -5 -66 -10z"/>
<path d="M997 4756 c-6 -15 1 -26 15 -26 4 0 8 9 8 20 0 23 -15 27 -23 6z"/>
<path d="M1146 4723 c-11 -11 -6 -23 9 -23 8 0 15 4 15 9 0 13 -16 22 -24 14z"/>
<path d="M1415 4610 c-4 -7 -3 -16 3 -22 14 -14 47 -6 47 12 0 18 -40 26 -50
10z m40 -10 c3 -5 -3 -10 -15 -10 -12 0 -18 5 -15 10 3 6 10 10 15 10 5 0 12
-4 15 -10z"/>
<path d="M506 4404 c-8 -21 11 -45 30 -37 20 7 14 47 -7 51 -9 2 -19 -5 -23
-14z m34 -15 c0 -5 -4 -9 -10 -9 -5 0 -10 7 -10 16 0 8 5 12 10 9 6 -3 10 -10
10 -16z"/>
<path d="M1328 3848 c-9 -23 3 -38 29 -38 20 0 24 4 21 23 -3 25 -42 37 -50
15z m42 -13 c0 -8 -7 -15 -15 -15 -8 0 -15 7 -15 15 0 8 7 15 15 15 8 0 15 -7
15 -15z"/>
<path d="M694 3231 c-141 -51 -254 -132 -294 -212 -31 -60 -60 -178 -66 -269
-11 -149 29 -254 136 -362 46 -45 69 -60 121 -76 198 -61 371 -28 527 98 105
86 138 179 130 372 -4 111 -5 117 -47 200 -85 170 -147 225 -283 252 -100 21
-161 20 -224 -3z m213 -7 c74 -15 145 -44 157 -63 3 -4 -19 -11 -49 -15 -76
-9 -154 -40 -201 -80 l-40 -34 -22 96 c-17 75 -19 98 -9 104 19 12 81 9 164
-8z m-168 -91 c11 -48 19 -88 17 -90 -2 -2 -25 7 -52 19 -40 18 -67 23 -147
23 l-98 0 28 23 c31 26 199 112 219 112 7 0 21 -36 33 -87z m364 -48 c26 -67
28 -188 5 -231 -15 -27 -26 -33 -90 -47 -40 -8 -74 -14 -76 -13 -4 5 49 135
97 239 l40 88 -37 -31 c-141 -117 -235 -189 -242 -185 -4 2 -10 28 -14 56 -7
48 -5 54 21 81 51 54 166 99 243 95 32 -2 36 -6 53 -52z m82 -99 c58 -112 57
-126 -15 -142 -30 -7 -56 -13 -56 -14 -1 0 4 17 12 38 17 48 17 115 0 181 -18
71 -2 53 59 -63z m-485 67 c25 -11 50 -26 56 -34 17 -20 29 -119 15 -119 -14
0 -186 86 -259 129 -29 17 -52 29 -52 27 0 -2 27 -49 59 -104 33 -55 74 -128
90 -161 l31 -61 -22 -5 c-13 -3 -36 -7 -53 -9 -16 -3 -68 -12 -115 -20 -47 -9
-91 -16 -99 -16 -28 0 13 244 54 319 14 25 14 25 15 -26 0 -29 9 -76 20 -105
20 -54 87 -154 96 -145 3 3 -10 26 -29 51 -81 106 -105 281 -40 300 41 12 189
-1 233 -21z m320 -34 c-12 -23 -39 -85 -61 -138 l-38 -96 -54 -11 -55 -11 -5
61 c-4 42 -2 63 6 68 7 3 59 45 117 91 58 47 106 83 108 82 2 -2 -6 -22 -18
-46z m-224 -198 c8 -62 4 -66 -67 -75 -27 -4 -55 -9 -62 -12 -8 -3 -20 11 -31
33 -10 21 -45 84 -77 140 -32 57 -59 105 -59 108 0 2 65 -28 145 -68 l144 -72
7 -54z m443 -73 c-1 -87 -25 -230 -28 -166 -2 42 -46 154 -76 194 -15 19 -25
37 -23 39 6 6 79 23 106 24 21 1 22 -2 21 -91z m-116 25 c74 -107 94 -228 48
-292 -62 -87 -198 -93 -291 -14 -22 19 -40 30 -40 25 0 -17 57 -59 104 -77 28
-11 63 -16 96 -14 l51 4 -23 -19 c-32 -26 -136 -74 -179 -81 l-36 -7 -12 96
c-7 53 -9 100 -6 106 4 6 2 16 -3 23 -5 7 -12 40 -15 74 l-7 62 82 -51 c45
-28 113 -70 150 -94 38 -24 71 -44 74 -44 7 0 -41 84 -118 209 -33 51 -58 95
-56 96 5 4 123 33 139 34 9 1 28 -16 42 -36z m-137 -100 c34 -54 72 -116 85
-138 l24 -40 -29 18 c-15 11 -79 50 -142 89 -114 70 -114 70 -114 109 0 34 3
39 28 45 15 3 32 7 37 9 39 13 51 3 111 -92z m-268 -86 c-46 -51 -98 -110
-117 -132 -18 -22 -30 -31 -27 -20 22 62 76 248 76 261 0 17 15 24 89 39 l56
11 3 -34 c3 -29 -6 -43 -80 -125z m-99 36 c-12 -43 -35 -116 -51 -162 -16 -45
-27 -85 -25 -87 2 -3 24 19 48 48 24 29 79 93 124 142 80 89 80 89 86 60 13
-60 9 -119 -11 -151 -28 -46 -93 -90 -167 -113 -81 -25 -97 -17 -118 52 -31
105 -12 223 43 272 23 20 85 37 90 25 2 -5 -7 -43 -19 -86z m-110 25 c-37 -70
-44 -119 -26 -198 9 -36 14 -66 12 -68 -1 -2 -22 19 -45 45 -50 56 -91 139
-98 198 l-4 42 93 15 c52 9 95 16 96 17 1 0 -12 -23 -28 -51z m330 -330 c1
-16 -9 -18 -79 -18 -81 0 -180 16 -180 29 0 4 22 13 48 20 61 15 145 71 169
111 l18 31 12 -78 c6 -43 12 -86 12 -95z"/>
<path d="M1690 3001 c0 -15 6 -21 21 -21 25 0 22 33 -4 38 -12 2 -17 -3 -17
-17z m25 -1 c3 -5 1 -10 -4 -10 -6 0 -11 5 -11 10 0 6 2 10 4 10 3 0 8 -4 11
-10z"/>
<path d="M1430 2996 c-10 -13 -10 -19 0 -32 12 -14 15 -14 29 0 14 15 14 17 0
32 -14 14 -17 14 -29 0z m30 -10 c0 -3 -4 -8 -10 -11 -5 -3 -10 -1 -10 4 0 6
5 11 10 11 6 0 10 -2 10 -4z"/>
<path d="M1850 2745 c-12 -15 -5 -55 10 -55 14 0 32 40 26 56 -7 18 -20 18
-36 -1z m24 -20 c-4 -8 -8 -15 -10 -15 -2 0 -4 7 -4 15 0 8 4 15 10 15 5 0 7
-7 4 -15z"/>
<path d="M1430 2705 c-10 -12 -10 -18 0 -30 21 -25 42 -18 38 12 -4 32 -20 40
-38 18z m30 -20 c0 -8 -4 -15 -10 -15 -5 0 -10 7 -10 15 0 8 5 15 10 15 6 0
10 -7 10 -15z"/>
<path d="M710 1980 c0 -11 4 -20 9 -20 13 0 32 26 24 33 -13 14 -33 6 -33 -13z"/>
<path d="M1985 2414 c-8 -9 -15 -22 -15 -29 0 -20 28 -45 45 -39 29 12 29 66
0 78 -8 3 -21 -2 -30 -10z m38 -16 c6 -19 -3 -38 -19 -38 -8 0 -14 10 -14 25
0 26 25 35 33 13z"/>
<path d="M1410 2325 c-17 -21 -4 -65 19 -65 22 0 34 36 20 62 -12 22 -23 23
-39 3z m30 -30 c0 -14 -4 -25 -9 -25 -12 0 -23 29 -15 41 10 18 24 9 24 -16z"/>
<path d="M1744 2202 c-106 -37 -266 -178 -306 -272 -31 -72 -58 -188 -58 -252
0 -105 79 -293 162 -383 88 -96 254 -157 383 -140 78 11 175 35 208 51 87 45
173 156 222 285 47 123 58 207 38 296 -49 217 -204 379 -401 422 -77 16 -189
13 -248 -7z m108 -63 c-6 -122 24 -199 77 -199 34 0 108 80 145 158 19 40 33
59 42 55 8 -3 14 -9 14 -14 0 -5 -40 -69 -89 -142 l-88 -132 -57 0 c-56 0 -57
0 -66 35 -15 57 -60 268 -60 284 0 15 18 23 60 25 25 1 25 0 22 -70z m146 56
c99 -23 102 -25 73 -80 -18 -34 -28 -44 -40 -39 -9 3 -20 7 -26 8 -5 1 -17 6
-25 11 -21 13 -68 16 -75 5 -3 -5 -13 -6 -23 -3 -15 5 -15 4 1 -13 18 -19 18
-19 29 0 10 18 12 18 23 2 8 -11 15 -13 20 -7 9 15 25 14 25 -3 0 -9 8 -12 25
-8 39 7 32 -22 -18 -75 -37 -39 -48 -45 -70 -39 -22 5 -29 16 -41 59 -15 56
-21 146 -11 177 8 25 41 26 133 5z m-238 -22 c0 -10 15 -84 33 -164 l33 -147
-32 -35 -32 -35 -136 94 c-75 52 -136 99 -136 103 0 4 9 16 20 26 19 17 21 16
69 -24 52 -44 88 -48 75 -8 -5 17 -3 19 19 15 20 -4 23 -1 19 15 -4 17 -1 19
16 15 17 -5 21 -2 19 16 -3 30 25 27 34 -4 18 -64 5 -140 -24 -140 -7 0 -30
12 -50 26 -21 14 -41 24 -44 21 -8 -9 71 -57 94 -57 34 0 46 34 40 111 -5 60
-50 180 -63 167 -2 -2 5 -22 16 -44 17 -32 18 -40 6 -44 -7 -3 -26 -20 -42
-37 -16 -18 -34 -33 -41 -33 -7 0 -13 -9 -13 -20 0 -29 -12 -25 -60 18 l-43
38 49 43 c51 45 140 101 162 101 6 0 12 -8 12 -17z m418 -61 l22 -17 -26 -35
c-56 -76 -86 -152 -73 -188 7 -19 15 -22 70 -22 33 0 88 7 121 16 54 14 81 13
66 -1 -3 -3 -79 -27 -169 -52 -153 -43 -164 -45 -173 -28 -6 10 -21 30 -33 45
l-22 26 91 137 c50 75 94 137 97 137 3 0 16 -8 29 -18z m81 -79 c22 -26 52
-69 66 -94 l25 -47 -44 -11 c-55 -14 -69 -14 -61 -1 3 5 1 17 -4 27 -5 10 -17
35 -26 56 -9 21 -23 41 -31 44 -8 3 -14 10 -14 17 0 15 29 56 40 56 5 0 27
-21 49 -47z m-69 -46 c0 -6 -8 -19 -17 -29 -16 -18 -16 -18 0 -12 26 9 52 -3
39 -19 -8 -9 -6 -16 9 -25 17 -11 18 -16 8 -28 -9 -11 -27 -14 -63 -12 -47 3
-51 5 -54 29 -2 15 6 47 18 72 17 35 25 44 41 40 10 -3 19 -10 19 -16z m-568
-113 c99 -68 138 -100 134 -111 -3 -8 -6 -29 -6 -47 l0 -32 -171 -53 c-94 -29
-172 -51 -173 -49 -2 1 -6 19 -10 39 l-6 36 67 5 c107 8 213 64 213 112 0 57
-61 110 -162 142 -50 15 -56 20 -47 36 5 10 12 18 15 18 3 0 69 -43 146 -96z
m-104 26 c44 -14 45 -22 12 -95 -25 -55 -31 -85 -20 -106 11 -20 -11 -29 -77
-29 -50 0 -51 4 -29 111 19 90 42 143 60 136 8 -3 32 -11 54 -17z m116 -71
c41 -49 33 -76 -35 -113 -48 -26 -59 -28 -72 -18 -21 17 -11 42 17 43 20 0 20
1 -2 10 -29 11 -20 29 16 30 27 0 27 0 5 11 -31 15 -29 28 4 28 25 0 26 1 8
14 -11 8 -16 19 -12 30 9 22 34 9 71 -35z m290 25 c12 -5 13 -10 6 -25 -8 -14
-17 -17 -43 -12 -54 10 -60 43 -7 43 15 0 35 -3 44 -6z m446 -13 c0 -5 3 -21
6 -37 l5 -29 -57 -3 c-119 -6 -188 -64 -163 -139 15 -46 70 -107 126 -140 43
-25 50 -37 34 -62 -7 -11 -40 10 -147 90 -77 57 -150 111 -164 120 -21 14 -23
18 -11 33 7 9 16 30 20 48 7 32 7 32 171 79 185 53 180 52 180 40z m-535 -12
c4 -6 -3 -21 -16 -35 -29 -31 -47 -16 -24 20 19 28 30 32 40 15z m159 -32 c13
-29 13 -33 -1 -41 -12 -6 -20 -3 -29 10 -7 10 -17 24 -22 30 -13 15 5 45 22
38 8 -3 21 -20 30 -37z m-97 5 c9 -6 8 -15 -6 -36 -15 -23 -19 -25 -25 -11
-16 43 -1 67 31 47z m-45 -37 c5 -22 2 -25 -16 -20 -19 6 -20 5 -3 -8 22 -18
22 -23 -4 -30 -18 -5 -20 -1 -18 26 5 55 33 77 41 32z m98 5 c8 -15 8 -21 -2
-25 -7 -2 -25 -9 -41 -15 -26 -9 -27 -9 -16 13 27 52 42 59 59 27z m-158 -45
c2 -21 -2 -30 -14 -33 -13 -3 -18 3 -18 21 0 61 26 70 32 12z m598 -29 c0 -58
-27 -171 -49 -204 -7 -11 -17 -9 -50 12 -23 15 -39 30 -37 35 26 41 57 169 44
177 -4 3 -8 14 -8 25 0 16 7 19 50 19 l50 0 0 -64z m-380 39 c0 -25 -23 -65
-37 -65 -11 0 -13 8 -8 33 9 41 45 67 45 32z m270 6 c0 -5 -6 -12 -12 -14 -8
-3 -6 -6 4 -6 13 -1 17 -9 15 -31 -1 -16 -5 -30 -9 -30 -4 0 -5 -13 -1 -30 5
-25 2 -30 -14 -30 -16 0 -19 -5 -15 -25 7 -38 -21 -31 -52 13 -37 54 -35 102
5 136 30 25 79 36 79 17z m-320 -15 c0 -33 -29 -46 -49 -22 -10 11 -8 15 6 19
25 7 43 8 43 3z m-86 -50 c6 -25 3 -28 -17 -20 -9 3 -13 12 -10 20 4 10 0 12
-10 8 -9 -3 -17 -15 -19 -27 -4 -29 -34 -34 -43 -7 -8 25 -6 28 23 33 12 2 24
6 28 9 13 13 43 3 48 -16z m42 10 c18 -14 18 -15 0 -22 -11 -4 -21 -2 -27 7
-19 31 -5 38 27 15z m-148 -46 c12 -16 22 -31 22 -33 0 -3 -154 -279 -188
-336 -6 -11 -13 -9 -36 11 l-28 24 69 69 c104 105 121 180 46 212 -42 17 -84
13 -174 -18 -33 -12 -63 -18 -66 -15 -4 3 -4 8 -2 10 4 3 316 103 330 105 3 1
15 -12 27 -29z m187 20 c3 -5 -8 -16 -25 -25 -24 -13 -30 -13 -30 -2 0 11 21
27 47 36 1 1 4 -3 8 -9z m-90 -20 c33 -12 24 -30 -16 -30 -27 0 -39 17 -22 33
8 9 7 9 38 -3z m294 -123 c74 -56 136 -106 138 -112 1 -5 -1 -16 -6 -24 -7
-11 -19 -6 -56 27 -101 89 -165 118 -203 93 -38 -24 -31 -157 13 -257 l24 -55
-27 3 c-26 3 -28 8 -79 193 -28 105 -52 197 -52 207 -1 9 14 25 32 36 40 24
35 26 216 -111z m-227 -60 c21 -78 46 -170 55 -204 9 -34 15 -64 13 -67 -3 -2
-17 -7 -31 -11 -26 -6 -26 -6 -32 72 -7 90 -32 175 -58 199 -49 44 -150 -29
-210 -151 -21 -43 -36 -62 -45 -58 -18 7 -18 15 5 55 10 18 53 95 96 171 l77
137 46 0 47 0 37 -143z m-259 101 c22 -26 21 -45 -6 -93 -17 -30 -29 -40 -47
-40 -21 0 -25 4 -23 28 1 15 -2 27 -8 27 -5 0 -9 6 -9 14 0 8 -6 16 -13 19 -8
3 -14 19 -15 35 0 24 4 32 21 35 38 6 81 -4 100 -25z m-136 -19 c3 -17 12 -33
19 -36 8 -3 12 -9 9 -13 -3 -5 -1 -11 5 -15 5 -3 10 -17 10 -29 0 -13 10 -30
22 -38 22 -15 22 -15 -21 -46 -24 -18 -47 -32 -52 -32 -11 0 -43 55 -78 133
l-31 68 43 19 c57 26 66 25 74 -11z m590 -64 c41 -25 61 -54 27 -41 -12 5 -14
1 -9 -16 6 -18 4 -20 -14 -15 -15 4 -21 1 -21 -12 0 -25 -10 -32 -31 -20 -16
8 -19 6 -19 -11 0 -15 -5 -20 -17 -18 -14 2 -19 15 -21 60 -5 100 24 120 105
73z m-248 -51 c27 -34 37 -89 21 -109 -11 -14 -15 -14 -31 1 -11 10 -19 12
-19 6 0 -7 -9 -12 -20 -12 -12 0 -20 7 -20 17 0 15 -1 15 -13 -2 -18 -23 -37
-12 -37 22 0 22 -2 24 -15 13 -25 -21 -27 -5 -4 25 26 32 77 65 101 65 9 0 26
-12 37 -26z m352 -26 c21 -17 39 -36 39 -42 0 -27 -153 -156 -185 -156 -7 0
-55 100 -55 115 0 11 46 35 67 35 8 0 16 7 20 16 3 8 17 20 30 25 13 5 22 13
19 18 -5 8 4 16 22 20 2 1 21 -13 43 -31z m-481 -79 c7 -13 19 -19 33 -17 12
1 28 -1 35 -6 8 -5 18 -4 24 2 8 8 17 8 30 1 13 -7 23 -7 32 0 11 9 15 3 20
-26 3 -21 6 -53 6 -70 l0 -33 -69 0 c-65 0 -194 30 -205 48 -3 5 7 34 21 65
28 61 53 74 73 36z"/>
<path d="M695 1841 c-3 -5 -1 -12 5 -16 12 -7 30 2 30 16 0 12 -27 12 -35 0z"/>
<path d="M643 1694 c-7 -18 11 -39 26 -30 17 11 13 46 -4 46 -9 0 -18 -7 -22
-16z m27 -4 c0 -5 -5 -10 -11 -10 -5 0 -7 5 -4 10 3 6 8 10 11 10 2 0 4 -4 4
-10z"/>
<path d="M501 1406 c-12 -14 -5 -26 16 -26 15 0 18 26 4 34 -5 3 -14 0 -20 -8z"/>
<path d="M645 1320 c-7 -12 2 -30 16 -30 12 0 12 27 0 35 -5 3 -12 1 -16 -5z"/>
<path d="M1240 1160 c0 -5 4 -10 9 -10 6 0 13 5 16 10 3 6 -1 10 -9 10 -9 0
-16 -4 -16 -10z"/>
<path d="M1487 1083 c-12 -11 -8 -23 8 -23 8 0 15 7 15 15 0 16 -12 20 -23 8z"/>
<path d="M1326 1002 c-3 -6 -1 -14 5 -17 15 -10 25 3 12 16 -7 7 -13 7 -17 1z"/>
<path d="M1210 1030 c0 -5 7 -10 16 -10 8 0 12 5 9 10 -3 6 -10 10 -16 10 -5
0 -9 -4 -9 -10z"/>
<path d="M2533 1014 c-7 -19 20 -49 36 -40 16 11 13 43 -5 50 -22 8 -24 8 -31
-10z m34 -20 c-9 -9 -28 6 -21 18 4 6 10 6 17 -1 6 -6 8 -13 4 -17z"/>
<path d="M1445 951 c-6 -11 9 -23 19 -14 9 9 7 23 -3 23 -6 0 -12 -4 -16 -9z"/>
<path d="M2451 5672 c-68 -37 -87 -117 -47 -202 17 -37 16 -23 -5 51 -11 41
-10 50 7 85 23 47 74 79 111 69 63 -15 123 -116 103 -171 -10 -26 1 -32 18
-11 26 31 -27 142 -82 176 -41 26 -62 26 -105 3z"/>
<path d="M1360 5668 c0 -4 -9 -8 -20 -8 -11 0 -20 -4 -20 -10 0 -5 6 -9 13 -7
7 1 11 -8 10 -25 -2 -35 10 -36 32 -2 10 15 22 23 31 20 8 -3 14 -1 14 4 0 6
-9 10 -20 10 -12 0 -17 5 -14 13 3 8 -2 14 -11 14 -8 0 -15 -4 -15 -9z"/>
<path d="M1015 5551 c-6 -11 9 -23 19 -14 9 9 7 23 -3 23 -6 0 -12 -4 -16 -9z"/>
<path d="M882 5419 c2 -6 8 -10 13 -10 5 0 11 4 13 10 2 6 -4 11 -13 11 -9 0
-15 -5 -13 -11z"/>
<path d="M1624 5409 c-8 -14 11 -33 25 -25 6 4 11 11 11 16 0 13 -29 20 -36 9z"/>
<path d="M1645 5240 c-4 -6 -3 -16 3 -22 6 -6 12 -6 17 2 4 6 3 16 -3 22 -6 6
-12 6 -17 -2z"/>
<path d="M745 5150 c-7 -12 2 -30 16 -30 5 0 9 9 9 20 0 21 -15 27 -25 10z"/>
<path d="M2145 5141 c-3 -6 -4 -15 0 -20 3 -5 1 -12 -5 -16 -15 -9 -12 -68 4
-90 12 -16 19 -18 43 -10 41 15 55 74 26 113 -21 28 -57 40 -68 23z m61 -34
c17 -36 7 -83 -22 -94 -16 -6 -37 15 -28 28 2 4 0 10 -6 14 -15 10 -12 48 3
42 10 -4 13 2 9 19 -7 37 25 31 44 -9z"/>
<path d="M1572 4968 c6 -18 28 -21 28 -4 0 9 -7 16 -16 16 -9 0 -14 -5 -12
-12z"/>
<path d="M1412 4818 c5 -15 28 -18 29 -3 0 6 -7 12 -17 13 -10 3 -15 -1 -12
-10z"/>
<path d="M3503 4635 c-161 -30 -317 -59 -347 -65 l-54 -11 87 -137 c48 -75
143 -228 211 -340 67 -111 125 -200 127 -198 3 2 -52 97 -121 211 -69 113
-126 211 -126 217 0 6 9 8 23 4 12 -3 27 -6 34 -6 7 0 44 -27 83 -60 40 -32
87 -65 106 -72 19 -6 34 -17 34 -23 -1 -5 -7 -73 -14 -150 -7 -77 -10 -146 -6
-154 4 -7 10 38 14 100 22 352 70 503 211 663 30 35 55 66 55 70 0 8 10 10
-317 -49z m281 21 c-6 -16 -77 -67 -117 -84 -16 -7 -63 -15 -105 -18 -127 -9
-174 -32 -208 -96 -8 -16 -20 -28 -27 -28 -15 0 -62 -48 -69 -69 -2 -9 -32 27
-70 85 -54 82 -62 100 -49 106 9 4 81 19 161 33 80 15 215 39 300 55 186 34
191 34 184 16z m-97 -118 c-14 -18 -35 -53 -47 -78 -12 -25 -23 -46 -25 -48
-1 -1 -40 5 -86 13 -46 8 -101 15 -121 15 -45 0 -50 19 -14 55 29 29 83 45
156 45 30 1 78 9 105 18 28 10 52 17 54 16 1 -2 -8 -18 -22 -36z m-165 -124
c83 -16 89 -18 83 -38 -3 -12 -14 -58 -24 -103 -9 -45 -20 -85 -23 -89 -11
-10 -77 27 -128 72 -50 46 -104 74 -140 74 -38 0 -19 59 28 84 36 20 94 20
204 0z"/>
<path d="M1816 4138 c-2 -18 -17 -153 -31 -300 -15 -147 -29 -277 -32 -288 -5
-17 -1 -20 33 -20 44 0 97 28 114 61 12 21 13 20 30 -19 18 -41 61 -72 98 -72
34 0 62 42 62 93 l0 47 63 0 c48 0 76 6 114 25 89 45 89 47 -2 133 -130 123
-326 291 -387 333 l-57 39 -5 -32z m89 -42 c100 -76 420 -364 413 -371 -9 -9
-119 20 -162 42 -90 46 -230 202 -295 332 -24 46 -20 46 44 -3z m-35 -57 c58
-126 51 -243 -22 -381 -16 -31 -41 -67 -55 -80 l-26 -23 6 45 c3 25 16 150 29
277 13 128 26 233 29 233 3 0 21 -32 39 -71z m113 -142 c84 -100 178 -159 295
-182 40 -8 35 -17 -23 -44 -107 -50 -218 -15 -299 94 -14 19 -15 17 -16 -26 0
-87 -80 -199 -141 -199 -16 0 -13 7 17 47 89 116 126 267 95 383 l-10 35 17
-25 c9 -13 39 -51 65 -83z m80 -252 c24 -21 23 -89 -3 -115 -28 -28 -57 -25
-90 9 -36 36 -46 72 -31 121 6 20 11 47 11 60 0 21 4 19 48 -19 26 -23 55 -48
65 -56z"/>
<path d="M1981 3640 c-19 -11 -9 -45 14 -45 13 0 21 8 23 21 3 23 -17 37 -37
24z m27 -21 c-2 -6 -8 -10 -13 -10 -5 0 -11 4 -13 10 -2 6 4 11 13 11 9 0 15
-5 13 -11z"/>
<path d="M2670 879 c0 -27 44 -79 82 -98 23 -11 44 -19 46 -17 7 7 -47 83 -74
105 -29 23 -54 27 -54 10z m83 -58 c10 -17 14 -31 10 -31 -18 0 -54 32 -69 61
l-15 30 28 -15 c15 -8 36 -28 46 -45z"/>
<path d="M2810 735 c-10 -12 -10 -18 0 -30 16 -19 39 -19 46 0 6 15 -11 45
-26 45 -4 0 -13 -7 -20 -15z m40 -21 c0 -8 -7 -14 -15 -14 -8 0 -15 9 -15 20
0 13 5 18 15 14 8 -4 15 -12 15 -20z"/>
<path d="M1797 652 c-21 -23 -22 -71 -3 -97 12 -17 16 -17 30 -6 13 11 16 27
14 64 -3 56 -16 67 -41 39z m31 -39 c-2 -25 -8 -48 -15 -50 -18 -6 -27 44 -14
73 18 40 32 29 29 -23z"/>
<path d="M1722 582 c-6 -17 -6 -35 -1 -43 14 -22 44 3 44 37 0 40 -29 44 -43
6z m33 -21 c-3 -12 -11 -21 -16 -21 -10 0 -12 43 -2 54 12 12 25 -11 18 -33z"/>
</g>
</svg>
