<?xml version="1.0" standalone="no"?>
<!DOCTYPE svg PUBLIC "-//W3C//DTD SVG 20010904//EN"
 "http://www.w3.org/TR/2001/REC-SVG-20010904/DTD/svg10.dtd">
<svg version="1.0" xmlns="http://www.w3.org/2000/svg"
 width="396.000000pt" height="739.000000pt" viewBox="0 0 396.000000 739.000000"
 preserveAspectRatio="xMidYMid meet">

<g transform="translate(0.000000,739.000000) scale(0.100000,-0.100000)"
fill="#4D9375" stroke="none">
<path d="M1610 7370 c-11 -11 -20 -29 -20 -40 0 -13 -7 -20 -18 -20 -24 0 -42
-19 -42 -45 0 -14 -10 -26 -25 -33 -33 -15 -33 -51 1 -83 41 -38 67 -98 71
-169 5 -70 -11 -136 -27 -110 -5 8 -5 21 1 31 5 10 9 39 9 65 0 52 -33 121
-73 150 -15 11 -18 18 -9 21 23 9 12 24 -15 21 -22 -2 -29 -9 -31 -29 -4 -32
24 -60 34 -35 6 16 8 15 26 -1 11 -10 27 -31 35 -46 l14 -29 -31 24 c-26 19
-44 23 -100 23 -46 0 -73 -5 -82 -14 -11 -11 -8 -13 16 -8 36 6 61 -18 76 -73
13 -49 40 -79 80 -87 38 -7 44 -15 70 -93 19 -54 21 -79 17 -149 -4 -57 -12
-91 -24 -108 -60 -82 -66 -129 -29 -208 24 -52 97 -128 135 -140 12 -4 21 -15
21 -26 0 -34 -39 -13 -119 65 -81 78 -101 114 -101 178 0 52 -24 92 -51 85
-10 -3 -24 1 -30 9 -9 12 -15 12 -27 2 -8 -7 -23 -12 -32 -10 -13 2 -19 -6
-23 -35 -14 -97 1 -116 98 -129 46 -5 56 -12 141 -96 82 -80 120 -138 91 -138
-6 0 -43 36 -84 79 -105 114 -145 122 -276 61 -76 -36 -116 -38 -145 -7 -25
27 -27 39 -10 70 l12 22 6 -25 c7 -29 47 -40 56 -16 8 20 -13 46 -37 46 -17 0
-17 2 1 43 29 64 26 94 -12 117 l-33 20 34 0 c20 0 39 -7 47 -17 13 -17 13
-17 14 0 0 33 -51 73 -103 81 -49 8 -69 28 -49 48 9 9 17 7 32 -7 11 -10 20
-13 20 -7 0 7 -9 17 -20 24 -11 7 -20 18 -20 25 0 6 -14 25 -31 42 -22 23 -26
31 -14 31 9 0 25 -5 36 -10 38 -21 18 7 -21 29 -39 22 -56 51 -48 85 5 26 64
-16 88 -64 26 -50 37 -51 32 -2 -3 35 -3 36 10 13 7 -13 22 -29 33 -35 11 -6
26 -19 33 -28 7 -10 18 -18 23 -18 6 0 3 7 -6 16 -22 22 -3 44 23 28 12 -8 18
-28 20 -73 3 -54 6 -63 27 -73 16 -7 32 -7 52 0 23 9 24 11 7 11 -31 1 -47 26
-39 58 6 24 8 26 16 10 16 -28 68 -49 104 -43 29 6 33 4 39 -18 7 -30 36 -48
55 -36 18 11 6 41 -19 47 -28 7 -25 21 6 29 18 5 34 0 55 -15 16 -12 29 -17
29 -12 0 16 -43 41 -71 41 -15 0 -46 -7 -69 -15 -60 -21 -68 -19 -106 21 l-34
35 -12 -26 c-9 -20 -9 -34 -1 -56 12 -30 5 -37 -15 -17 -7 7 -12 34 -12 61 0
72 -13 91 -60 83 -43 -7 -70 11 -70 45 0 25 -20 24 -27 -2 -5 -19 -7 -18 -32
10 -14 17 -48 40 -75 51 l-49 20 17 -24 c9 -14 16 -36 16 -49 0 -13 9 -32 20
-42 l21 -19 -22 -12 c-22 -12 -22 -12 10 -28 36 -19 64 -67 43 -74 -37 -12 8
-72 56 -72 23 0 82 -26 82 -36 0 -3 -8 -3 -19 1 -22 7 -71 -10 -71 -25 0 -5 8
-10 18 -10 11 0 27 -9 36 -19 23 -25 15 -63 -25 -125 -35 -57 -37 -89 -4 -121
33 -34 77 -32 161 6 79 36 154 43 181 17 15 -15 13 -16 -23 -8 -79 18 -158
-20 -193 -93 -20 -42 -28 -87 -15 -87 4 0 22 14 42 31 70 62 136 74 192 37 41
-28 53 -67 37 -116 -17 -51 -54 -75 -121 -76 -48 0 -60 4 -95 32 -48 39 -52
31 -12 -28 70 -104 173 -117 263 -33 l27 25 -26 -78 c-22 -70 -24 -90 -20
-174 8 -123 22 -190 59 -267 44 -96 124 -175 224 -225 l83 -41 -24 -29 c-47
-56 -24 -171 40 -200 22 -10 24 -15 18 -54 -5 -40 -3 -46 30 -79 19 -19 42
-35 50 -35 13 0 14 -5 5 -30 -21 -62 21 -150 71 -150 17 0 19 -5 14 -34 -4
-28 -1 -39 20 -60 15 -15 37 -26 53 -26 23 0 25 -3 20 -24 -9 -36 10 -76 42
-88 27 -11 28 -13 18 -49 -8 -30 -6 -42 8 -64 10 -15 27 -30 37 -32 12 -3 19
-14 19 -29 0 -24 35 -55 54 -48 7 3 11 -8 11 -27 0 -38 26 -60 53 -43 9 6 17
23 17 38 -1 36 11 33 19 -5 4 -20 1 -38 -9 -52 -20 -29 -19 -43 5 -67 l20 -20
-22 -31 c-17 -23 -23 -44 -23 -82 l0 -52 -63 47 c-35 27 -69 48 -76 48 -9 0
-17 -55 -30 -197 -10 -109 -27 -252 -37 -317 -11 -65 -18 -120 -16 -122 2 -2
123 4 270 13 146 9 268 15 270 13 2 -3 7 -25 10 -49 l5 -43 -294 4 -295 4 6
-51 c3 -27 17 -167 31 -310 15 -143 28 -262 30 -263 1 -2 18 1 37 7 52 17 113
75 132 125 l17 44 36 -15 c19 -8 46 -13 59 -10 17 3 23 0 23 -14 0 -25 37 -44
56 -28 11 9 14 8 14 -9 0 -39 -19 -71 -52 -88 -18 -9 -45 -27 -59 -41 -23 -21
-27 -22 -39 -9 -7 9 -11 33 -8 56 2 22 0 40 -4 40 -5 0 -8 -17 -8 -37 0 -34
-1 -35 -14 -18 -13 18 -14 18 -20 -2 -4 -11 -16 -25 -29 -32 -21 -11 -21 -11
5 -6 19 4 35 -2 54 -18 l27 -23 -34 -39 c-30 -34 -82 -65 -109 -65 -5 0 -10
11 -10 24 0 38 -50 45 -64 9 -19 -48 90 -58 152 -14 l32 22 0 -50 0 -51 -72 0
c-136 0 -238 12 -238 27 0 8 -12 25 -26 38 -46 43 -107 29 -127 -28 -15 -42
62 -72 125 -48 17 6 64 1 155 -18 l131 -26 -18 -22 c-17 -22 -18 -22 -35 -3
-9 10 -42 27 -72 36 -54 17 -56 17 -69 -1 -18 -24 -18 -40 1 -55 20 -17 48 -9
60 18 13 29 36 28 68 -4 21 -21 25 -32 20 -62 -7 -47 -9 -48 -41 -35 -65 26
-68 26 -42 4 l25 -21 -30 -1 c-20 -1 -24 -3 -11 -6 15 -4 16 -7 5 -14 -11 -7
-10 -9 5 -9 15 0 16 -3 6 -15 -7 -9 -8 -15 -2 -15 5 0 12 7 15 14 3 8 20 22
38 31 36 19 41 15 61 -48 10 -33 9 -44 -10 -83 -20 -40 -42 -58 -42 -34 0 6
-13 10 -30 10 -23 0 -31 -5 -36 -24 -8 -33 2 -46 36 -46 22 0 34 9 59 47 17
26 34 64 37 84 l6 37 35 -20 c38 -23 39 -18 -26 -90 -13 -15 -22 -30 -19 -33
3 -3 33 28 67 69 55 67 60 77 51 101 -5 14 -10 58 -10 96 0 60 2 69 19 69 22
0 82 -20 95 -31 5 -4 -14 -37 -43 -74 -29 -37 -50 -69 -48 -72 3 -2 29 27 58
66 30 39 57 71 60 71 4 0 21 -16 38 -36 l32 -36 -38 -27 c-21 -15 -67 -47
-102 -71 l-65 -43 50 -15 c27 -8 82 -22 123 -31 41 -9 76 -22 79 -29 5 -16
-15 -12 -157 34 l-104 33 -37 -29 c-20 -16 -43 -36 -50 -45 -7 -8 -16 -13 -20
-10 -5 3 -20 -8 -33 -25 -19 -23 -34 -30 -60 -30 -68 0 -117 -64 -117 -152 l0
-53 -19 30 c-29 48 -74 80 -153 111 -136 52 -199 135 -204 269 -3 67 -2 74 6
42 30 -118 114 -190 204 -173 74 14 101 83 63 159 -13 26 -22 47 -18 47 25 0
75 -47 93 -87 19 -43 20 -51 7 -88 -20 -58 -69 -83 -138 -69 -28 6 -51 7 -51
2 0 -8 55 -35 120 -59 19 -7 47 -26 63 -42 15 -16 27 -25 27 -20 0 20 -62 66
-112 83 l-53 19 38 0 c73 2 127 53 127 123 0 63 -63 136 -133 152 l-29 7 32
-45 c52 -72 41 -144 -26 -166 -70 -23 -158 32 -189 119 -23 66 -19 95 6 44 27
-55 82 -103 117 -103 32 0 52 16 52 41 0 25 -15 31 -43 18 -55 -25 -107 49
-115 164 -6 84 -22 77 -46 -20 -20 -76 -22 -173 -7 -231 22 -82 94 -154 191
-192 117 -46 170 -92 170 -150 0 -35 20 -21 26 19 6 38 8 39 38 34 53 -8 116
62 116 130 0 17 19 41 70 87 39 34 72 61 74 59 1 -2 10 -16 19 -31 16 -26 16
-27 -11 -33 -15 -3 -45 -18 -67 -33 -33 -23 -40 -34 -40 -61 0 -21 7 -38 17
-44 37 -24 79 58 47 90 -9 9 -3 16 24 29 36 17 37 17 89 -9 29 -15 64 -27 76
-27 29 0 82 -51 82 -78 0 -15 -5 -18 -24 -15 -35 7 -64 -37 -48 -72 14 -31 45
-32 73 -4 18 18 20 29 15 68 -3 25 -15 58 -26 73 l-20 28 32 13 c29 12 34 12
40 -3 15 -40 10 -116 -11 -160 -11 -25 -21 -55 -21 -68 0 -31 26 -79 50 -92
13 -7 20 -21 20 -41 0 -17 4 -28 9 -25 4 3 6 17 3 31 -3 18 0 25 11 25 32 0
57 41 57 92 0 41 -5 54 -36 88 l-37 41 7 76 c3 42 7 77 9 78 1 1 16 5 34 8 31
6 32 5 23 -19 -6 -14 -10 -51 -10 -83 0 -44 4 -62 19 -75 41 -37 87 15 62 70
-8 18 -19 24 -41 24 -22 0 -30 5 -30 18 1 34 26 71 63 97 l38 25 19 -22 c22
-27 26 -54 8 -61 -8 -3 -6 -6 5 -6 9 -1 17 4 17 10 0 6 7 8 16 5 12 -5 15 -2
10 10 -5 12 -2 15 10 10 13 -5 14 -4 6 7 -8 9 -8 17 -1 24 7 7 3 9 -15 6 -13
-3 -34 1 -45 9 -21 15 -21 15 14 60 34 45 75 68 121 68 21 0 21 -2 11 -30 -14
-38 -1 -64 36 -68 27 -3 57 28 57 60 0 43 -112 65 -172 34 l-28 -15 0 38 0 39
68 -4 c168 -11 192 -15 202 -35 18 -32 108 -72 149 -65 62 10 93 73 53 109
-10 10 -44 22 -75 28 -51 11 -59 10 -93 -10 l-37 -22 -96 32 c-141 47 -139 45
-105 80 l28 29 17 -26 c53 -82 179 -86 179 -6 0 31 -42 57 -69 42 -25 -13 -44
-47 -37 -66 14 -36 -48 5 -69 46 -11 22 -12 35 -4 59 12 33 34 40 70 20 17 -9
18 -13 7 -26 -11 -14 -11 -15 2 -11 10 3 15 18 15 47 0 30 -3 40 -13 36 -10
-3 -10 0 -2 15 11 21 6 40 -10 40 -4 0 -6 -8 -3 -19 3 -12 -3 -24 -18 -35 -32
-22 -35 -21 -47 13 -8 24 -7 31 4 35 22 8 6 28 -17 21 -27 -9 -34 17 -14 55
15 29 18 31 34 16 27 -24 60 -20 73 10 13 28 2 57 -24 62 -23 4 -75 -44 -94
-87 l-17 -39 -36 15 c-20 8 -38 17 -40 19 -2 2 20 32 49 68 36 45 61 66 82 70
62 12 118 78 118 138 0 14 8 33 19 42 17 16 25 16 112 1 136 -23 217 -49 284
-93 104 -67 181 -156 232 -268 31 -68 43 -58 43 36 0 167 -99 330 -233 386
-43 18 -44 20 -40 54 7 48 -17 94 -56 110 -25 10 -29 15 -21 30 25 47 -2 112
-54 131 -31 11 -34 15 -29 44 8 47 -19 100 -66 129 -44 28 -47 36 -55 144 -6
87 -31 145 -87 201 -43 42 -128 81 -179 81 -17 0 -30 3 -30 6 0 3 13 25 30 49
34 50 69 65 149 65 l56 1 -29 15 c-20 11 -31 13 -39 5 -6 -6 -22 -11 -35 -11
-42 0 -86 -29 -119 -77 l-33 -47 0 35 c0 92 55 190 125 223 32 15 44 16 111 5
85 -15 118 -5 141 41 12 24 13 24 13 -12 0 -93 -134 -149 -248 -103 l-37 15
35 -30 c34 -29 57 -40 45 -20 -4 6 14 10 47 10 65 0 130 28 155 66 13 21 17
45 16 92 -2 61 0 66 34 101 46 47 83 101 121 177 53 106 66 166 67 309 0 124
-1 132 -29 185 -91 175 -139 217 -302 270 l-81 26 28 32 c16 18 29 41 29 52 0
16 7 20 33 20 54 0 74 41 43 86 -16 22 -11 68 6 58 5 -3 20 -3 33 0 31 8 44
50 22 74 -9 11 -13 29 -10 49 5 28 9 32 41 35 48 4 66 44 40 89 -21 36 -16 53
27 78 33 19 34 22 33 80 -1 45 -6 66 -20 81 -19 20 -19 20 12 20 42 0 49 21
41 132 -2 28 -58 51 -110 45 -25 -3 -54 -9 -63 -12 -13 -5 -18 -2 -18 9 0 9 8
16 18 16 10 0 34 8 54 19 35 18 37 18 41 0 7 -27 72 -26 87 0 14 28 2 51 -30
58 -26 5 -28 8 -23 42 2 20 11 56 19 80 18 58 18 58 -14 23 -15 -16 -47 -39
-71 -51 l-43 -22 -15 20 c-18 26 -49 27 -63 2 -16 -30 -12 -52 11 -58 12 -4
18 -11 15 -20 -3 -8 -6 -17 -6 -19 0 -2 -7 -4 -15 -4 -8 0 -15 -7 -15 -15 0
-8 7 -15 15 -15 21 0 19 -13 -5 -28 -19 -12 -20 -10 -20 46 0 71 -20 106 -58
99 -14 -3 -33 0 -42 6 -22 13 -51 2 -57 -23 -4 -14 -14 -20 -34 -20 -20 0 -34
-8 -45 -26 -12 -17 -20 -22 -27 -15 -6 6 -22 11 -35 11 -17 0 -28 -10 -44 -42
-44 -92 -52 -103 -75 -100 -12 2 -32 -2 -44 -8 -18 -10 -21 -18 -16 -51 4 -30
2 -39 -9 -39 -8 0 -19 -11 -24 -25 -9 -23 -12 -24 -36 -13 -23 11 -28 10 -46
-12 -13 -16 -18 -33 -15 -50 6 -27 -17 -68 -28 -51 -18 30 -85 -3 -85 -41 0
-14 -28 -33 -36 -25 -2 1 4 23 12 47 11 31 15 68 12 121 -4 65 -11 88 -46 158
-23 45 -42 84 -42 87 0 3 16 -8 35 -25 24 -21 46 -31 68 -31 30 0 129 48 142
69 7 13 -16 58 -50 99 -15 18 -21 33 -15 37 5 3 10 20 10 36 0 25 -6 33 -30
42 -25 9 -32 21 -50 78 -11 37 -20 82 -20 101 l-1 33 -19 -36 c-25 -47 -126
-125 -134 -103 -10 26 -50 12 -66 -23 -9 -20 -27 -37 -45 -43 -45 -16 -79 -48
-68 -63 5 -6 15 -31 21 -54 13 -43 61 -93 90 -93 9 0 30 7 46 15 15 8 30 15
31 15 2 0 6 -16 10 -36 3 -20 25 -75 47 -123 47 -101 59 -193 37 -282 l-13
-54 -8 70 c-5 55 -18 92 -57 171 -93 188 -207 274 -387 295 -49 5 -106 7 -128
3 -34 -5 -37 -4 -33 12 3 11 11 46 17 79 19 101 60 214 81 226 26 13 49 -4 49
-37 0 -28 -19 -42 -31 -23 -5 9 -3 16 8 20 13 4 14 7 4 13 -18 12 -34 -8 -26
-33 9 -30 43 -27 55 5 6 14 7 30 4 35 -3 6 4 7 18 4 33 -8 61 16 61 54 0 23 5
31 17 31 26 0 43 26 36 55 -4 17 -2 25 7 25 14 0 57 52 57 70 0 5 8 10 17 10
9 0 25 8 35 17 22 19 77 42 128 52 l35 6 -32 14 c-18 7 -45 11 -60 8 -75 -16
-139 -33 -150 -40 -6 -4 -14 -3 -18 3 -18 29 -55 -10 -55 -57 l0 -36 27 24
c20 18 24 19 13 4 -18 -25 -32 -35 -40 -30 -4 2 -37 -25 -73 -59 -60 -57 -67
-61 -67 -40 0 41 -27 94 -47 94 -27 0 -43 -20 -43 -53 0 -16 -4 -26 -10 -22
-16 10 -60 -42 -60 -70 0 -31 26 -43 47 -22 17 17 10 53 -8 41 -8 -5 -8 -8 0
-14 9 -5 8 -10 -3 -20 -13 -10 -17 -9 -22 5 -8 20 4 43 29 59 46 29 58 -84 18
-169 -13 -27 -29 -66 -36 -85 l-12 -34 -6 42 c-11 64 -51 103 -112 108 l-50 5
25 -18 c58 -42 70 -60 70 -110 0 -61 -29 -109 -77 -129 -46 -20 -92 -11 -123
21 -19 21 -22 32 -18 80 3 36 12 66 27 86 13 17 20 33 17 36 -10 10 -74 -8
-101 -28 l-26 -21 6 103 c9 136 29 231 59 283 23 39 27 41 63 38 44 -4 64 12
82 69 15 45 52 82 85 82 32 0 34 13 4 21 -72 19 -164 -10 -193 -62 l-16 -27 5
39 c8 57 86 131 86 81 0 -8 4 -15 8 -15 15 0 32 24 32 47 0 18 -6 23 -25 23
-14 0 -25 -6 -25 -13 0 -8 -11 -19 -25 -25 -44 -20 -65 -68 -65 -149 0 -78
-14 -105 -23 -45 -15 90 10 161 74 208 27 20 54 44 59 54 13 24 2 50 -20 50
-13 0 -20 9 -22 28 -2 19 -9 28 -25 30 -19 3 -23 10 -23 36 0 58 -51 85 -90
46z m65 -10 c14 -16 17 -30 12 -72 -6 -48 -6 -50 9 -30 8 12 20 22 25 22 19 0
21 -31 4 -50 -17 -19 -16 -19 19 -13 56 9 47 -23 -23 -85 -54 -47 -61 -58 -71
-109 -7 -31 -10 -80 -6 -108 4 -38 1 -66 -14 -108 -11 -31 -20 -64 -21 -74 0
-10 -10 11 -23 47 -19 56 -20 69 -9 92 34 70 2 226 -57 283 -17 16 -30 37 -30
48 0 17 5 19 40 14 39 -5 39 -5 25 16 -32 45 -2 85 38 50 19 -18 19 -17 12 15
-5 23 -2 40 9 57 20 30 37 32 61 5z m-220 -235 c0 -14 -3 -25 -7 -25 -10 0
-10 34 -1 43 3 4 7 7 7 7 1 0 1 -11 1 -25z m355 1 c0 -8 -4 -18 -10 -21 -5 -3
-10 3 -10 14 0 12 5 21 10 21 6 0 10 -6 10 -14z m-322 -86 c43 -26 69 -81 56
-118 -20 -58 -91 -25 -113 53 -5 21 -20 48 -32 61 l-22 24 39 0 c21 0 54 -9
72 -20z m355 -5 c-20 -16 -38 -44 -48 -75 -12 -38 -23 -52 -41 -56 -43 -11
-57 2 -51 47 9 66 62 108 137 108 l35 1 -32 -25z m672 -133 c-6 -5 -26 -15
-45 -22 -19 -8 -46 -22 -59 -32 -22 -17 -101 -26 -101 -12 0 14 47 43 70 44
14 1 41 7 60 14 40 16 89 20 75 8z m-215 -46 c0 -7 -7 -19 -15 -26 -12 -10
-15 -9 -15 7 0 11 3 23 7 26 11 12 23 8 23 -7z m50 -50 c0 -16 -19 -25 -38
-18 -9 3 -10 8 -1 18 15 18 39 18 39 0z m-46 -32 c25 -10 8 -24 -27 -24 -30 1
-31 1 -13 15 23 17 20 17 40 9z m-208 -39 c7 -19 14 -44 14 -56 0 -18 -4 -20
-26 -15 -17 5 -23 3 -19 -4 3 -5 12 -10 19 -10 7 0 21 -9 31 -20 10 -11 13
-20 7 -20 -7 0 -12 6 -12 13 0 6 -11 -1 -25 -18 l-24 -30 -2 45 c-2 51 -2 55
-13 93 -5 18 -4 32 4 42 19 23 30 18 46 -20z m184 -20 c10 -12 10 -18 0 -30
-21 -25 -90 -17 -90 11 0 31 68 45 90 19z m-75 -57 c37 -17 32 -62 -8 -66 -16
-2 -35 2 -43 9 -17 14 -19 55 -1 62 19 8 24 8 52 -5z m-697 -65 c2 -8 -5 -13
-17 -13 -12 0 -21 6 -21 16 0 18 31 15 38 -3z m1192 -176 c0 -65 -66 -131
-120 -121 -28 6 -45 -8 -51 -40 -6 -31 -57 -47 -96 -31 -24 10 -35 25 -53 71
l-21 59 26 22 c48 42 106 29 136 -28 11 -22 24 -39 30 -39 5 0 3 10 -5 22 -9
12 -16 40 -16 62 0 36 6 45 67 102 l67 62 18 -56 c10 -32 18 -70 18 -85z
m-1121 41 c-7 -40 -13 -94 -14 -119 0 -37 -2 -43 -11 -30 -21 31 -36 93 -30
124 7 34 54 112 63 104 2 -3 -1 -38 -8 -79z m338 56 c28 -17 47 -86 39 -137
-13 -77 -39 -112 -120 -156 -41 -23 -87 -41 -102 -41 -37 0 -117 46 -136 78
-23 40 -29 90 -18 133 14 51 65 109 96 109 23 0 23 0 8 -37 -33 -78 -14 -162
42 -183 93 -36 188 36 188 142 0 41 -5 53 -35 84 -32 34 -33 36 -9 29 14 -4
35 -13 47 -21z m118 -38 c-8 -26 -22 -82 -30 -124 -9 -42 -17 -77 -18 -78 -1
-1 -15 -6 -30 -9 l-29 -8 20 39 c10 22 29 71 42 109 37 114 77 177 45 71z
m-645 -1 c0 -17 17 -20 22 -4 2 5 11 7 20 4 17 -7 22 -26 31 -111 l5 -42 -32
9 c-17 5 -45 9 -62 9 -16 0 -39 7 -50 15 -16 13 -17 16 -4 26 11 8 12 12 3 16
-18 7 -16 33 2 33 13 0 13 3 3 20 -16 25 -1 41 17 17 12 -16 13 -16 18 3 6 23
27 27 27 5z m1126 -7 c8 -12 7 -68 0 -76 -3 -2 -16 4 -30 14 -20 12 -25 22
-20 38 11 33 37 46 50 24z m248 -91 c17 -26 -5 -51 -48 -55 -41 -4 -42 -1 -19
36 30 46 47 51 67 19z m844 -107 c-5 -30 -16 -64 -23 -76 -16 -25 -73 -54
-105 -54 -21 0 -22 4 -18 45 7 56 19 71 84 100 28 12 55 28 59 35 12 20 13 6
3 -50z m-2434 34 c9 -3 16 -13 16 -21 0 -20 -34 -12 -38 10 -4 19 -1 20 22 11z
m1604 -28 c38 -44 48 -74 31 -91 -24 -23 -93 -55 -117 -55 -31 0 -70 27 -87
60 -13 24 -13 30 0 40 8 7 15 22 15 34 0 26 36 43 91 45 30 1 43 -5 67 -33z
m700 22 c14 -14 -2 -48 -23 -48 -21 0 -27 17 -15 40 12 23 21 25 38 8z m-878
-23 c18 -21 5 -45 -25 -45 -14 0 -28 7 -31 15 -7 17 12 45 31 45 7 0 18 -7 25
-15z m710 -20 c0 -28 -4 -35 -19 -35 -26 0 -34 15 -27 46 4 15 14 24 26 24 16
0 20 -7 20 -35z m74 3 c30 -42 15 -196 -23 -244 -19 -24 -19 -23 -26 110 -4
74 -4 139 -1 145 11 18 34 13 50 -11z m-1139 -13 c145 -38 271 -175 335 -365
19 -56 21 -80 17 -170 -5 -123 -29 -205 -84 -298 -101 -170 -258 -267 -450
-279 -70 -5 -94 -2 -166 21 -237 74 -356 248 -360 531 -2 105 16 180 68 285
15 30 21 56 18 78 -3 19 -1 32 5 32 16 0 24 -18 12 -25 -5 -3 -10 -11 -10 -17
0 -6 27 18 59 53 54 59 73 90 36 59 -12 -10 -15 -10 -15 5 0 13 6 16 27 12 18
-3 39 3 66 21 74 49 161 71 277 72 64 0 129 -6 165 -15z m996 -22 c22 -26 20
-298 -3 -338 l-16 -30 -7 40 c-3 22 -15 82 -26 133 -23 112 -24 160 -3 190 18
26 37 28 55 5z m-1767 -13 c34 -13 104 -77 123 -113 12 -24 13 -37 3 -75 -26
-104 -122 -184 -202 -168 -35 7 -84 40 -98 66 -9 17 -8 18 29 3 87 -34 182 11
195 94 9 53 -11 95 -58 117 -63 30 -119 19 -189 -36 -39 -31 -39 -31 -32 -7
24 81 82 129 156 129 26 0 59 -4 73 -10z m1142 -115 c49 -98 62 -164 48 -242
-8 -47 -8 -46 -14 42 -5 78 -11 102 -48 181 -23 50 -42 102 -41 115 0 14 3 18
6 9 2 -8 25 -55 49 -105z m525 105 c23 -13 27 -78 5 -86 -22 -8 -76 35 -69 55
15 40 31 48 64 31z m183 -102 c10 -121 5 -140 -50 -203 -20 -22 -31 -30 -25
-18 26 52 35 245 14 316 -4 15 0 18 24 15 l28 -3 9 -107z m331 72 c0 -19 -6
-26 -24 -28 -33 -5 -46 11 -31 38 16 30 55 24 55 -10z m-1971 -61 c-14 -15
-19 -17 -26 -7 -15 24 -8 35 17 30 25 -4 25 -5 9 -23z m1776 0 c0 -5 -9 -9
-20 -9 -12 0 -17 -5 -14 -14 3 -8 0 -17 -6 -21 -21 -13 -23 5 -5 39 15 27 22
33 32 24 7 -6 13 -14 13 -19z m-355 -2 c29 -45 39 -132 26 -220 -10 -69 -51
-187 -64 -187 -2 0 -1 26 1 58 2 31 -5 117 -17 190 -22 144 -18 182 19 182 11
0 26 -10 35 -23z m79 -100 c4 -18 3 -26 -5 -25 -6 2 -14 -3 -16 -9 -3 -7 2
-13 11 -13 9 0 18 -11 21 -25 3 -14 7 -36 10 -49 8 -37 -11 -76 -63 -128 -25
-27 -42 -48 -37 -48 5 0 37 28 72 62 l62 61 -23 -64 c-24 -66 -44 -150 -70
-297 -22 -124 -60 -168 -141 -164 -50 2 -70 -16 -61 -53 4 -15 16 -27 31 -31
38 -9 55 2 55 35 0 25 7 33 35 47 38 17 68 53 80 94 12 40 25 50 68 50 30 0
51 -8 83 -32 48 -36 59 -65 22 -53 -67 21 -87 18 -123 -18 -25 -25 -35 -44
-35 -67 0 -35 15 -70 31 -70 6 0 3 10 -5 22 -21 30 -20 56 4 95 24 41 61 51
106 29 59 -28 69 -91 23 -137 -16 -16 -32 -20 -72 -18 -61 2 -180 -15 -256
-37 -134 -39 -246 -121 -297 -219 l-28 -54 -13 31 c-12 28 -10 36 13 84 31 63
28 113 -9 178 -31 55 -69 81 -117 80 -47 -2 -79 -21 -117 -71 -37 -48 -40
-126 -6 -171 21 -29 22 -32 6 -62 -19 -38 -12 -93 16 -131 l20 -27 -23 -21
c-23 -21 -23 -21 -41 -1 -10 11 -25 22 -35 25 -12 4 -16 13 -13 29 3 13 -2 37
-11 54 -15 30 -15 32 9 58 50 53 45 141 -11 200 -19 21 -33 38 -32 38 121 61
257 241 289 384 l12 52 32 -34 c56 -61 114 -56 150 14 37 72 68 -2 39 -93 -14
-46 -20 -53 -38 -50 -29 6 -50 -20 -42 -52 8 -32 39 -49 66 -35 17 9 20 21 20
75 0 57 3 68 30 98 16 19 62 51 102 72 77 41 142 85 134 92 -2 3 4 24 13 46
36 85 51 227 30 301 -8 31 -8 41 3 47 13 8 21 -11 42 -94z m452 82 c8 -6 14
-22 14 -35 0 -30 -17 -31 -94 -3 -37 12 -69 18 -87 14 -64 -14 -17 16 56 36
37 10 92 4 111 -12z m-628 -31 c13 -17 42 -155 49 -239 7 -78 -8 -130 -44
-159 -14 -11 -28 -18 -30 -16 -3 2 3 25 11 50 9 26 16 71 16 101 0 44 3 55 16
55 9 0 14 6 11 13 -2 6 -10 11 -18 10 -8 -2 -19 11 -25 30 -6 17 -14 39 -18
47 -4 10 1 19 16 25 12 6 24 17 26 25 4 11 -1 10 -17 -5 -26 -23 -54 -12 -59
24 -6 41 41 69 66 39z m559 -23 c30 -13 33 -17 23 -30 -7 -8 -10 -26 -8 -40 5
-22 3 -25 -16 -18 -11 5 -55 8 -96 8 -58 -1 -85 -6 -118 -24 -24 -12 -42 -25
-39 -27 3 -3 23 4 45 15 81 41 195 39 238 -4 28 -28 29 -38 9 -59 -14 -13 -20
-13 -63 6 -35 16 -68 22 -128 22 -72 1 -85 -2 -125 -28 l-44 -29 29 32 c17 17
31 38 32 45 4 26 74 111 107 129 39 21 106 22 154 2z m78 -51 c0 -24 -4 -29
-25 -29 -31 0 -40 33 -14 52 26 19 39 11 39 -23z m-670 -59 c30 -62 28 -194
-5 -260 -22 -44 -25 -47 -28 -25 -2 14 -12 67 -23 119 -21 106 -24 148 -9 186
14 37 41 29 65 -20z m-107 3 c18 -18 14 -56 -7 -68 -15 -7 -23 -6 -35 6 -19
18 -19 16 -6 48 10 28 29 33 48 14z m630 -63 c53 -16 58 -21 44 -42 -6 -9 -17
-9 -47 2 -22 8 -58 14 -80 15 -33 0 -41 4 -42 20 -2 17 4 20 36 20 20 0 61 -7
89 -15z m-180 -42 c-16 -7 -43 -22 -59 -33 -39 -28 -37 -11 4 27 48 45 71 56
78 35 4 -12 -2 -20 -23 -29z m-425 -37 c-3 -4 -12 6 -20 24 -11 27 -11 35 -1
41 9 6 15 -1 20 -24 3 -17 4 -36 1 -41z m-29 11 c22 -47 24 -144 2 -202 -12
-33 -15 -36 -16 -15 0 14 -12 57 -25 95 -24 67 -33 144 -18 159 15 15 39 -1
57 -37z m756 14 c0 -40 -54 -57 -65 -20 -8 24 1 35 30 41 26 6 35 1 35 -21z
m-852 7 c14 -14 16 -64 3 -72 -11 -7 -71 25 -71 37 0 38 43 60 68 35z m701 1
c65 -14 99 -51 78 -83 -20 -30 -46 -30 -139 -1 -79 25 -114 27 -166 8 -28 -10
17 36 53 55 65 33 99 37 174 21z m-552 -141 c4 -67 3 -74 -17 -86 -20 -12 -21
-12 -13 25 4 21 7 64 7 96 -3 86 18 56 23 -35z m-181 63 c37 -22 59 -70 50
-107 -4 -15 -20 -40 -36 -56 -35 -35 -61 -32 -102 13 -40 42 -39 100 1 140 34
34 45 35 87 10z m84 -88 c0 -7 -4 -13 -10 -13 -5 0 -10 10 -10 23 0 12 -7 32
-15 43 -8 12 -11 25 -7 29 7 7 41 -60 42 -82z m587 71 c61 -20 66 -26 53 -56
-12 -25 -13 -25 -53 -11 -53 19 -136 11 -183 -16 -28 -17 -34 -18 -34 -5 0 26
28 82 47 93 27 16 116 13 170 -5z m153 -56 c19 -34 5 -62 -33 -66 -32 -4 -69
30 -60 55 18 52 67 57 93 11z m-126 -34 c41 -20 55 -52 37 -90 -15 -33 -40
-30 -101 12 -63 43 -103 51 -153 30 -43 -18 -48 -5 -11 29 50 46 152 55 228
19z m-67 -91 c29 -20 50 -40 47 -44 -3 -5 -15 -2 -27 6 -54 35 -159 23 -210
-23 -19 -17 -19 -16 -12 18 9 43 22 59 60 77 41 18 80 9 142 -34z m8 -45 c32
-14 50 -59 35 -87 -15 -29 -55 -27 -94 6 -42 35 -93 55 -119 47 -20 -6 -21 -5
-6 11 39 40 123 51 184 23z m119 -3 c13 -35 -21 -63 -55 -45 -21 12 -26 46 -6
53 25 11 55 7 61 -8z m-684 -71 c12 -31 6 -44 -20 -44 -26 0 -45 36 -29 56 18
22 38 17 49 -12z m622 -69 c22 -48 -44 -78 -76 -34 -23 34 -7 54 47 58 10 0
22 -10 29 -24z m-414 -88 c4 -32 -16 -44 -47 -27 -24 12 -27 30 -9 48 22 22
53 10 56 -21z m-397 -56 c63 -67 70 -178 14 -231 -47 -44 -159 -15 -209 53
-60 81 14 217 118 217 33 0 45 -7 77 -39z m759 -61 c143 -50 184 -83 259 -200
61 -94 75 -153 67 -275 -8 -127 -22 -180 -80 -291 -80 -154 -176 -241 -315
-285 -141 -44 -334 -20 -422 53 -207 168 -268 294 -256 523 15 267 135 417
387 485 104 28 267 23 360 -10z m-1052 -15 c33 -36 48 -89 38 -128 -9 -39 -46
-78 -69 -75 -17 3 -24 20 -44 108 -22 98 -22 106 -6 118 28 20 49 14 81 -23z
m-81 -128 c-1 -4 -15 22 -31 59 -24 54 -27 67 -15 75 11 6 18 -6 31 -59 10
-37 16 -71 15 -75z m-229 113 c40 0 44 -2 59 -37 36 -88 -12 -183 -95 -183
-106 0 -171 123 -105 200 23 28 31 31 62 26 20 -3 55 -6 79 -6z m201 -91 c45
-107 45 -127 -3 -115 -14 3 -44 23 -66 45 -34 32 -40 44 -40 79 0 60 15 92 43
92 20 0 29 -14 66 -101z m-110 84 c0 -5 -3 -16 -7 -25 -6 -15 -9 -14 -19 7
-10 22 -9 25 8 25 10 0 19 -3 18 -7z m72 -193 c36 -19 38 -22 28 -47 -11 -29
5 -83 24 -83 5 0 3 -8 -6 -18 -23 -26 -22 -97 3 -136 20 -33 46 -50 92 -60 22
-5 27 -13 33 -47 8 -45 4 -54 -21 -45 -13 5 -15 15 -11 46 6 45 1 52 -12 18
-6 -15 -4 -34 4 -54 18 -43 4 -56 -39 -35 -28 13 -34 22 -34 47 0 41 -17 71
-43 79 -16 5 -19 12 -15 31 10 38 -13 105 -45 135 -17 16 -25 30 -19 34 21 13
11 82 -16 114 -24 29 -25 34 -14 61 l12 30 20 -25 c11 -14 37 -34 59 -45z
m329 39 c34 -13 65 -18 85 -15 27 5 33 3 43 -19 17 -38 15 -61 -10 -90 -23
-26 -40 -30 -115 -27 -48 2 -77 27 -86 72 -6 29 9 100 21 100 4 0 32 -9 62
-21z m-405 -80 c34 -66 -1 -129 -72 -129 -46 0 -76 19 -92 58 -19 46 -1 78 45
80 20 1 46 8 58 15 27 18 43 12 61 -24z m169 14 c19 -71 18 -82 -9 -89 -15 -4
-31 -2 -37 4 -16 16 -12 61 7 82 22 25 32 25 39 3z m54 -16 c15 -30 8 -67 -12
-67 -8 0 -17 21 -23 50 -9 45 -8 51 6 48 9 -2 22 -16 29 -31z m305 -94 c-3
-21 -10 -47 -14 -58 -8 -20 -8 -20 -8 0 -1 11 -8 30 -16 42 -15 21 -14 23 12
37 16 8 29 15 30 16 1 0 -1 -17 -4 -37z m-314 -91 c11 -52 21 -95 21 -98 0 -2
-10 -4 -23 -4 -50 0 -97 60 -97 124 0 26 7 40 31 61 18 14 35 22 39 18 4 -4
17 -50 29 -101z m51 93 c31 -16 33 -21 30 -95 -1 -44 -22 -90 -39 -90 -8 0
-51 163 -51 191 0 14 27 11 60 -6z m201 -14 c24 -24 29 -38 29 -77 0 -30 -6
-54 -17 -66 -36 -40 -142 -8 -164 48 -14 37 6 90 39 109 43 23 80 18 113 -14z
m-450 -21 c45 -25 65 -125 32 -162 -20 -22 -71 -24 -100 -3 -30 21 -48 82 -34
117 8 22 45 48 79 57 2 1 12 -4 23 -9z m528 -318 c26 -75 56 -125 109 -181
l39 -41 -31 0 c-17 0 -41 -3 -54 -6 -21 -6 -20 -8 17 -25 49 -22 66 -54 75
-144 9 -89 36 -146 89 -185 42 -31 121 -60 164 -60 29 0 29 -8 -3 -56 -52 -78
-101 -95 -198 -69 -67 18 -78 15 -41 -9 33 -22 32 -36 -3 -36 -30 0 -102 -44
-102 -62 0 -6 10 -2 23 9 46 42 97 54 138 33 30 -16 23 2 -13 33 -20 17 -25
26 -15 23 86 -28 151 -13 201 45 39 46 49 40 37 -25 -10 -56 -32 -91 -74 -117
-28 -17 -42 -19 -109 -14 -63 5 -83 3 -106 -11 -32 -18 -62 -62 -62 -90 0 -11
-3 -14 -9 -9 -8 8 -17 81 -20 158 -1 27 -38 57 -70 57 l-29 0 16 32 c43 87 15
202 -60 243 -30 17 -35 24 -27 38 14 24 2 57 -26 67 -22 8 -45 64 -31 77 3 4
6 -3 6 -14 0 -46 72 -60 78 -15 2 13 -1 29 -7 35 -7 9 -4 16 10 25 28 18 25
60 -6 74 -18 8 -28 8 -39 -1 -13 -11 -20 -9 -39 6 -31 24 -25 50 6 28 29 -20
47 -19 74 7 28 26 30 64 4 80 -18 11 -18 12 5 31 28 21 33 72 10 102 -12 16
-12 22 1 42 8 12 14 39 12 60 -1 21 4 53 12 72 14 33 14 32 20 -55 4 -49 17
-117 28 -152z m-196 168 c-13 -31 -15 -78 -4 -99 6 -11 9 -32 5 -45 l-6 -25
-23 27 c-18 21 -20 30 -11 44 13 21 -8 68 -34 76 -12 3 -12 1 1 -9 22 -18 31
-50 19 -69 -13 -20 -27 -4 -35 40 -5 29 -2 41 19 65 14 17 26 34 26 38 0 4 11
0 25 -10 15 -11 22 -24 18 -33z m121 -16 c11 -28 6 -61 -9 -74 -19 -16 -86
-21 -102 -8 -16 13 -17 70 -1 86 18 18 105 15 112 -4z m-364 -24 c29 -29 26
-76 -5 -96 -31 -21 -69 -12 -91 21 -20 30 -11 61 24 80 36 19 48 19 72 -5z
m345 -95 c44 -43 24 -105 -32 -105 -83 0 -83 121 0 129 4 1 19 -10 32 -24z
m-171 -59 c7 -30 11 -58 9 -60 -13 -13 -54 21 -64 52 -11 32 -10 37 11 54 13
10 25 17 27 14 2 -2 10 -29 17 -60z m41 33 c13 -24 14 -37 6 -62 l-11 -32 18
24 c15 18 20 20 25 9 3 -8 26 -24 50 -36 25 -12 48 -26 52 -32 10 -16 -4 -49
-25 -60 -42 -23 -82 25 -55 66 8 13 11 24 6 24 -6 0 -14 -7 -19 -16 -8 -14
-12 -14 -30 -3 -24 15 -37 43 -51 107 -11 52 10 59 34 11z m-152 10 c30 -16
37 -28 37 -66 0 -33 -21 -53 -56 -53 -51 0 -75 84 -32 114 27 19 24 19 51 5z
m106 -141 c-8 -14 -12 -13 -38 10 -39 37 -30 57 13 29 26 -17 32 -26 25 -39z
m-44 -3 c29 -28 32 -70 8 -97 -23 -25 -48 -22 -73 9 -23 30 -21 65 7 96 21 23
29 22 58 -8z m81 -52 c-10 -10 -26 9 -26 31 0 37 14 40 23 6 4 -18 6 -34 3
-37z m34 21 c0 -13 -4 -24 -10 -24 -5 0 -10 6 -10 13 0 6 -3 23 -7 37 -6 22
-5 24 10 11 9 -7 17 -24 17 -37z m-58 -67 c-27 -26 -30 -22 -24 31 l4 42 20
-26 21 -26 -21 -21z m47 -31 c16 -65 15 -71 -14 -52 -22 14 -25 15 -25 1 0 -8
-5 -15 -10 -15 -7 0 -7 7 0 21 7 11 9 27 6 36 -6 16 10 53 23 53 5 0 14 -20
20 -44z m41 24 c13 -25 9 -72 -6 -77 -7 -2 -15 12 -18 32 -4 20 -10 43 -13 51
-8 22 25 17 37 -6z m90 -31 c0 -25 -25 -35 -45 -19 -18 15 -20 47 -2 53 20 7
47 -12 47 -34z m251 15 c48 -20 99 -84 99 -126 0 -33 15 -37 24 -5 9 32 22 6
31 -63 9 -76 23 -119 52 -158 l25 -33 -29 7 c-89 21 -158 69 -183 128 -10 23
-21 73 -25 111 -8 80 -17 101 -53 132 -26 22 -27 23 -5 23 13 0 41 -7 64 -16z
m-448 -16 c14 -21 2 -48 -22 -48 -26 0 -41 48 -20 61 17 11 30 7 42 -13z
m1082 -64 c-25 -38 -55 -48 -112 -36 -43 9 -45 11 -23 18 14 4 52 22 85 39 65
33 81 27 50 -21z m-917 4 c22 -22 14 -48 -13 -48 -27 0 -41 20 -31 45 7 18 28
19 44 3z m406 -6 c2 -4 1 -14 -3 -21 -6 -9 -10 -7 -14 8 -5 20 7 29 17 13z
m-515 -16 c15 -18 3 -46 -20 -46 -22 0 -34 22 -25 45 7 19 30 19 45 1z m606
-11 c39 -8 90 -15 114 -15 l43 0 -30 -28 c-41 -39 -73 -105 -79 -168 -3 -30
-9 -54 -14 -54 -27 0 -79 101 -79 155 0 11 -6 44 -14 73 -7 29 -13 52 -12 52
1 0 33 -7 71 -15z m-511 -71 c3 -8 1 -25 -6 -37 l-12 -22 -7 25 c-4 14 -7 31
-8 38 -1 18 26 15 33 -4z m-40 -20 c8 -29 3 -39 -13 -29 -13 8 -15 55 -2 55 5
0 12 -12 15 -26z m7 -147 c-27 -44 -27 -77 0 -111 27 -34 64 -32 92 6 26 34
17 71 -27 112 -37 35 -56 86 -32 86 26 0 74 -50 92 -95 28 -75 -2 -185 -51
-185 -34 0 -90 52 -110 102 -19 49 -14 96 18 148 l21 34 9 -31 c8 -25 5 -38
-12 -66z m53 -126 c-8 -9 -38 15 -54 42 -13 23 -12 30 4 64 l19 38 18 -70 c10
-38 16 -72 13 -74z m-215 93 c35 -51 60 -131 61 -190 0 -98 -57 -241 -131
-324 l-31 -35 7 45 c20 141 35 271 46 398 7 78 15 142 18 142 3 0 17 -16 30
-36z m235 14 c18 -25 21 -65 7 -87 -7 -11 -12 -3 -21 30 -6 24 -13 52 -16 62
-7 24 12 21 30 -5z m-134 -75 c18 -20 39 -53 48 -72 20 -49 20 -128 -1 -170
-21 -43 -21 -44 2 -31 25 13 102 13 138 -1 42 -16 93 -68 119 -124 35 -74 32
-79 -28 -49 -137 70 -294 71 -405 2 l-32 -19 39 58 c21 32 51 94 65 138 23 67
26 92 23 155 -4 69 -10 87 -56 184 -9 18 56 -34 88 -71z m811 6 c99 -50 146
-127 153 -254 2 -44 8 -88 12 -99 16 -41 -60 22 -85 71 -6 12 -11 49 -11 82 0
33 -4 62 -9 66 -5 3 -19 -7 -30 -21 l-21 -27 0 30 c0 42 -39 112 -82 147 -21
16 -40 27 -43 24 -4 -3 10 -15 29 -27 41 -26 71 -71 80 -124 10 -52 2 -59 -47
-37 -23 11 -58 20 -78 20 l-37 0 15 42 c8 24 13 62 11 85 -2 31 1 44 12 47 26
7 93 -6 131 -25z m-682 -119 c0 -3 -10 -13 -23 -22 -24 -17 -24 -17 -34 22
l-9 38 33 -16 c18 -10 33 -19 33 -22z m115 -12 c22 -30 20 -66 -5 -107 -19
-31 -22 -33 -57 -25 -20 5 -56 8 -80 7 -46 -2 -45 -6 -26 57 6 24 36 52 78 77
34 20 73 16 90 -9z m623 -77 c-2 -92 43 -147 164 -196 13 -5 32 -27 43 -49 15
-31 17 -44 8 -72 -9 -29 -8 -34 6 -34 10 0 31 -9 49 -19 39 -24 51 -67 29
-108 -15 -29 -14 -30 20 -42 48 -17 68 -51 61 -104 l-6 -42 47 -19 c71 -29
173 -136 201 -210 23 -61 41 -216 25 -215 -5 0 -22 28 -39 62 -41 84 -168 212
-251 252 l-61 29 15 44 c12 35 12 52 3 82 -11 39 -52 80 -77 80 -17 0 -18 14
-4 41 9 15 6 24 -14 44 -14 14 -34 25 -46 25 -15 0 -20 6 -20 28 0 52 -59 102
-121 102 -35 0 -89 -31 -104 -61 -42 -81 7 -169 93 -169 27 0 31 -5 40 -43 6
-24 20 -51 31 -61 19 -18 22 -18 46 -2 14 9 25 22 25 29 0 6 8 2 18 -10 9 -12
35 -29 57 -38 21 -8 43 -21 47 -28 7 -11 11 -57 5 -57 -2 0 -43 9 -92 19 -50
11 -162 29 -250 41 -231 31 -260 38 -312 73 -95 64 -149 168 -158 309 -4 45
-13 98 -21 117 -47 109 17 212 122 196 l43 -6 -32 -45 c-60 -85 -37 -200 55
-278 119 -102 272 -51 301 99 3 17 2 37 -4 45 -9 16 -10 15 -13 -46 -3 -53
-38 -102 -93 -126 -57 -25 -107 -17 -171 26 -130 90 -125 290 9 326 21 6 51
22 67 35 32 27 66 31 123 15 47 -13 78 -48 86 -96 l6 -39 -24 22 c-29 26 -90
53 -120 53 -11 0 -35 -7 -53 -15 -123 -59 -57 -276 77 -251 37 7 87 40 87 58
0 5 -14 -2 -31 -16 -40 -34 -72 -41 -109 -26 -64 27 -97 117 -65 179 40 79
143 75 217 -8 l41 -46 -7 54 c-4 30 -12 63 -17 74 -9 15 -5 25 17 48 15 16 29
29 30 29 1 0 1 -27 1 -59z m-599 -79 l10 -42 -27 23 c-26 21 -27 23 -12 44 9
11 17 20 18 19 1 -1 6 -21 11 -44z m-56 -150 c31 -11 67 -27 80 -36 21 -15 19
-16 -47 -16 -60 0 -262 -12 -392 -24 -24 -2 -43 -1 -43 3 0 12 93 64 148 82
70 24 171 20 254 -9z m771 -143 c34 -36 38 -89 7 -89 -13 0 -20 7 -20 18 0 28
-44 64 -81 65 -64 3 -74 -80 -14 -119 24 -16 28 -16 42 -1 15 14 15 18 -1 42
-10 15 -21 23 -24 19 -4 -3 -1 -9 6 -11 17 -6 15 -43 -2 -43 -25 0 -46 30 -46
65 0 39 17 49 60 34 55 -20 67 -82 25 -124 -54 -55 -145 -9 -145 73 0 99 123
145 193 71z m-668 -39 c-66 -73 -320 -74 -478 -1 l-42 19 269 1 c267 1 269 1
251 -19z m-489 -93 c70 -136 83 -266 39 -384 -27 -70 -45 -99 -45 -72 0 8 -11
122 -25 253 -14 131 -25 252 -25 270 0 37 5 31 56 -67z m50 63 c136 -48 316
-51 404 -8 l48 24 -10 -25 c-22 -60 -89 -129 -156 -162 -47 -23 -135 -29 -170
-10 -27 14 -34 3 -18 -28 54 -104 5 -265 -96 -317 -17 -9 -32 -14 -34 -11 -2
2 8 31 23 63 21 44 28 79 31 138 5 103 -12 180 -64 283 -30 60 -37 82 -26 78
10 -4 40 -15 68 -25z m539 -124 c62 -81 141 -115 320 -136 127 -15 131 -16
115 -35 -7 -8 -28 -15 -47 -15 -28 0 -44 -9 -74 -39 -35 -35 -47 -66 -40 -105
1 -5 -19 -31 -45 -57 -26 -27 -49 -55 -50 -64 -1 -8 -17 -33 -34 -56 -18 -22
-54 -75 -80 -118 l-46 -78 -36 32 -36 33 115 92 c63 50 112 94 109 97 -3 3
-12 0 -20 -6 -12 -10 -16 -8 -21 11 -4 13 -14 30 -22 39 -12 15 -9 18 30 28
48 12 111 70 105 98 -9 45 -83 41 -94 -4 -5 -20 -2 -31 15 -44 21 -17 21 -18
4 -28 -36 -19 -87 -23 -107 -8 -19 14 -19 15 -2 42 10 16 30 39 45 53 l26 24
-26 -15 c-26 -16 -27 -15 -22 6 3 15 -2 11 -17 -13 l-21 -35 5 33 c4 20 2 31
-4 27 -6 -3 -10 -16 -10 -28 0 -20 0 -20 -16 -1 -15 19 -16 19 -8 -1 4 -11 9
-32 11 -46 4 -24 1 -28 -28 -34 -29 -7 -37 -3 -66 29 -37 40 -43 67 -14 59 25
-6 63 32 59 59 -4 29 -33 46 -55 32 -51 -31 -51 -102 -1 -160 l30 -34 -29 -24
c-15 -14 -33 -26 -38 -26 -6 0 -20 47 -31 104 -17 88 -18 108 -8 128 28 50 10
114 -37 130 -10 4 2 22 36 59 28 30 59 73 69 97 l19 42 22 -53 c12 -30 34 -70
50 -91z m673 64 c3 -17 -4 -31 -25 -47 l-28 -23 38 0 c53 0 97 -43 97 -95 l0
-36 -26 20 c-15 12 -35 21 -45 21 -20 0 -59 45 -59 69 -1 9 -7 1 -15 -17 -19
-43 -43 -52 -67 -23 -38 48 -10 144 47 160 44 11 79 -1 83 -29z m-896 -123
c-6 -7 -15 -23 -20 -36 -8 -22 -8 -22 -26 -2 -17 19 -17 20 11 35 35 19 49 20
35 3z m-124 -24 c44 -5 57 -12 82 -40 35 -39 40 -91 12 -116 -34 -31 -74 -39
-117 -24 -38 13 -39 15 -37 58 2 24 -4 66 -12 92 -13 45 -13 48 2 42 9 -4 41
-9 70 -12z m192 -54 c0 -27 -14 -47 -23 -32 -3 5 -8 31 -12 58 l-6 50 20 -24
c12 -13 21 -36 21 -52z m-43 6 c6 -35 6 -55 0 -55 -6 0 -5 -5 1 -12 6 -7 13
-59 17 -115 l8 -103 -33 0 c-27 0 -31 3 -24 18 16 37 16 103 0 121 -15 16 -14
21 3 57 17 35 18 41 4 67 -14 28 -11 77 6 77 4 0 12 -25 18 -55z m150 -56 c22
-22 -14 -73 -43 -62 -19 7 -18 38 2 57 18 19 26 20 41 5z m396 -74 c-43 -48
-59 -61 -62 -48 -8 41 56 112 102 113 13 0 3 -17 -40 -65z m57 9 c-14 -37 -37
-62 -73 -81 -48 -24 -42 -7 18 57 32 33 60 58 62 56 2 -2 -1 -16 -7 -32z
m-181 -18 c18 -22 -3 -56 -35 -56 -29 0 -40 21 -24 49 12 24 42 27 59 7z
m-459 -21 c0 -9 -7 -18 -16 -22 -18 -7 -39 11 -30 26 11 17 46 13 46 -4z m133
-265 c32 -76 31 -78 -10 -89 -21 -6 -41 -11 -45 -11 -5 0 -8 75 -7 168 l0 167
24 -100 c13 -55 30 -116 38 -135z m186 159 c57 -57 39 -66 -84 -40 -84 18 -88
20 -62 30 43 17 69 14 122 -15 35 -18 45 -21 34 -8 -19 23 -71 44 -109 44 -18
0 -29 4 -25 10 3 6 26 10 50 10 35 0 49 -6 74 -31z m295 -57 c-15 -24 -52 -28
-61 -6 -4 11 1 23 17 36 21 17 25 17 39 3 12 -12 13 -19 5 -33z m-556 -61 c2
-47 1 -99 -2 -117 l-7 -32 -80 -7 c-44 -4 -83 -4 -86 -1 -4 3 33 46 80 95 48
49 87 92 87 97 0 5 -43 -37 -96 -93 -53 -57 -100 -103 -106 -103 -5 0 35 47
89 106 118 127 124 136 83 124 -48 -14 -111 -53 -132 -81 -11 -14 -25 -47 -33
-75 -13 -49 -13 -49 -14 -13 -1 22 10 58 27 90 34 66 87 100 147 97 l40 -3 3
-84z m202 61 c52 -10 93 -23 90 -28 -3 -5 -9 -8 -15 -7 -91 16 -225 48 -225
54 0 5 12 6 28 3 15 -2 70 -13 122 -22z m8 -33 c28 -6 52 -14 52 -18 0 -7
-108 -97 -136 -114 -11 -6 -64 116 -64 147 0 14 15 12 148 -15z m-296 -26
c-22 -27 -56 -63 -76 -82 l-36 -35 9 31 c15 50 30 72 73 103 62 45 76 37 30
-17z m488 -13 c77 -39 95 -99 53 -180 -15 -30 -34 -56 -41 -58 -7 -2 -1 13 13
33 37 56 34 108 -9 151 -19 19 -41 34 -50 34 -8 0 -20 9 -26 20 -14 27 8 27
60 0z m-17 -249 c-8 -10 -15 12 -34 100 -32 153 -31 162 5 29 18 -69 31 -127
29 -129z m-47 105 c9 -48 15 -89 12 -91 -6 -6 -138 45 -138 54 0 6 39 74 80
138 14 21 15 22 22 4 3 -10 14 -58 24 -105z m54 97 c37 -25 49 -45 50 -78 0
-27 -36 -103 -45 -94 -4 5 -45 164 -45 178 0 15 12 14 40 -6z m-752 -20 c-2
-10 -10 -18 -18 -18 -8 0 -16 8 -18 18 -2 12 3 17 18 17 15 0 20 -5 18 -17z
m-214 -24 c30 -23 36 -53 9 -45 -10 3 -36 8 -58 12 -53 9 -57 12 -45 35 14 25
60 25 94 -2z m728 -66 l36 -38 -15 -52 c-15 -51 -16 -52 -74 -72 l-58 -20 -31
39 c-30 38 -35 68 -21 120 5 17 20 30 51 42 63 24 72 23 112 -19z m-770 21
c21 -4 35 -10 32 -15 -8 -14 -58 -10 -80 6 -22 17 -12 19 48 9z m598 -26 c0
-25 -21 -88 -29 -88 -5 0 -24 6 -42 14 -19 7 -101 26 -183 42 l-150 29 190 5
c104 3 195 7 202 8 6 1 12 -4 12 -10z m-411 -42 c15 -18 3 -46 -19 -46 -22 0
-30 19 -18 43 11 21 22 22 37 3z m826 -66 l190 -71 -135 6 c-130 6 -269 21
-278 30 -3 3 2 23 23 93 3 6 6 12 7 12 2 0 89 -32 193 -70z m250 49 c9 -26
-20 -59 -52 -59 -18 0 -23 5 -23 24 0 41 11 56 40 56 20 0 31 -6 35 -21z
m-873 -54 c4 -33 9 -80 13 -105 l5 -44 -35 34 c-41 40 -45 72 -15 130 25 48
18 53 -10 8 -11 -18 -20 -50 -20 -72 0 -32 7 -45 40 -79 51 -51 45 -60 -9 -12
-66 60 -75 131 -24 187 30 33 47 18 55 -47z m32 38 c7 -26 11 -191 4 -198 -3
-3 -8 23 -12 57 -4 35 -9 84 -13 111 -3 30 -2 47 5 47 6 0 13 -8 16 -17z
m-610 -151 c20 -39 60 -58 93 -43 27 12 41 -3 23 -24 -46 -55 -161 65 -159
165 1 33 2 32 13 -15 7 -27 20 -65 30 -83z m952 50 c-7 -22 -25 -280 -27 -387
l-2 -80 -8 70 c-5 39 -16 129 -25 200 -8 72 -17 144 -20 161 -5 28 -2 33 23
42 45 17 65 15 59 -6z m122 2 c15 -4 -9 -38 -88 -124 l-41 -45 6 60 c3 33 9
75 12 93 5 33 6 33 52 27 25 -4 52 -8 59 -11z m547 2 c24 -10 35 -22 35 -35 0
-26 -1 -26 -106 0 -69 18 -82 24 -73 35 15 19 100 18 144 0z m-523 -43 c-32
-40 -167 -172 -141 -138 40 53 153 175 161 175 5 0 -4 -17 -20 -37z m65 -30
c-11 -68 -89 -139 -168 -153 -60 -11 -55 4 6 24 92 29 145 88 145 163 1 32 2
35 11 19 6 -10 9 -34 6 -53z m-296 -28 c7 -47 10 -87 7 -90 -7 -7 -189 32
-200 43 -7 7 153 128 173 131 4 1 13 -37 20 -84z m253 0 c-16 -35 -70 -74
-123 -90 -19 -6 -5 14 55 80 64 71 80 83 82 66 2 -11 -4 -36 -14 -56z m439 47
c75 -19 87 -31 45 -46 -22 -8 -38 -5 -78 14 -102 48 -86 63 33 32z m-196 -38
c8 -20 -24 -64 -47 -64 -26 0 -35 36 -16 65 17 25 53 24 63 -1z m-705 -98 c6
6 167 -40 206 -59 22 -10 22 -12 6 -24 -27 -19 -99 -26 -139 -13 -41 14 -105
72 -105 97 0 12 3 13 13 4 8 -6 16 -8 19 -5z m-209 -20 c7 -17 -11 -36 -35
-36 -18 0 -25 29 -11 43 11 12 41 8 46 -7z m127 -127 c0 -28 -29 -52 -46 -38
-19 15 -18 44 2 64 19 19 44 4 44 -26z m-172 -20 c-23 -28 -51 -61 -60 -73
-17 -21 -18 -21 -18 14 0 58 44 109 93 110 l29 0 -44 -51z m36 -25 c-21 -41
-65 -79 -84 -72 -7 2 9 27 40 61 29 32 55 56 57 53 3 -3 -3 -22 -13 -42z m631
13 c8 -24 6 -31 -9 -42 -10 -8 -24 -11 -32 -8 -17 6 -29 47 -20 69 10 25 49
13 61 -19z m-227 -69 c4 -33 -30 -57 -54 -37 -18 15 -18 28 3 51 23 25 47 19
51 -14z m71 -128 l1 -44 -22 22 c-26 25 -29 79 -8 127 l13 30 8 -45 c4 -25 8
-65 8 -90z m61 98 c26 -43 26 -102 0 -128 -34 -34 -40 -24 -40 70 0 98 8 110
40 58z"/>
<path d="M2612 6401 c4 -13 18 -16 19 -4 0 4 -5 9 -11 12 -7 2 -11 -2 -8 -8z"/>
<path d="M2450 6314 c0 -9 5 -14 12 -12 18 6 21 28 4 28 -9 0 -16 -7 -16 -16z"/>
<path d="M1387 6414 c-13 -13 -7 -42 10 -48 23 -9 40 10 27 31 -12 20 -27 26
-37 17z m24 -27 c-1 -12 -15 -9 -19 4 -3 6 1 10 8 8 6 -3 11 -8 11 -12z"/>
<path d="M2495 6449 c-10 -15 3 -25 16 -12 7 7 7 13 1 17 -6 3 -14 1 -17 -5z"/>
<path d="M2725 6360 c3 -5 10 -10 16 -10 5 0 9 5 9 10 0 6 -7 10 -16 10 -8 0
-12 -4 -9 -10z"/>
<path d="M2695 6230 c-3 -5 1 -10 9 -10 9 0 16 5 16 10 0 6 -4 10 -9 10 -6 0
-13 -4 -16 -10z"/>
<path d="M2020 6233 c-72 -11 -166 -36 -192 -49 -88 -45 -174 -155 -223 -285
-47 -123 -58 -207 -38 -296 49 -217 204 -379 401 -422 73 -15 179 -14 238 4
105 31 275 179 316 275 31 72 58 188 58 252 0 105 -79 293 -162 383 -92 101
-263 160 -398 138z m3 -90 c7 -90 32 -175 58 -199 49 -44 150 29 210 151 21
43 36 62 45 58 18 -7 18 -15 -5 -55 -10 -18 -53 -95 -96 -170 l-77 -138 -46 0
-47 0 -49 183 c-68 254 -68 240 -10 246 7 1 13 -29 17 -76z m211 57 c36 -11
67 -24 70 -28 3 -5 -7 -34 -21 -65 -28 -61 -53 -74 -73 -36 -7 13 -19 19 -33
17 -12 -1 -28 1 -35 6 -8 5 -18 4 -24 -2 -8 -8 -17 -8 -30 -1 -13 7 -23 7 -32
0 -11 -9 -15 -3 -20 26 -3 21 -6 53 -6 71 l0 32 69 0 c41 0 95 -8 135 -20z
m-237 -195 c28 -104 52 -197 52 -207 1 -9 -15 -25 -34 -36 l-34 -21 -98 71
c-125 90 -223 168 -223 176 0 4 4 13 9 21 7 11 19 6 56 -27 101 -89 165 -118
203 -93 38 24 31 157 -13 257 l-24 55 27 -3 c26 -3 28 -8 79 -193z m-92 133
c14 -29 25 -57 25 -63 0 -11 -46 -35 -67 -35 -8 0 -16 -7 -20 -16 -3 -8 -17
-20 -30 -25 -13 -5 -22 -13 -19 -18 3 -5 -1 -12 -10 -15 -17 -6 -94 50 -94 68
0 27 150 154 183 156 4 0 19 -24 32 -52z m504 -41 c9 -12 -1 -27 -57 -83 -103
-104 -119 -179 -45 -211 42 -17 84 -13 174 18 33 12 63 18 66 15 10 -10 7 -11
-167 -64 l-165 -51 -22 27 c-12 15 -22 30 -23 34 0 3 32 62 71 130 39 67 82
144 95 171 26 49 41 52 73 14z m-299 -29 c0 7 9 12 20 12 12 0 20 -7 20 -17 0
-15 1 -15 13 2 18 23 37 12 37 -22 0 -22 2 -24 15 -13 9 7 18 10 22 7 10 -11
-72 -85 -102 -93 -23 -6 -33 -2 -51 20 -29 33 -41 91 -24 111 11 14 15 14 31
-1 11 -10 19 -12 19 -6z m349 -41 c11 -18 33 -63 50 -100 l31 -68 -43 -19
c-57 -26 -66 -25 -74 11 -3 17 -12 33 -19 36 -8 3 -12 9 -9 13 3 5 1 11 -5 15
-5 3 -10 17 -10 29 0 13 -10 30 -22 38 -22 15 -22 15 21 46 24 18 47 32 52 32
4 0 16 -15 28 -33z m-521 -39 c5 -100 -24 -120 -105 -73 -41 25 -61 54 -27 41
12 -5 14 -1 9 16 -6 18 -4 20 14 15 15 -4 21 -1 21 12 0 25 10 32 31 20 16 -8
19 -6 19 11 0 15 5 20 18 18 13 -2 18 -15 20 -60z m-150 -121 c75 -56 148
-109 162 -118 21 -14 23 -18 11 -33 -7 -9 -16 -30 -20 -48 -7 -32 -7 -32 -176
-80 -93 -26 -170 -47 -171 -45 -1 1 -5 18 -9 37 l-6 35 57 3 c119 6 188 64
163 139 -15 46 -70 107 -126 140 -23 13 -43 29 -43 33 0 13 12 40 17 40 2 0
66 -46 141 -103z m575 70 c-1 -15 2 -27 8 -27 5 0 9 -6 9 -14 0 -8 6 -16 13
-19 8 -3 14 -19 15 -35 0 -24 -4 -31 -23 -34 -67 -13 -124 25 -111 74 12 48
46 89 69 86 17 -2 22 -9 20 -31z m-692 -52 c22 -14 37 -29 35 -34 -26 -41 -57
-169 -44 -177 4 -3 8 -14 8 -25 0 -16 -7 -19 -51 -19 l-52 0 5 83 c5 71 39
197 54 197 2 0 22 -11 45 -25z m93 -83 c37 -54 35 -102 -5 -136 -17 -14 -41
-26 -55 -26 -25 0 -33 15 -11 23 7 3 5 6 -5 6 -13 1 -17 9 -15 31 1 16 5 30 9
30 4 0 5 14 2 30 -6 25 -3 30 13 30 16 0 19 5 15 25 -7 38 21 31 52 -13z m796
-9 c0 -10 3 -28 6 -40 6 -22 3 -23 -43 -23 -87 0 -197 -45 -226 -91 -16 -25 1
-70 39 -106 20 -18 33 -33 31 -33 -3 0 -41 25 -85 55 l-80 55 6 47 c2 27 5 49
6 49 3 4 323 103 334 103 6 1 12 -7 12 -16z m-420 -27 c0 -22 -15 -27 -45 -16
-33 12 -24 30 16 30 19 0 29 -5 29 -14z m-80 -9 c0 -17 -47 -40 -55 -27 -3 5
7 16 22 24 35 19 33 19 33 3z m125 -18 c8 -25 6 -27 -26 -33 -13 -2 -24 -5
-24 -7 0 -1 -10 -3 -22 -4 -14 -1 -23 5 -27 18 -6 26 -3 29 17 21 9 -3 13 -12
10 -20 -4 -10 0 -12 11 -8 9 3 16 14 16 23 0 36 35 43 45 10z m-111 -25 c4 -9
5 -19 2 -21 -8 -8 -47 18 -41 28 10 15 32 11 39 -7z m-79 -26 c-7 -31 -20 -47
-37 -48 -12 0 -10 25 4 55 17 38 41 33 33 -7z m570 -25 c-8 -64 -41 -179 -54
-187 -4 -3 -30 2 -58 11 -45 14 -49 18 -45 42 3 14 13 40 22 56 22 39 31 87
20 105 -12 20 11 28 74 29 l48 1 -7 -57z m-516 23 c9 -11 6 -15 -15 -20 -31
-8 -37 -5 -28 18 8 20 28 21 43 2z m151 -13 c0 -16 -4 -35 -10 -43 -9 -15 -8
-17 -25 36 -6 20 2 34 21 34 9 0 14 -10 14 -27z m237 16 c16 -16 4 -39 -21
-40 -20 0 -20 -1 2 -10 29 -11 20 -29 -16 -30 -27 0 -27 0 -4 -11 30 -15 28
-28 -5 -28 -25 0 -26 -1 -8 -14 25 -18 13 -51 -14 -37 -31 17 -71 71 -71 97 0
18 12 31 53 54 57 33 68 35 84 19z m-287 -24 c0 -23 -2 -24 -20 -13 -25 16
-25 25 -2 31 9 3 18 5 20 6 1 0 2 -10 2 -24z m-85 -24 c-17 -35 -33 -47 -45
-35 -24 25 -6 46 58 63 1 1 -4 -12 -13 -28z m35 -38 c0 -24 -7 -27 -34 -17
-14 6 -14 9 1 35 18 31 33 23 33 -18z m31 36 c16 -8 18 -13 8 -25 -17 -20 -26
-17 -31 11 -6 28 -4 29 23 14z m-129 -24 c6 -14 15 -25 20 -25 5 0 4 -9 -2
-20 -13 -25 -34 -16 -53 23 -12 24 -13 33 -4 39 20 13 27 9 39 -17z m-51 -17
c6 -13 20 -32 30 -43 18 -20 17 -23 -71 -155 -50 -74 -93 -136 -97 -137 -5 -2
-18 5 -31 15 l-22 17 26 35 c56 76 86 152 73 188 -7 19 -15 22 -70 22 -33 0
-88 -7 -121 -16 -54 -14 -81 -13 -66 1 7 7 298 92 320 94 10 0 23 -9 29 -21z
m214 -22 c-19 -28 -30 -32 -40 -15 -4 6 3 21 16 35 29 31 47 16 24 -20z m178
-78 c70 -49 127 -93 127 -97 0 -4 -9 -16 -20 -26 -19 -17 -21 -16 -69 24 -52
44 -88 48 -75 8 5 -17 3 -19 -19 -15 -20 4 -23 1 -19 -15 4 -17 1 -19 -16 -15
-17 5 -21 2 -19 -16 3 -30 -25 -27 -34 4 -18 64 -5 140 24 140 7 0 30 -12 50
-26 21 -14 41 -24 44 -21 8 9 -71 57 -94 57 -34 0 -46 -34 -40 -111 5 -60 50
-180 63 -167 2 2 -5 22 -16 44 -17 32 -18 40 -6 44 7 3 26 20 42 38 16 17 34
32 41 32 7 0 13 9 13 20 0 29 12 25 60 -18 l43 -38 -49 -43 c-51 -45 -140
-101 -161 -101 -7 0 -13 8 -13 18 0 9 -15 83 -33 163 l-33 147 31 34 c16 19
35 32 40 29 6 -2 67 -45 138 -93z m-231 58 c11 -16 -1 -26 -32 -26 -46 0 -61
9 -50 31 8 14 17 17 43 12 17 -3 35 -11 39 -17z m-264 -57 c2 -15 -6 -47 -18
-72 -17 -35 -25 -44 -41 -40 -23 7 -24 21 -2 45 16 18 16 18 0 12 -26 -9 -52
3 -39 19 8 9 6 16 -9 25 -17 11 -18 16 -8 28 9 11 27 14 63 12 47 -3 51 -5 54
-29z m282 -9 c22 -79 63 -290 58 -296 -4 -3 -24 -8 -45 -11 l-38 -5 3 72 c6
123 -24 200 -77 200 -34 0 -108 -80 -145 -158 -19 -40 -33 -59 -42 -55 -8 3
-14 9 -14 14 0 5 40 69 89 142 l88 132 57 0 c56 0 56 0 66 -35z m-415 20 c-3
-5 -1 -17 4 -27 5 -10 17 -35 26 -56 9 -21 23 -41 31 -44 20 -7 18 -27 -6 -54
l-20 -24 -41 45 c-23 25 -54 68 -70 95 l-29 50 38 12 c46 14 75 16 67 3z m748
-39 c44 -15 46 -18 34 -35 -13 -18 -16 -17 -70 19 -81 54 -78 55 36 16z m-409
-37 c30 -12 59 -178 41 -234 -8 -25 -41 -26 -133 -5 -99 23 -102 25 -73 80 18
34 28 44 40 39 9 -3 21 -7 26 -8 6 -1 17 -6 25 -11 21 -13 68 -16 75 -5 3 5
13 6 23 3 16 -5 16 -5 0 13 -17 18 -18 18 -31 -1 -14 -17 -15 -18 -24 0 -7 12
-13 14 -17 6 -10 -15 -26 -14 -26 3 0 9 -8 12 -25 8 -38 -7 -32 21 16 73 41
45 53 50 83 39z"/>
<path d="M3292 6086 c1 -10 8 -17 13 -17 15 1 12 24 -3 29 -9 3 -13 -2 -10
-12z"/>
<path d="M3221 5417 c-12 -15 -5 -27 16 -27 7 0 13 9 13 20 0 23 -13 26 -29 7z"/>
<path d="M3430 5996 c0 -8 4 -17 9 -20 11 -7 33 18 24 27 -12 12 -33 7 -33 -7z"/>
<path d="M3287 5724 c-15 -15 -7 -45 11 -42 9 2 17 12 17 22 0 20 -16 31 -28
20z m23 -18 c0 -3 -4 -8 -10 -11 -5 -3 -10 -1 -10 4 0 6 5 11 10 11 6 0 10 -2
10 -4z"/>
<path d="M3235 5559 c-10 -15 1 -23 20 -15 9 3 13 10 10 16 -8 13 -22 13 -30
-1z"/>
<path d="M2507 5108 c-6 -22 8 -58 22 -58 18 0 33 31 27 55 -8 31 -41 34 -49
3z m37 -4 c7 -18 0 -34 -15 -34 -5 0 -9 11 -9 25 0 28 15 34 24 9z"/>
<path d="M3085 5099 c-76 -11 -163 -54 -243 -119 -105 -86 -138 -179 -130
-372 4 -111 5 -117 47 -200 87 -173 147 -225 290 -254 124 -24 181 -16 304 44
109 53 174 108 207 173 31 60 60 178 66 269 11 149 -29 254 -136 362 -47 46
-68 60 -124 77 -80 25 -198 33 -281 20z m34 -104 c7 -52 9 -99 6 -105 -4 -6
-2 -16 3 -23 5 -7 12 -40 15 -74 l7 -62 -82 51 c-45 28 -113 70 -150 94 -38
24 -71 44 -74 44 -7 0 41 -84 118 -209 33 -51 58 -95 56 -96 -2 -1 -36 -10
-77 -20 l-74 -18 -19 24 c-11 13 -33 53 -50 88 -60 124 -39 229 56 272 75 34
158 20 226 -38 22 -19 40 -30 40 -25 0 17 -57 59 -104 77 -27 11 -63 16 -94
14 -28 -2 -48 -1 -46 3 9 15 99 63 149 80 83 29 81 30 94 -77z m211 84 c27 -6
50 -14 50 -18 0 -4 -21 -13 -47 -20 -63 -16 -138 -65 -167 -108 l-23 -34 -7
58 c-4 32 -9 75 -13 96 l-6 37 81 0 c45 0 104 -5 132 -11z m90 -39 c46 -25 66
-200 31 -275 -23 -51 -50 -75 -96 -85 l-37 -8 7 36 c4 21 27 97 51 171 24 74
42 136 40 138 -2 2 -23 -20 -47 -49 -24 -29 -79 -93 -124 -142 -80 -89 -80
-89 -86 -60 -29 132 22 211 170 261 78 27 68 25 91 13z m158 -179 c14 -30 27
-73 30 -97 4 -38 2 -44 -14 -45 -11 0 -53 -6 -94 -12 l-76 -13 28 51 c43 78
45 123 12 250 -9 37 88 -78 114 -134z m-223 -4 c-19 -59 -37 -123 -41 -142 -8
-43 -6 -42 -88 -59 l-66 -14 0 35 c0 30 12 49 83 127 45 50 95 108 112 128 16
20 30 36 32 35 1 -2 -13 -51 -32 -110z m-319 -69 c113 -69 114 -70 114 -108 0
-42 -5 -45 -71 -55 l-44 -6 -61 98 c-34 54 -72 116 -85 138 l-24 40 29 -18
c15 -11 79 -50 142 -89z m-265 -65 c11 -34 33 -80 50 -102 16 -23 29 -43 29
-45 0 -5 -94 -26 -115 -26 -12 0 -15 17 -15 83 0 86 22 224 28 177 2 -14 12
-53 23 -87z m844 -89 c-7 -82 -37 -200 -60 -243 -14 -25 -14 -25 -15 26 0 29
-9 76 -20 105 -20 54 -87 154 -96 145 -3 -3 10 -26 29 -51 52 -67 80 -149 75
-219 -2 -31 -10 -63 -16 -69 -17 -17 -129 -22 -195 -8 -31 6 -71 21 -89 33
-27 19 -34 31 -41 76 -5 29 -6 55 -3 59 7 7 96 -35 223 -104 51 -29 93 -50 93
-49 0 2 -27 48 -59 103 -33 55 -74 127 -90 161 -34 67 -35 65 44 76 22 3 72
12 110 19 125 25 118 28 110 -60z m-291 -11 c10 -21 45 -84 77 -140 32 -57 59
-105 59 -108 0 -2 -65 28 -145 68 l-144 72 -7 53 c-3 29 -4 56 -1 59 4 3 35
11 69 18 35 7 66 13 69 14 3 0 13 -16 23 -36z m-177 -125 c-7 -3 -59 -45 -117
-91 -58 -47 -106 -83 -108 -82 -2 2 6 22 18 46 12 23 39 85 61 138 l38 96 53
10 53 11 7 -61 c5 -43 4 -62 -5 -67z m-127 97 c0 -10 -60 -154 -99 -238 l-40
-88 37 31 c141 117 235 189 242 185 4 -2 10 -28 14 -56 7 -48 5 -54 -21 -81
-15 -17 -49 -40 -74 -53 -50 -26 -167 -52 -192 -42 -43 16 -69 221 -35 282 13
25 27 33 85 47 78 19 83 20 83 13z m-186 -72 c-17 -49 -17 -116 0 -182 11 -43
11 -50 0 -39 -25 26 -105 191 -102 211 3 19 32 31 109 46 4 0 1 -16 -7 -36z
m384 -365 c-44 -28 -295 27 -322 71 -3 4 19 11 49 15 76 9 155 40 201 80 l39
34 23 -96 c17 -75 20 -97 10 -104z m71 160 c41 -15 75 -19 133 -16 l79 3 -28
-23 c-31 -26 -199 -112 -219 -112 -7 0 -19 32 -29 73 -9 39 -19 81 -22 91 -4
15 -2 18 13 11 11 -4 43 -17 73 -27z"/>
<path d="M1935 5034 c-8 -9 -15 -22 -15 -29 0 -20 28 -45 45 -39 29 12 29 66
0 78 -8 3 -21 -2 -30 -10z m35 -29 c0 -15 -6 -25 -14 -25 -16 0 -25 19 -18 38
8 22 32 13 32 -13z"/>
<path d="M2490 4706 c0 -32 18 -43 38 -23 13 13 13 19 2 31 -19 24 -40 19 -40
-8z m30 -1 c0 -8 -4 -15 -10 -15 -5 0 -10 7 -10 15 0 8 5 15 10 15 6 0 10 -7
10 -15z"/>
<path d="M2078 4675 c-9 -19 -9 -28 0 -37 18 -18 46 13 37 41 -9 28 -23 27
-37 -4z m22 -10 c0 -8 -4 -15 -10 -15 -5 0 -7 7 -4 15 4 8 8 15 10 15 2 0 4
-7 4 -15z"/>
<path d="M2500 4426 c-10 -13 -10 -19 0 -32 12 -14 15 -14 29 0 14 15 14 17 0
32 -14 14 -17 14 -29 0z m20 -16 c0 -5 -5 -10 -11 -10 -5 0 -7 5 -4 10 3 6 8
10 11 10 2 0 4 -4 4 -10z"/>
<path d="M2232 4393 c5 -26 38 -29 38 -4 0 15 -6 21 -21 21 -14 0 -19 -5 -17
-17z m28 -3 c0 -5 -2 -10 -4 -10 -3 0 -8 5 -11 10 -3 6 -1 10 4 10 6 0 11 -4
11 -10z"/>
<path d="M2582 3558 c3 -25 36 -37 48 -17 13 20 0 39 -27 39 -20 0 -24 -4 -21
-22z m38 -3 c0 -8 -7 -15 -15 -15 -8 0 -15 7 -15 15 0 8 7 15 15 15 8 0 15 -7
15 -15z"/>
<path d="M2792 2679 c2 -6 8 -10 13 -10 5 0 11 4 13 10 2 6 -4 11 -13 11 -9 0
-15 -5 -13 -11z"/>
<path d="M2940 2640 c0 -11 4 -20 9 -20 11 0 22 26 14 34 -12 12 -23 5 -23
-14z"/>
<path d="M3422 3021 c-18 -11 -11 -45 9 -49 9 -2 19 5 23 14 8 22 -14 46 -32
35z m18 -27 c0 -8 -4 -12 -10 -9 -5 3 -10 10 -10 16 0 5 5 9 10 9 6 0 10 -7
10 -16z"/>
<path d="M2495 2800 c-4 -7 -3 -16 3 -22 14 -14 47 -6 47 12 0 18 -40 26 -50
10z m37 -12 c-9 -9 -15 -9 -24 0 -9 9 -7 12 12 12 19 0 21 -3 12 -12z"/>
<path d="M2520 1911 c0 -6 19 -24 42 -41 33 -24 51 -30 92 -30 28 0 58 5 66
10 10 7 0 8 -32 4 -61 -8 -90 0 -133 37 -19 17 -35 26 -35 20z"/>
<path d="M2200 6846 c-16 -20 -9 -60 11 -64 18 -3 40 43 32 66 -6 16 -28 15
-43 -2z m30 -20 c0 -27 -15 -42 -25 -26 -8 13 3 50 16 50 5 0 9 -11 9 -24z"/>
<path d="M2132 6838 c-15 -15 -16 -104 -1 -113 17 -11 49 26 49 57 0 31 -15
68 -28 68 -5 0 -13 -5 -20 -12z m34 -34 c7 -28 -9 -74 -26 -74 -11 0 -14 83
-3 93 13 13 23 7 29 -19z"/>
<path d="M1103 6684 c-3 -8 2 -23 11 -32 15 -15 17 -15 33 0 13 14 14 20 3 32
-16 20 -39 20 -47 0z m37 -14 c0 -13 -5 -18 -15 -14 -8 4 -15 12 -15 20 0 8 7
14 15 14 8 0 15 -9 15 -20z"/>
<path d="M1160 6625 c0 -3 11 -23 24 -44 39 -61 106 -105 106 -68 0 17 -34 66
-58 82 -24 17 -72 37 -72 30z m68 -41 c12 -8 29 -29 38 -45 l15 -30 -28 15
c-27 14 -73 76 -56 76 5 0 19 -7 31 -16z"/>
<path d="M1892 3867 c-16 -17 -22 -36 -22 -70 l0 -47 -63 0 c-48 0 -76 -6
-114 -25 -89 -45 -89 -47 2 -133 130 -123 326 -291 387 -333 l57 -39 5 32 c2
18 17 153 31 300 15 147 29 277 32 288 5 17 1 20 -33 20 -44 0 -97 -28 -114
-61 -12 -21 -13 -20 -30 19 -18 41 -61 72 -98 72 -10 0 -28 -10 -40 -23z m98
-16 c36 -36 46 -72 31 -121 -6 -20 -11 -47 -11 -60 0 -21 -4 -19 -47 19 -27
23 -56 48 -65 56 -25 21 -24 89 2 115 28 28 57 25 90 -9z m154 -48 c-89 -116
-126 -267 -95 -383 l10 -35 -17 25 c-105 152 -219 237 -360 265 -40 8 -35 17
23 44 107 50 218 15 299 -94 14 -19 15 -17 16 26 0 87 80 199 141 199 16 0 13
-7 -17 -47z m21 -216 c-14 -130 -25 -252 -25 -272 0 -19 -4 -35 -9 -35 -4 0
-23 32 -41 71 -56 122 -51 238 15 370 25 48 74 113 82 106 2 -2 -8 -110 -22
-240z m-451 68 c123 -21 292 -181 385 -364 14 -26 17 -40 9 -35 -89 52 -496
420 -453 410 11 -2 38 -7 59 -11z"/>
<path d="M1947 3794 c-12 -12 -8 -42 6 -47 21 -8 39 8 35 29 -3 19 -29 30 -41
18z m33 -25 c0 -5 -7 -9 -15 -9 -15 0 -20 12 -9 23 8 8 24 -1 24 -14z"/>
<path d="M1586 3579 c-35 -28 -56 -70 -56 -114 0 -31 -3 -35 -25 -35 -66 0
-95 -60 -58 -117 l17 -26 -29 7 c-33 8 -103 52 -122 76 -9 12 -36 15 -139 13
-136 -3 -230 13 -417 72 -85 27 -147 31 -189 12 l-27 -12 87 -148 c48 -81 133
-213 190 -292 l102 -145 158 125 c168 134 392 298 399 292 13 -13 -31 -56
-211 -205 -110 -92 -229 -189 -263 -216 l-63 -49 34 -36 c19 -20 122 -126 231
-236 178 -181 196 -203 191 -228 -7 -34 7 -72 29 -81 23 -8 52 9 61 36 6 20 9
17 21 -24 13 -46 51 -88 79 -88 16 0 19 -16 4 -25 -26 -16 15 -133 50 -142 27
-7 44 -61 25 -80 -8 -8 -15 -20 -15 -27 0 -17 36 -49 48 -42 5 3 16 -19 26
-50 15 -49 16 -56 2 -76 -20 -28 -20 -52 -1 -68 22 -18 19 -23 -25 -50 -51
-32 -81 -91 -88 -176 -5 -62 -6 -64 -23 -48 -26 23 -42 78 -34 115 4 17 23 65
43 107 46 96 51 157 24 249 -26 85 -70 145 -130 180 -81 46 -94 59 -77 73 21
18 18 52 -8 91 -30 45 -69 59 -97 34 -26 -23 -25 -36 3 -63 12 -11 40 -39 62
-62 22 -23 48 -46 58 -51 43 -25 81 -189 43 -189 -8 0 -16 7 -20 15 -9 24 -36
18 -36 -8 0 -30 18 -47 50 -47 43 0 63 30 59 88 -3 29 0 48 5 44 5 -3 6 3 3
14 -5 12 2 8 18 -11 41 -49 68 -131 69 -210 0 -60 -4 -79 -31 -130 -17 -33
-37 -80 -44 -105 -7 -25 -18 -53 -25 -63 -10 -16 -12 -15 -24 13 -18 43 -8
121 24 181 14 29 25 54 23 56 -3 2 -20 -12 -40 -32 -28 -28 -43 -35 -74 -35
-81 0 -150 81 -140 164 3 23 8 50 12 61 6 16 5 18 -5 8 -7 -6 -15 -34 -18 -62
-9 -101 63 -188 151 -179 23 3 50 8 59 12 17 8 17 6 2 -30 -20 -47 -21 -108
-4 -156 13 -36 13 -39 -15 -68 -16 -16 -32 -30 -36 -30 -4 0 -12 14 -18 32
-14 39 -23 33 -12 -8 18 -67 -12 -117 -110 -184 -62 -43 -85 -82 -76 -134 3
-19 0 -39 -6 -45 -15 -15 -19 -129 -6 -162 8 -22 5 -43 -15 -108 -35 -112 -32
-119 13 -33 43 81 67 112 87 112 8 0 21 11 30 24 8 14 25 26 37 28 14 2 26 14
32 34 6 17 12 31 15 31 51 1 80 61 80 164 0 94 29 162 82 190 13 7 9 -5 -13
-43 -41 -69 -46 -115 -20 -215 23 -91 26 -135 10 -164 -23 -45 -89 -41 -89 5
0 24 32 46 38 27 2 -6 8 -11 14 -11 6 0 6 6 -2 15 -18 22 -37 18 -55 -9 -19
-29 -8 -61 25 -71 28 -9 25 -24 -15 -70 -19 -22 -35 -49 -35 -60 -1 -19 -2
-19 -20 4 -26 30 -25 33 6 71 32 37 27 46 -18 31 -64 -21 -131 -109 -144 -189
-6 -39 -7 -39 -36 -28 -35 13 -48 -2 -42 -48 5 -35 -8 -62 -25 -52 -8 5 -8 13
-1 27 20 36 -9 20 -40 -22 -37 -52 -70 -139 -70 -187 0 -20 -5 -44 -10 -52 -7
-12 -11 -10 -19 10 -9 22 -10 20 -10 -19 -1 -42 -2 -43 -16 -25 -14 18 -14 17
-15 -13 0 -22 -10 -43 -31 -65 l-31 -33 7 30 c3 17 13 43 21 59 18 36 18 35
-6 29 -16 -4 -19 -2 -13 13 3 11 18 30 33 44 14 14 18 19 8 11 -10 -8 -21 -11
-25 -8 -3 4 23 35 58 69 68 65 89 109 89 179 -1 28 -2 31 -11 16 -13 -23 -29
-22 -29 3 0 11 12 27 28 37 35 23 41 31 34 55 -4 15 -11 19 -33 16 -32 -5 -32
-5 24 70 46 61 58 124 35 182 l-14 35 -15 -30 c-9 -19 -23 -31 -38 -33 l-24
-4 20 26 c12 14 24 46 27 71 6 34 12 45 25 45 33 0 72 40 69 69 -4 30 -38 44
-38 14 0 -14 2 -15 9 -4 6 9 11 10 15 2 20 -31 -32 -84 -59 -61 -21 17 -28 66
-15 105 14 41 49 68 130 100 83 32 116 59 150 118 32 55 35 67 21 67 -5 0 -12
-13 -16 -29 -11 -53 -73 -109 -155 -142 -41 -17 -90 -44 -107 -62 l-33 -31 0
45 c0 46 45 154 64 154 5 0 14 -8 20 -18 9 -14 7 -21 -6 -31 -16 -12 -16 -14
7 -24 25 -12 55 -7 55 8 0 5 10 10 23 12 24 3 36 43 18 61 -7 7 -7 16 0 29 8
15 6 26 -7 46 l-18 27 -6 -30 c-6 -32 -36 -47 -46 -22 -8 21 10 52 65 111 29
32 37 45 21 35 -23 -15 -61 -59 -100 -117 -10 -14 -20 -19 -28 -14 -9 6 -5 19
18 51 31 42 116 105 131 95 5 -2 17 1 28 8 18 11 17 15 -30 66 -69 75 -112
140 -105 158 9 22 31 11 30 -15 -1 -24 6 -27 24 -9 13 13 16 51 5 62 -4 4 -6
21 -5 39 2 27 -4 36 -34 55 -57 35 -124 24 -69 -12 14 -9 25 -25 25 -36 0 -80
-86 48 -114 171 -8 33 -17 64 -20 67 -4 3 -23 -4 -44 -15 -50 -28 -161 -65
-173 -58 -17 11 11 47 32 42 28 -8 23 11 -13 45 -38 35 -41 31 87 93 118 57
187 75 318 82 59 3 107 8 107 10 0 13 -425 442 -431 436 -4 -4 -84 -159 -179
-344 -148 -292 -174 -336 -191 -332 -10 3 -22 9 -24 13 -6 10 118 254 225 445
73 130 114 215 107 221 -3 4 -442 -75 -722 -129 l-120 -23 55 -13 c214 -51
403 -180 476 -323 l24 -48 -30 -60 c-17 -34 -34 -59 -38 -56 -4 2 -7 -22 -8
-54 -2 -81 -34 -242 -48 -237 -16 5 -20 46 -6 63 21 24 -18 17 -43 -9 -24 -23
-31 -27 -48 -27 -7 0 -9 -12 -7 -30 3 -17 1 -33 -4 -36 -13 -8 -9 -38 9 -64
l18 -25 5 30 c4 21 12 31 28 33 12 2 22 -1 22 -6 0 -18 -64 -104 -100 -134
l-37 -32 71 -85 c120 -145 129 -161 84 -161 -12 0 -18 7 -18 21 0 28 -23 19
-35 -15 -6 -18 -6 -33 2 -45 6 -10 7 -24 3 -32 -13 -22 4 -43 29 -36 12 3 21
1 21 -4 0 -5 14 -16 31 -24 l30 -16 -16 24 c-13 20 -14 29 -4 51 7 15 17 25
23 23 20 -7 61 -90 101 -204 3 -9 26 -2 77 21 105 49 118 52 118 26 0 -18 -4
-21 -25 -17 -24 4 -25 3 -12 -17 8 -11 23 -23 33 -25 11 -2 23 -9 27 -17 12
-21 25 -17 62 20 21 20 35 43 35 57 0 18 -3 20 -9 10 -10 -16 -41 -8 -41 10 0
15 108 7 165 -13 36 -12 40 -17 48 -58 10 -53 10 -52 1 -110 -7 -48 -28 -80
-52 -80 -12 0 -12 -3 -2 -15 18 -21 56 -19 78 5 l19 21 7 -23 c16 -63 3 -104
-58 -177 -36 -43 -46 -87 -25 -108 8 -8 8 -13 0 -17 -6 -4 -11 -20 -11 -37 0
-22 5 -29 20 -29 24 0 24 -4 4 -64 -12 -34 -32 -60 -75 -99 -32 -28 -59 -59
-59 -69 0 -9 -5 -29 -12 -43 -9 -21 -9 -28 1 -35 11 -6 9 -21 -9 -76 -12 -37
-28 -81 -37 -97 -8 -16 -12 -31 -9 -34 2 -3 12 10 22 29 9 18 36 54 60 80 24
26 44 54 44 62 0 7 7 16 15 20 8 3 15 12 15 21 0 8 7 15 15 15 15 0 21 16 28
87 3 24 19 72 36 108 28 60 32 65 50 53 23 -14 51 3 51 33 0 11 5 16 13 13 24
-9 48 21 61 78 17 72 59 144 99 169 43 26 53 24 33 -6 -22 -34 -20 -52 10 -80
34 -32 48 -32 40 -1 -4 18 3 34 29 66 19 23 35 50 35 60 0 10 9 22 21 25 11 4
27 22 35 42 13 31 13 43 -11 139 -14 58 -25 116 -25 128 0 30 44 117 74 145
23 21 24 21 54 4 26 -15 36 -16 61 -6 30 11 30 10 33 -26 2 -29 7 -36 23 -36
12 0 39 -19 60 -42 22 -24 47 -43 57 -43 10 0 18 -6 18 -13 0 -14 31 -47 41
-44 8 3 67 -66 83 -97 13 -26 14 -25 19 36 3 35 4 99 3 143 -1 44 2 85 7 92 5
7 4 20 -3 32 -6 13 -7 21 -1 21 18 0 23 41 8 64 -14 21 -13 23 14 33 16 6 34
22 40 36 35 78 -66 169 -222 201 -63 13 -64 13 -61 44 3 24 -2 34 -22 47 -14
10 -34 15 -45 12 -15 -3 -21 5 -34 47 -10 31 -14 66 -10 89 5 30 3 37 -11 37
-26 0 -51 67 -37 97 6 14 8 30 4 36 -4 6 -9 27 -13 46 -4 27 -11 37 -30 41
-23 6 -25 10 -22 53 3 35 -2 57 -17 83 -26 44 -26 46 4 34 30 -11 70 1 79 25
12 33 6 72 -16 93 -26 24 -107 47 -142 40 -23 -5 -27 1 -50 64 -14 38 -26 73
-26 77 0 5 15 12 33 15 42 8 101 56 132 111 25 41 27 43 55 32 30 -11 39 -30
20 -42 -11 -7 -13 -45 -4 -70 8 -20 56 -45 87 -45 13 0 36 9 50 20 l26 21 15
-29 c22 -42 81 -90 150 -123 61 -29 120 -38 131 -20 6 11 -32 641 -39 649 -3
2 -27 -1 -53 -8 -40 -11 -452 -152 -531 -181 l-23 -9 23 -41 c13 -23 42 -55
64 -71 50 -36 49 -49 -13 -118 -41 -46 -113 -84 -129 -68 -19 19 -41 398 -26
458 8 35 8 35 21 -27 6 -35 15 -63 19 -63 18 0 175 47 390 116 l234 75 -59 53
c-32 29 -101 91 -154 137 -52 46 -129 114 -171 152 -41 37 -78 67 -80 67 -3 0
-17 -9 -32 -21z m102 -154 c49 -65 140 -138 226 -180 l69 -35 -69 0 c-90 0
-239 -24 -308 -51 -39 -14 -68 -35 -101 -71 -25 -28 -48 -48 -52 -45 -3 4 -6
37 -6 74 1 118 43 177 134 189 l49 7 -34 37 c-65 73 -71 154 -14 211 l31 31
18 -59 c10 -32 36 -80 57 -108z m-22 124 c15 -18 224 -205 352 -317 l27 -24
-25 7 c-14 3 -61 24 -106 45 -128 62 -246 182 -274 279 -10 36 -1 40 26 10z
m-930 -99 c104 -36 148 -100 157 -228 6 -72 -2 -81 -57 -62 -40 13 -66 58 -86
150 -7 30 -19 67 -26 82 -15 29 -57 63 -89 71 -14 3 -11 5 11 6 17 0 57 -8 90
-19z m-68 -17 c35 -22 59 -69 77 -150 21 -92 52 -132 110 -140 37 -5 42 -9 70
-66 23 -46 39 -65 69 -80 l39 -21 -29 -23 c-16 -13 -41 -33 -56 -44 l-27 -19
-88 122 c-125 174 -276 430 -260 440 15 10 65 0 95 -19z m306 -48 c76 -17 129
-23 151 -19 23 4 35 2 35 -5 0 -25 -31 -84 -82 -157 -51 -72 -53 -79 -53 -140
0 -75 -9 -80 -59 -29 -37 36 -56 86 -56 145 0 78 -20 155 -51 199 -17 24 -24
41 -16 38 8 -3 67 -17 131 -32z m576 6 c6 -16 20 -37 31 -47 18 -17 17 -18
-38 -36 l-58 -20 -22 27 c-29 33 -29 69 -1 89 37 26 74 21 88 -13z m-220 -52
c30 -23 66 -46 80 -51 l25 -10 -25 -16 c-42 -29 -264 -195 -313 -236 l-47 -38
-10 27 c-22 59 -8 108 63 203 25 34 51 79 57 100 6 20 13 43 15 50 3 7 23 12
52 12 41 0 57 -6 103 -41z m88 -192 c-27 -75 -73 -126 -148 -166 -118 -63
-150 -108 -115 -158 14 -20 13 -24 -10 -49 -13 -14 -30 -42 -37 -60 -7 -19
-15 -34 -19 -34 -4 0 -35 30 -69 66 -50 54 -59 69 -48 79 7 6 85 71 173 142
88 72 189 156 225 186 36 30 66 54 67 53 1 -1 -7 -27 -19 -59z m607 44 c-15
-14 -546 -182 -554 -175 -13 12 70 99 120 124 32 17 144 43 224 53 65 8 219 7
210 -2z m26 -115 c-21 -21 -30 -39 -26 -47 5 -7 4 -10 -1 -6 -6 3 -29 -7 -52
-23 -77 -51 -316 -97 -398 -75 l-29 7 25 10 c83 33 478 167 494 167 17 1 15
-4 -13 -33z m68 -277 c10 -162 16 -296 14 -299 -3 -3 -28 20 -57 51 -35 37
-57 73 -69 108 -32 98 -16 264 34 364 22 44 50 80 56 73 2 -2 12 -136 22 -297z
m-719 171 l0 -100 -32 -13 c-18 -8 -57 -17 -87 -21 -30 -4 -63 -12 -74 -17
-14 -8 -23 -6 -38 7 -42 38 -13 78 103 143 43 23 88 55 100 71 13 16 24 29 26
29 1 1 2 -44 2 -99z m599 -25 c-20 -73 -27 -196 -14 -255 12 -56 44 -111 94
-164 l46 -49 -35 7 c-51 9 -119 45 -163 85 -66 60 -91 132 -68 194 l9 24 -41
-14 c-85 -30 -204 10 -273 91 -19 22 -34 43 -34 46 0 4 42 5 93 2 65 -3 119 1
178 12 87 18 190 58 210 83 19 22 19 12 -2 -62z m-586 -188 c3 -51 9 -101 13
-110 11 -29 -44 -21 -125 18 -78 38 -120 43 -163 21 -33 -17 -35 -8 -12 41 26
53 70 81 157 97 43 8 85 19 94 25 10 5 20 8 24 6 3 -3 9 -46 12 -98z m-583 -2
c0 -9 -38 -82 -115 -220 -40 -71 -89 -163 -110 -204 -29 -59 -39 -71 -46 -59
-11 20 -2 45 45 122 50 83 54 113 22 180 -14 30 -26 60 -26 66 0 7 -9 25 -21
42 -12 16 -20 31 -18 33 5 4 219 43 247 44 12 1 22 -1 22 -4z m290 -201 l205
-206 -54 6 c-65 7 -112 36 -141 89 -32 56 -59 77 -99 77 -20 0 -43 -4 -50 -9
-10 -7 -24 -3 -44 11 -16 12 -51 23 -78 26 -27 2 -49 7 -49 9 0 3 93 182 105
203 0 0 92 -93 205 -206z m720 159 c0 -54 -5 -65 -38 -82 -43 -23 -112 10
-112 53 0 41 27 65 78 69 26 2 53 4 60 5 8 1 12 -13 12 -45z m-1300 -22 c0
-42 -63 -86 -182 -127 l-68 -23 -54 24 c-30 13 -80 32 -112 41 l-59 17 220 43
c262 50 255 49 255 25z m50 -85 c-1 -48 -14 -74 -56 -110 -17 -14 -37 -39 -44
-56 -7 -16 -14 -30 -17 -30 -2 0 -30 21 -61 46 -31 26 -67 51 -79 57 -30 13
-29 23 2 31 105 26 215 95 215 135 1 12 5 11 20 -8 13 -15 20 -38 20 -65z
m706 50 c38 -19 85 -37 104 -41 34 -6 37 -11 62 -79 l26 -72 -39 -55 c-22 -29
-41 -53 -44 -51 -2 2 -68 68 -147 148 l-143 146 24 19 c34 28 78 23 157 -15z
m-666 -150 c0 -23 -6 -52 -14 -66 -7 -14 -27 -49 -43 -78 l-30 -52 -31 39
c-39 49 -35 65 38 145 27 31 50 64 50 74 1 15 2 15 15 -2 8 -11 15 -38 15 -60z
m274 20 c42 -17 69 -55 95 -134 24 -71 26 -92 8 -92 -7 0 -57 -22 -110 -49
-65 -32 -97 -44 -97 -34 0 7 20 52 45 99 25 46 45 97 45 113 0 31 -37 92 -60
99 -8 3 -3 -8 12 -26 15 -18 30 -41 33 -52 9 -27 -10 -81 -51 -149 -19 -31
-34 -63 -34 -72 0 -18 -44 -69 -59 -69 -13 0 -35 -40 -26 -48 3 -4 14 -7 23
-7 10 0 18 -9 20 -22 2 -15 -2 -23 -10 -23 -16 0 -125 19 -149 26 -12 3 7 49
95 224 61 121 118 221 126 224 31 8 62 6 94 -8z m169 -28 c9 -7 32 -35 50 -63
18 -28 49 -59 72 -72 l40 -23 -35 0 c-19 0 -62 -7 -95 -14 -33 -8 -62 -13 -66
-10 -3 2 -12 25 -19 51 -7 27 -21 64 -31 84 -13 27 -15 39 -6 48 15 15 69 14
90 -1z m569 -65 c55 -27 46 -113 -12 -113 -57 0 -146 108 -108 131 16 11 85 0
120 -18z m-138 -18 c8 -30 -10 -112 -30 -143 -10 -15 -23 -22 -37 -20 -38 5
-34 62 8 131 20 31 40 57 45 57 4 0 11 -11 14 -25z m21 -64 c3 -5 1 -12 -5
-16 -5 -3 -10 1 -10 9 0 18 6 21 15 7z m41 -29 c-3 -3 4 -18 15 -34 12 -16 23
-48 25 -71 l4 -42 -26 55 c-14 30 -27 64 -28 75 -1 12 -6 27 -11 35 -8 13 -6
13 8 1 10 -8 15 -16 13 -19z m-4 -74 c15 -40 25 -74 23 -77 -8 -8 -53 40 -65
70 -12 28 -7 79 8 79 4 0 19 -32 34 -72z m-182 -45 c16 -16 33 -43 36 -60 6
-29 4 -33 -15 -33 -12 0 -24 7 -27 15 -4 8 -10 13 -14 10 -5 -3 -11 4 -15 15
-3 11 -12 20 -20 20 -20 0 -26 28 -9 45 21 21 29 19 64 -12z m-585 -42 c3 -10
13 -18 22 -17 9 0 18 -5 20 -11 3 -7 -2 -13 -11 -13 -24 0 -38 -37 -31 -81 5
-31 4 -39 -8 -39 -11 0 -18 16 -23 56 -5 44 -11 58 -26 62 -21 5 -19 27 3 27
8 0 17 8 21 18 10 22 25 22 33 -2z m827 -71 c2 -16 9 -24 18 -22 11 3 12 1 4
-8 -14 -14 -54 16 -54 41 0 40 26 31 32 -11z m36 11 c5 -30 -18 -24 -29 8 -7
18 -6 22 9 19 9 -2 19 -14 20 -27z m-681 -11 c-33 -48 -111 -86 -149 -74 -37
11 -15 30 70 61 48 17 88 31 90 32 2 1 -3 -8 -11 -19z m76 -188 c14 -35 22
-62 18 -60 -3 2 -64 37 -136 78 l-129 75 52 8 c43 7 62 17 105 57 l52 48 6
-72 c4 -40 17 -99 32 -134z m-332 148 c27 0 47 -34 28 -46 -19 -12 -96 9 -157
42 -72 39 -75 28 -4 -13 26 -15 76 -33 111 -38 l64 -11 -89 -61 c-49 -34 -108
-75 -131 -93 -48 -35 -60 -27 -42 28 7 20 13 78 14 127 0 50 4 93 8 96 4 3 45
-3 90 -12 45 -10 94 -19 108 -19z m373 -132 c27 -46 31 -59 21 -68 -10 -8 -17
-5 -29 12 -21 29 -56 142 -55 177 0 20 3 16 14 -19 8 -25 30 -71 49 -102z
m576 121 c0 -11 -4 -18 -10 -14 -5 3 -7 12 -3 20 7 21 13 19 13 -6z m-23 -14
c9 -25 -2 -27 -22 -5 -17 18 -17 20 -1 20 9 0 19 -7 23 -15z m-1142 -78 c-9
-70 -26 -127 -38 -127 -5 0 -7 12 -4 28 4 15 12 62 19 104 14 88 34 83 23 -5z
m357 2 c40 -23 110 -64 156 -91 l82 -49 0 -189 0 -189 -34 -26 c-24 -18 -32
-31 -29 -45 3 -11 8 -20 12 -20 3 0 6 -40 6 -89 l0 -89 -48 24 c-26 14 -73 30
-104 37 l-56 13 92 63 c51 35 90 65 88 67 -2 3 -47 -25 -100 -61 -52 -36 -100
-65 -105 -65 -5 0 -74 31 -154 70 l-145 69 -12 93 c-7 51 -15 137 -18 191 -7
117 -9 114 137 215 52 36 108 76 123 89 16 13 30 23 32 23 2 0 36 -19 77 -41z
m658 -47 c0 -18 -5 -42 -10 -53 -19 -34 -80 -19 -80 20 0 11 5 9 20 -7 26 -27
36 -28 51 -1 10 19 8 47 -6 114 -3 11 2 7 10 -10 8 -16 14 -45 15 -63z m-342
46 c15 -15 16 -58 2 -58 -5 0 -10 8 -10 17 0 9 -7 25 -17 35 -13 15 -14 18 -2
18 8 0 20 -5 27 -12z m52 -46 c0 -10 -5 -23 -10 -28 -8 -8 -6 -15 5 -24 8 -7
15 -20 15 -28 0 -13 -3 -12 -14 3 -12 16 -18 17 -39 8 -20 -10 -26 -9 -31 3
-3 8 1 14 10 14 8 0 13 4 9 9 -3 5 0 13 6 17 8 4 9 3 5 -4 -4 -7 -2 -12 3 -12
11 0 15 12 12 43 -1 9 4 17 13 17 9 0 16 -8 16 -18z m460 -1 c0 -5 3 -16 6
-25 4 -10 1 -16 -9 -16 -16 0 -30 27 -21 41 7 12 24 12 24 0z m30 -13 c0 -19
-2 -20 -10 -8 -13 19 -13 30 0 30 6 0 10 -10 10 -22z m-1308 -25 c2 -20 13
-33 40 -48 42 -22 43 -23 24 -48 -13 -17 -16 -17 -45 -3 -38 20 -55 20 -75 1
-19 -19 -31 -3 -17 23 5 10 7 28 4 40 -4 17 -1 22 15 22 12 0 23 9 27 20 9 29
23 25 27 -7z m733 -53 c-9 -15 -32 -12 -39 5 -7 20 26 38 37 19 4 -8 5 -19 2
-24z m58 -62 c20 -29 49 -69 64 -88 l28 -34 -31 22 c-63 44 -142 152 -111 152
8 0 30 -24 50 -52z m-40 -10 c20 -29 58 -71 86 -92 l49 -39 -40 -20 c-42 -21
-89 -63 -125 -112 l-22 -30 0 166 c-1 140 2 179 14 179 1 0 18 -24 38 -52z
m-713 -1 c0 -12 -52 -66 -94 -98 -11 -7 0 14 24 49 41 58 70 79 70 49z m1377
-33 c6 -17 -14 -44 -32 -44 -19 0 -39 61 -23 71 14 9 47 -7 55 -27z m-1343
-84 c3 -47 9 -108 12 -134 l7 -49 -64 54 c-35 30 -81 65 -102 78 l-38 23 50
29 c27 16 64 46 83 68 21 25 35 35 39 28 4 -7 9 -50 13 -97z m1286 34 c19 -56
22 -82 18 -158 -8 -151 -60 -233 -122 -192 -40 26 -49 53 -43 122 8 86 35 134
97 174 l50 32 -25 20 c-28 21 -31 38 -13 56 7 7 13 12 14 12 1 0 12 -30 24
-66z m145 -26 c97 -21 181 -79 200 -139 9 -29 -24 -73 -58 -77 -14 -2 -43 6
-64 16 -48 25 -144 125 -172 180 l-21 42 32 -6 c18 -3 56 -10 83 -16z m-2
-155 c25 -23 63 -51 86 -62 22 -12 48 -33 58 -47 16 -25 16 -27 0 -39 -14 -10
-15 -18 -7 -39 6 -17 6 -26 -1 -26 -6 0 -7 -14 -3 -35 4 -23 2 -35 -5 -35 -7
0 -9 -9 -5 -25 4 -16 2 -25 -5 -25 -7 0 -6 -9 4 -24 13 -19 15 -34 8 -68 l-9
-43 -32 44 c-18 24 -32 52 -32 63 0 10 -4 18 -10 18 -5 0 -10 -7 -10 -16 0
-29 -25 -8 -28 24 -3 32 -15 41 -27 22 -9 -14 -35 7 -35 26 0 8 -9 14 -20 14
-13 0 -20 7 -21 20 -1 11 -3 25 -4 30 -1 6 -3 13 -4 17 0 4 -8 -3 -17 -15 -38
-55 -44 -13 -14 110 12 49 20 118 20 168 l0 85 34 -50 c18 -28 54 -69 79 -92z
m-1482 8 c74 -66 86 -86 60 -100 -16 -9 -29 3 -101 90 -65 81 -75 97 -50 82
18 -10 58 -42 91 -72z m782 -81 c10 0 22 10 27 23 9 22 9 22 9 0 1 -12 -5 -24
-11 -27 -9 -3 -8 -8 5 -16 19 -12 23 -45 6 -56 -6 -3 -16 -1 -22 5 -17 17 -26
13 -20 -9 4 -15 0 -20 -14 -20 -16 0 -19 6 -15 29 3 22 -2 33 -23 50 -15 11
-34 21 -41 21 -16 0 -16 2 -8 23 5 13 11 13 47 -4 23 -10 50 -19 60 -19z m340
9 c4 -16 3 -18 -9 -8 -7 6 -11 15 -8 20 8 13 11 11 17 -12z m-463 -16 c-1 -18
-19 -35 -29 -28 -9 5 -9 10 0 21 12 15 29 19 29 7z m424 -66 c0 -42 -6 -82
-14 -97 -8 -14 -17 -71 -20 -127 -5 -69 -12 -110 -24 -128 -29 -44 -92 -25
-84 26 2 12 9 24 17 27 10 3 11 -2 6 -19 -6 -19 -5 -22 5 -12 14 13 7 43 -9
43 -6 0 -18 -11 -27 -26 -16 -24 -16 -26 4 -54 18 -24 20 -34 12 -55 -11 -29
-33 -29 -38 0 -3 10 0 15 7 11 6 -4 11 -2 11 3 0 12 -30 15 -31 4 -5 -59 -9
-77 -20 -84 -17 -10 -32 -1 -25 17 3 8 1 14 -4 14 -6 0 -10 -9 -10 -20 0 -18
-46 -100 -56 -100 -2 0 1 12 6 26 6 14 10 36 10 50 0 13 5 24 10 24 6 0 9 10
9 23 -1 17 -2 18 -6 4 -7 -27 -27 -15 -31 18 -3 25 -1 27 19 22 27 -7 49 8 49
34 0 19 -17 35 -28 24 -3 -3 0 -10 7 -14 16 -10 6 -31 -14 -31 -20 0 -33 31
-26 60 6 22 11 24 48 22 57 -5 93 34 61 66 -17 17 -45 15 -52 -3 -3 -8 -1 -15
3 -15 5 0 11 6 14 13 3 9 7 9 20 -2 26 -21 4 -53 -35 -49 -39 4 -53 25 -44 71
6 31 19 46 81 92 78 57 99 82 110 127 4 15 15 30 24 33 10 3 28 17 41 30 13
14 24 25 24 25 1 0 1 -33 0 -73z m-391 56 c4 -3 -3 -21 -14 -40 -12 -19 -28
-55 -35 -81 l-14 -47 4 51 c4 48 32 124 46 124 4 0 10 -3 13 -7z m496 -53 c0
-9 -87 -49 -93 -43 -8 8 -8 88 0 95 6 6 94 -43 93 -52z m-1125 -15 c-24 -23
-44 -50 -44 -60 0 -18 0 -18 -13 0 -10 12 -16 14 -21 7 -12 -20 -29 -13 -23
10 3 12 1 30 -4 40 -15 27 -4 54 16 38 7 -6 24 -10 37 -8 13 2 29 -4 36 -12
12 -13 13 -13 8 4 -9 27 11 48 33 34 16 -10 14 -15 -25 -53z m177 -20 c46 -23
55 -32 51 -48 -4 -14 -1 -18 9 -15 8 3 13 11 11 17 -2 9 3 9 18 1 30 -16 25
-25 -21 -39 -23 -7 -63 -32 -88 -56 l-47 -44 -22 97 c-12 53 -25 107 -28 120
-7 23 -6 23 27 9 19 -8 59 -27 90 -42z m-121 -7 c6 -24 13 -52 16 -63 3 -11
-9 4 -26 33 -29 49 -32 72 -10 72 5 0 14 -19 20 -42z m295 -105 c5 -33 13 -46
33 -57 l27 -14 -27 -7 c-18 -5 -28 -14 -28 -26 0 -26 -21 -24 -27 2 -4 14 -12
19 -24 16 -23 -6 -35 9 -14 17 11 4 15 21 15 60 0 48 2 55 19 53 15 -1 21 -11
26 -44z m120 6 l40 -18 -40 5 c-22 3 -55 6 -73 8 -36 3 -47 10 -38 25 8 13 59
4 111 -20z m-175 3 c0 -13 -12 -23 -42 -32 -24 -7 -60 -21 -80 -31 -21 -11
-38 -15 -38 -10 0 21 111 89 148 91 6 0 12 -8 12 -18z m300 -561 c0 -22 -21
-33 -40 -21 -11 7 -11 11 -1 24 18 22 41 20 41 -3z m138 -74 c2 -12 -3 -17
-17 -17 -15 0 -21 6 -21 21 0 25 33 22 38 -4z"/>
<path d="M1494 3355 c-11 -27 11 -40 42 -27 31 15 27 36 -9 40 -18 2 -29 -2
-33 -13z m46 -4 c0 -14 -18 -23 -30 -16 -6 4 -8 11 -5 16 8 12 35 12 35 0z"/>
<path d="M1763 2723 c-17 -6 -16 -30 0 -36 20 -8 41 9 34 27 -7 16 -13 18 -34
9z m24 -19 c-3 -3 -12 -4 -19 -1 -8 3 -5 6 6 6 11 1 17 -2 13 -5z"/>
<path d="M777 2133 c-11 -10 -8 -43 3 -43 6 0 10 11 10 25 0 26 -2 29 -13 18z"/>
<path d="M880 1986 c0 -9 7 -16 16 -16 17 0 14 22 -4 28 -7 2 -12 -3 -12 -12z"/>
<path d="M1000 1910 c0 -5 7 -10 15 -10 8 0 15 5 15 10 0 6 -7 10 -15 10 -8 0
-15 -4 -15 -10z"/>
<path d="M670 1965 c0 -9 5 -15 11 -13 6 2 11 8 11 13 0 5 -5 11 -11 13 -6 2
-11 -4 -11 -13z"/>
<path d="M520 1855 c0 -9 5 -15 11 -13 6 2 11 8 11 13 0 5 -5 11 -11 13 -6 2
-11 -4 -11 -13z"/>
<path d="M755 1938 c-11 -6 -71 -47 -132 -91 -130 -93 -121 -70 -103 -272 18
-199 15 -191 63 -210 23 -9 86 -37 139 -62 l97 -45 123 84 123 84 7 54 c3 30
6 110 7 177 l1 123 -41 25 c-52 34 -252 145 -259 145 -3 -1 -14 -6 -25 -12z
m171 -80 l144 -83 0 -51 c0 -28 -3 -105 -6 -170 l-7 -120 -121 -82 -121 -82
-102 49 c-56 28 -113 53 -127 57 -15 3 -28 10 -31 14 -5 9 -21 151 -30 276
l-7 91 104 73 c56 41 114 82 128 92 14 9 26 18 28 18 2 0 68 -37 148 -82z"/>
<path d="M700 1871 c-41 -28 -94 -67 -118 -88 l-44 -38 12 -145 c6 -80 13
-152 16 -161 3 -10 59 -40 134 -73 l130 -57 89 63 88 63 7 65 c4 36 12 109 18
164 11 93 10 100 -8 113 -31 24 -234 143 -242 143 -4 0 -41 -22 -82 -49z m264
-69 l69 -43 -7 -46 c-3 -25 -11 -97 -18 -159 l-12 -112 -85 -60 -86 -59 -122
54 c-90 41 -123 60 -127 76 -4 12 -9 84 -13 159 -7 159 -20 136 130 238 l89
60 56 -32 c32 -17 88 -52 126 -76z"/>
<path d="M801 1729 c0 -20 -7 -41 -13 -46 -23 -18 -72 -21 -103 -7 l-30 15 28
-23 c15 -13 27 -28 27 -33 0 -4 7 -17 16 -26 15 -17 15 -20 0 -44 -10 -14 -24
-29 -32 -32 -8 -3 -14 -9 -14 -14 0 -5 10 -3 23 5 22 15 67 12 67 -5 0 -5 -6
-6 -14 -3 -17 7 -31 -12 -16 -21 6 -4 17 -1 25 5 16 13 18 9 28 -35 4 -16 5
-15 6 5 1 14 7 32 14 41 17 23 71 33 97 19 12 -6 24 -9 27 -6 4 3 -8 11 -25
17 -18 6 -32 17 -32 24 0 7 -7 18 -15 25 -14 12 -14 15 1 31 9 10 13 22 10 28
-4 6 5 18 19 27 14 9 23 19 20 22 -3 3 -15 -4 -28 -16 -33 -31 -70 -11 -78 43
l-6 40 -2 -36z m9 -69 c0 -23 10 -26 28 -8 9 9 13 7 18 -6 10 -27 -11 -42 -39
-29 -19 9 -28 8 -40 -5 -15 -14 -18 -14 -37 3 -26 23 -9 48 26 39 18 -5 24 -2
24 10 0 9 5 16 10 16 6 0 10 -9 10 -20z m-23 -81 c8 -8 17 -7 32 2 18 12 23
11 38 -4 15 -15 16 -19 4 -27 -9 -5 -22 -5 -33 1 -15 8 -18 6 -18 -16 0 -16
-6 -25 -16 -25 -11 0 -15 6 -11 19 3 14 0 17 -14 14 -23 -6 -38 25 -18 38 18
11 23 11 36 -2z"/>
<path d="M750 1695 c0 -8 7 -15 15 -15 9 0 12 6 9 15 -4 8 -10 15 -15 15 -5 0
-9 -7 -9 -15z"/>
<path d="M835 1700 c3 -5 13 -10 21 -10 8 0 12 5 9 10 -3 6 -13 10 -21 10 -8
0 -12 -4 -9 -10z"/>
<path d="M886 1612 c-3 -6 -1 -14 5 -17 15 -10 25 3 12 16 -7 7 -13 7 -17 1z"/>
<path d="M695 1600 c-4 -6 -3 -16 3 -22 6 -6 12 -6 17 2 4 6 3 16 -3 22 -6 6
-12 6 -17 -2z"/>
<path d="M830 1505 c0 -8 7 -15 15 -15 8 0 15 7 15 15 0 8 -7 15 -15 15 -8 0
-15 -7 -15 -15z"/>
<path d="M910 1255 c0 -8 5 -15 10 -15 6 0 10 7 10 15 0 8 -4 15 -10 15 -5 0
-10 -7 -10 -15z"/>
<path d="M379 1806 c16 -19 44 -21 39 -3 -3 6 -15 14 -28 15 -21 3 -22 2 -11
-12z"/>
<path d="M1130 1705 c0 -8 7 -15 15 -15 8 0 15 7 15 15 0 8 -7 15 -15 15 -8 0
-15 -7 -15 -15z"/>
<path d="M1137 1564 c-8 -8 1 -24 14 -24 5 0 9 7 9 15 0 15 -12 20 -23 9z"/>
<path d="M442 1651 c2 -7 7 -12 11 -12 12 1 9 15 -3 20 -7 2 -11 -2 -8 -8z"/>
<path d="M460 1500 c0 -5 5 -10 10 -10 6 0 10 5 10 10 0 6 -4 10 -10 10 -5 0
-10 -4 -10 -10z"/>
<path d="M1170 1384 c0 -10 5 -14 16 -10 8 3 12 2 9 -4 -3 -5 3 -14 14 -20 31
-16 35 6 5 29 -32 25 -44 26 -44 5z"/>
<path d="M1388 1193 c-33 -38 -53 -113 -30 -113 19 0 63 60 69 93 6 42 -12 51
-39 20z m15 -55 c-10 -17 -24 -33 -32 -36 -21 -7 -5 47 22 76 18 20 23 21 25
8 2 -9 -5 -31 -15 -48z"/>
<path d="M436 1314 c-22 -21 -20 -27 4 -14 11 6 20 15 20 20 0 14 -6 12 -24
-6z"/>
<path d="M575 1320 c-7 -12 2 -30 16 -30 12 0 12 27 0 35 -5 3 -12 1 -16 -5z"/>
<path d="M810 1163 c0 -10 5 -25 10 -33 7 -11 10 -7 10 18 0 17 -4 32 -10 32
-5 0 -10 -8 -10 -17z"/>
<path d="M406 3439 c-22 -353 -70 -503 -212 -665 -31 -35 -55 -66 -53 -69 4
-3 538 89 666 115 l51 11 -87 137 c-48 75 -143 228 -211 340 -67 111 -125 200
-127 198 -3 -2 52 -97 121 -211 69 -113 126 -211 126 -217 0 -6 -9 -8 -22 -4
-13 3 -28 6 -35 6 -7 0 -44 27 -83 60 -40 32 -87 65 -106 72 -19 6 -34 17 -34
23 1 5 7 73 14 150 7 77 10 146 6 154 -4 7 -10 -38 -14 -100z m79 -269 c22
-15 49 -38 60 -50 24 -27 91 -59 123 -60 41 0 22 -59 -28 -85 -37 -19 -90 -19
-202 1 -83 16 -89 18 -83 38 3 12 15 59 25 106 10 47 19 86 19 88 2 8 50 -13
86 -38z m294 -237 c57 -88 59 -93 38 -98 -159 -34 -639 -117 -644 -111 -9 9
59 65 104 86 26 12 75 23 121 26 127 10 174 32 208 97 8 15 20 27 27 27 17 0
67 52 67 70 0 20 11 7 79 -97z m-316 26 c26 -5 66 -9 87 -9 47 0 53 -18 16
-55 -29 -29 -84 -45 -156 -45 -30 0 -79 -9 -107 -19 -29 -10 -53 -16 -53 -14
0 2 12 20 28 42 15 21 36 57 46 80 21 46 14 45 139 20z"/>
<path d="M2515 2580 c-3 -6 1 -13 10 -16 19 -8 30 0 20 15 -8 14 -22 14 -30 1z"/>
<path d="M2360 2426 c0 -9 7 -16 16 -16 9 0 14 5 12 12 -6 18 -28 21 -28 4z"/>
<path d="M1757 2377 c-29 -21 -32 -77 -7 -110 25 -31 65 -34 65 -5 0 9 4 20 8
24 10 11 9 62 -3 85 -12 22 -38 25 -63 6z m44 -7 c1 -5 2 -14 3 -19 0 -5 4
-13 9 -17 13 -13 8 -47 -6 -41 -10 4 -13 -2 -9 -19 7 -36 -24 -31 -43 6 -16
31 -13 62 7 88 12 14 37 16 39 2z"/>
<path d="M3190 2250 c0 -13 5 -20 13 -17 6 2 12 10 12 17 0 7 -6 15 -12 18 -8
2 -13 -5 -13 -18z"/>
<path d="M2295 2170 c-4 -6 -3 -16 3 -22 6 -6 12 -6 17 2 4 6 3 16 -3 22 -6 6
-12 6 -17 -2z"/>
<path d="M2304 1999 c-8 -14 18 -31 30 -19 9 9 0 30 -14 30 -5 0 -12 -5 -16
-11z"/>
<path d="M3056 1983 c-11 -11 -6 -23 9 -23 8 0 15 4 15 9 0 13 -16 22 -24 14z"/>
<path d="M1543 1933 c31 -109 31 -108 11 -149 -23 -47 -74 -79 -111 -69 -63
15 -123 116 -103 171 10 26 -1 32 -18 11 -8 -10 -8 -24 -1 -53 36 -131 141
-181 218 -103 40 40 48 88 27 155 -9 30 -20 54 -23 54 -3 0 -3 -8 0 -17z"/>
<path d="M2925 1849 c-10 -15 3 -25 16 -12 7 7 7 13 1 17 -6 3 -14 1 -17 -5z"/>
<path d="M2585 1774 c-10 -15 -22 -23 -31 -20 -8 3 -14 1 -14 -4 0 -6 9 -10
20 -10 12 0 17 -5 14 -13 -3 -8 2 -14 11 -14 8 0 15 4 15 9 0 4 9 8 20 8 11 0
20 5 20 10 0 6 -6 9 -12 8 -8 -2 -12 7 -11 25 2 34 -10 35 -32 1z"/>
</g>
</svg>
